<?xml version="1.0" encoding="UTF-8"?>
<svg xmlns="http://www.w3.org/2000/svg" version="1.1" viewBox="0 0 80 80">
  <defs>
    <style>
      .cls-1 {
        fill: #253866;
        fill-rule: evenodd;
      }
    </style>
  </defs>
  <!-- Generator: Adobe Illustrator 28.6.0, SVG Export Plug-In . SVG Version: 1.2.0 Build 709)  -->
  <g>
    <g id="Layer_1">
      <path class="cls-1" d="M.2,9c0,.1,0,.3,0,.4.1.3,0,1.6,0,1.9-.1.2-.2,1.4-.1,1.4s.2.7.2.8c0,0,0,.2,0,.3,0,.1,0,.3,0,.5-.1.4-.2.9-.1,1,0,0,0,.2,0,.8,0,.3,0,.4,0,.5.1.2.1.7,0,.7s-.1.4,0,.7c0,.1,0,.3,0,.3,0,.2,0,1.1,0,1.1,0,0,0,.2,0,.3,0,.2,0,.3,0,.4,0,0,0,.1,0,.2,0,0,0,.2,0,.3,0,.2,0,1.1,0,1.2-.1,0-.3.5-.2.6,0,0,0,.3,0,.5,0,.2,0,.5.1.5,0,.1,0,.2,0,.3-.1.1-.1.8,0,1.2,0,.2,0,.4,0,.4,0,0,0,.2,0,.3,0,.1,0,.4,0,.6-.1.6-.1,1.3,0,1.5,0,.1,0,.3,0,1,0,1.2,0,2.2,0,2.5,0,.2,0,.2,0,.5,0,.2,0,.3,0,.4,0,0,0,0,0,0,0,0,0,.5,0,.6,0,0,.1,1.6,0,2.7,0,.4,0,.8,0,.9,0,0,0,.3,0,.6,0,.5-.1,1.3,0,1.4,0,0,0,.3,0,.6,0,.2,0,.3,0,.4v1.2c-.1.2-.1.5-.2.6,0,.1,0,.3,0,.4,0,.2,0,1.2,0,1.4,0,0,0,.1,0,.1,0,0,0,1,0,1.1,0,0,.1.6.1.7,0,.3,0,1.1.1,1.9,0,.2,0,.5,0,.7,0,.2,0,.5,0,.7,0,.3,0,.4-.1.9-.2.5-.2.6-.1.7,0,.1.2.6.1,1,0,.5,0,.6,0,.8,0,.2.2,2.3,0,2.3-.2,0-.2,1.1,0,1.6,0,.2.1,1.5,0,2.4,0,.1,0,1.6,0,2.1,0,.3,0,.4-.2.8-.2.4-.2.7,0,.9,0,0,0,0,0,0s0,0,0,.1c0,0,0,.2,0,.4-.1.5-.1.9,0,.9s0,.1.1.3c0,.3,0,2.6,0,2.7,0,0,0,.2,0,.4,0,.4,0,.7,0,1.3,0,.2,0,.4,0,.5,0,.1,0,.3,0,.5-.1.4-.1,1.1,0,1.2.1.1.1.8,0,1.9,0,.3,0,.6,0,.8,0,.2,0,.3,0,.4,0,0-.1.2-.1.2,0,.3,0,.6,0,.6,0,0,0,.5,0,1.6,0,.6,0,1.5.2,1.7,0,.1,0,.2,0,.3,0,0,0,.1,0,.2,0,0,0,0,0,.1,0,0,0,.2,0,.4,0,.3,0,1.2-.2,1.5,0,0,.8-.1,1.7,0s1.5.1,2.6.1,2.6-.4,3.3-.2,2.1,0,2.1,0c0-.5,0-1.4,0-1.7,0-.3,0-.5,0-1.2,0-.2,0-.3,0-.5,0-.2-.1-.3,0-.4,0,0,0-.2,0-.3,0-.7,0-1.5.1-1.8,0,0,0-.2,0-.2,0,0,0,0,0-.1,0,0,0,0,0,0,0,0-.1-.5-.1-1.4,0,0,0-.2,0-.4,0-.2,0-.5,0-.7,0-.2,0-.5,0-.6,0-.1,0-.3,0-.4-.1-.3,0-1.6,0-1.9.1-.2.2-1.4.1-1.4s-.2-.7-.2-.8c0,0,0-.2,0-.3,0-.1,0-.3,0-.5.1-.4.2-.9.1-1,0,0,0-.2,0-.8,0-.3,0-.4,0-.5-.1-.2-.1-.7,0-.7s.1-.4,0-.7c0-.1,0-.3,0-.3,0-.2,0-1.1,0-1.1,0,0,0-.2,0-.3,0-.2,0-.3,0-.4,0,0,0-.1,0-.2,0,0,0-.2,0-.3,0-.2,0-1.1,0-1.2.1,0,.3-.5.2-.6,0,0,0-.3,0-.5,0-.2,0-.5-.1-.5,0-.1,0-.2,0-.3.1-.1.1-.8,0-1.2,0-.2,0-.4,0-.4,0,0,0-.2,0-.3,0-.1,0-.4,0-.6.1-.6.1-1.3,0-1.5,0-.1,0-.3,0-1,0-1.2,0-2.2,0-2.5,0-.2,0-.2,0-.5,0-.2,0-.3,0-.4,0,0,0,0,0,0,0,0,0-.5,0-.6,0,0-.1-1.6,0-2.7,0-.4,0-.8,0-.9,0,0,0-.3,0-.6,0-.5.1-1.3,0-1.4,0,0,0-.3,0-.6,0-.2,0-.3,0-.4v-1.2c.1-.2.1-.5.2-.6,0-.1,0-.3,0-.4,0-.2,0-1.2,0-1.4,0,0,0-.1,0-.1,0,0,0-1,0-1.1,0,0-.1-.6-.1-.7,0-.3,0-1.1-.1-1.9,0-.2,0-.5,0-.7,0-.2,0-.5,0-.7,0-.3,0-.4.1-.9.2-.5.2-.6.1-.7,0-.1-.2-.6-.1-1,0-.5,0-.6,0-.8,0-.2-.2-2.3,0-2.3.2,0,.2-1.1,0-1.6,0-.2-.1-1.5,0-2.4,0-.1,0-1.6,0-2.1,0-.3,0-.4.2-.8.2-.4.2-.7,0-.9,0,0,0,0,0,0s0,0,0-.1c0,0,0-.2,0-.4.1-.5.1-.9,0-.9s0-.1-.1-.3c0-.3,0-2.6,0-2.7,0,0,0-.2,0-.4,0-.4,0-.7,0-1.3,0-.2,0-.4,0-.5,0-.1,0-.3,0-.5.1-.4.1-1.1,0-1.2M7.1,75.8c0,.1,0,.4,0,.6,0,.5,0,.8-.4.8s-.4,0-.7.1c-.6.1-.8.1-.8,0,0,0-.3,0-.6.1-.3.2-.9.3-1.1.2-.4,0-.5-.2-.4-.7,0-.2,0-.4,0-.5,0-.2,0-.6,0-.7.1-.1,1-.2,1.3-.1.2,0,.3,0,.4,0,.2,0,.7,0,.8,0,0,0,.2,0,.4-.1.8-.3.9-.3.9.1ZM6.9,73.5v.5s-1.3,0-1.3,0c-.7,0-1.4,0-1.6,0-.2,0-.4,0-.6,0-.1,0-.3,0-.4-.1,0,0-.1-.3,0-.3,0,0,0-.2,0-.3v-.3h.4c.2,0,.6,0,.8,0,.2,0,.7-.1,1.1-.1.4,0,.8,0,.9-.2.4-.2.5,0,.6.9ZM6.9,68.3c0,.1,0,.7,0,.9,0,.1,0,.3,0,.7,0,0,0,.2.2.2.2.1.2.4,0,.5,0,0-.2,0-.3,0-.1,0-.4,0-.6,0-.2,0-.6.1-.9.1-.4,0-.6,0-.8.1,0,0-.3.1-.5.1h-.5c-.2,0-.3-.1-.3-.6,0-.1,0-.4,0-.5,0-.3,0-.5,0-.8.1-.4.2-.5.8-.5s.6,0,.6,0c0,0,.3,0,.6,0,.3,0,.6,0,.7,0,.6-.1,1-.1,1.1,0ZM6.8,64.2c.3,0,.3,0,.3.2,0,0,0,.6,0,1.1,0,.5,0,1,0,1,0,0-.3,0-.6,0-.6,0-.9,0-1.7.1-.4,0-.6.1-.8,0-.2,0-.3,0-.4,0-.4.2-.4.2-.4-.1,0-.2,0-.4,0-.5,0-.3,0-1,.1-1.4.1-.4.2-.4,1.2-.4.9,0,1.6,0,1.9-.2.1,0,.3,0,.5,0ZM6.9,61c0,.3,0,1.2,0,1.5v.3s-.5,0-.5,0c-.8,0-1.2,0-1.7,0-.3,0-.7,0-1.1,0-.5,0-.6,0-.6,0,0,0,0-.2,0-.4,0-.2,0-.4,0-.5s0-.2,0-.3c0-.3,0-.4.5-.4.5,0,1.1,0,1.2,0,0,0,.2,0,.3,0,.1,0,.3,0,.4,0,0,0,.3,0,.4-.1.7,0,1,0,1,0ZM6.9,57.4v.5c0,.3,0,.6,0,.6,0,0,0,.2,0,.4v.3s-.4,0-.4,0c-.4,0-.3,0-1.6,0-.8,0-1.1,0-1.6.2-.1,0-.1,0,0-.3,0-.2,0-.4,0-.5,0-.1,0-.3,0-.6v-.4s.3,0,.3,0c.2,0,.4,0,.5,0,.1,0,.3,0,.4,0,0,0,.5,0,.9,0,1,0,.9,0,1.1,0,0,0,.2-.1.4-.1h.3ZM6.9,54.7c0,.2,0,.4,0,.4s0,.4,0,.6c0,0,0,.2,0,.2-.1,0-2.4,0-2.4-.1,0,0-.4,0-.6,0,0,0-.2,0-.2,0s-.2,0-.3,0c-.2,0-.2,0-.3-.2,0-.1,0-.3,0-.3,0,0,0-.1,0-.2s.5,0,1.6-.2c.4,0,1.2-.1,1.5-.2.5-.2.7-.2.8,0ZM6.9,51.3c0,0,0,.2,0,.2,0,0,0,.2,0,.3,0,.4,0,1,0,1.1,0,0-.3,0-1,0-.5,0-1,0-1.1,0s-.3,0-.4,0c-.1,0-.4.2-.6.2-.3,0-.4.1-.4,0,0-.1,0-.3,0-.5,0,0,0-.2,0-.4,0-.2-.1-.3,0-.5,0-.1,0-.4,0-.5,0-.2,0-.2,1.2-.2.3,0,.6,0,.7,0,0,0,.2,0,.2,0,0,0,.6,0,.6,0,0,0,.2,0,.5-.1.4,0,.5,0,.5,0ZM6.7,48.3c.1,0,.2.4,0,.5,0,0-.1.1-.1.1q0,.3-.6.3c-.3,0-.6,0-.6,0,0,0-.9,0-1.2,0-.2,0-.5,0-.8,0-.5,0-.5,0-.5-.2,0,0,0-.2,0-.3,0-.2.5-.4,1.1-.3.3,0,.5,0,.6,0,0,0,.4-.1.6-.1.3,0,.6,0,.8,0,.2,0,.4,0,.5,0ZM6.9,45.5c0,0,0,.6,0,.7,0,.1,0,.5,0,.5,0,0,0,0,0,.1s-.1,0-.6,0c-.3,0-.7,0-.9,0-.2,0-.4,0-.4,0-.2.1-1.6.3-1.6.2,0,0,0-.2-.1-.4,0-.2,0-.4-.1-.6,0-.2,0-.4,0-.5,0-.2,0-.2.3-.1.5,0,2.3,0,2.6,0,.3,0,.8-.1.9,0ZM6.9,43.2c0,0,0,.3,0,.4,0,.1,0,.3,0,.5q0,.3-.2.2c-.1,0-.5,0-.8,0-.3,0-.6,0-.7-.1-.2,0-.2,0-.4,0-.2,0-1.5,0-1.6,0,0,0,0-.1,0-.2,0,0,0-.2,0-.3,0-.3.2-.3,1.7-.3,0,0,.2,0,.4,0,.6,0,1.2-.1,1.4-.2.2,0,.2,0,.3.1ZM6.8,40.5c0,.1,0,.2,0,.3,0,0,0,.3,0,.5v.4h-.4c-.2,0-.5-.1-.5-.2,0,0-.3,0-.6,0-.3,0-.6,0-.7,0-.2,0-.4,0-.6,0-.4.1-.8.2-.9,0,0,0,0,0,0-.1,0,0,0-.1,0-.2,0,0,0-.3,0-.5,0-.3,0-.4.1-.4,0,0,.3,0,.4,0,.4,0,.6,0,1.1,0,.2,0,.6,0,.8,0,.2,0,.6,0,.7-.1.2,0,.4,0,.5,0q.2,0,0,.1ZM6.9,37.5s0,0,0,.1c0,0,0,.1,0,.2,0,0,0,.3,0,.5,0,.3,0,.4-.1.4,0,0-.3,0-.4,0-.4,0-.6,0-1.1,0-.2,0-.6,0-.8,0-.2,0-.6,0-.7.1-.2,0-.4,0-.5,0q-.2,0,0-.1c0-.1,0-.2,0-.3,0,0,0-.3,0-.5v-.4h.4c.2,0,.5.1.5.2,0,0,.3,0,.6,0,.3,0,.6,0,.7,0,.2,0,.4,0,.6,0,.4-.1.8-.2.9,0ZM3.4,35.1c.1,0,.5,0,.8,0,.3,0,.6,0,.7.1.2,0,.2,0,.4,0,.2,0,1.5,0,1.6,0,0,0,0,.1,0,.2,0,0,0,.2,0,.3,0,.3-.2.3-1.7.3,0,0-.2,0-.4,0-.6,0-1.2.1-1.4.2-.2,0-.2,0-.3-.1,0,0,0-.3,0-.4,0-.1,0-.3,0-.5q0-.3.2-.2ZM6.7,32.2s0,.2.1.4c0,.2,0,.4.1.6,0,.2,0,.4,0,.5,0,.2,0,.2-.3.1-.5,0-2.3,0-2.6,0-.3,0-.8.1-.9,0,0,0,0-.6,0-.7,0-.1,0-.5,0-.5,0,0,0,0,0-.1s.1,0,.6,0c.3,0,.7,0,.9,0,.2,0,.4,0,.4,0,.2-.1,1.6-.3,1.6-.2ZM6.5,30c.5,0,.5,0,.5.2,0,0,0,.2,0,.3,0,.2-.5.4-1.1.3-.3,0-.5,0-.6,0,0,0-.4.1-.6.1-.3,0-.6,0-.8,0-.2,0-.4,0-.5,0-.1,0-.2-.4,0-.5,0,0,.1-.1.1-.1q0-.3.6-.3c.3,0,.6,0,.6,0,0,0,.9,0,1.2,0,.2,0,.5,0,.8,0ZM6.8,26.1c0,.1,0,.3,0,.5,0,0,0,.2,0,.4,0,.2.1.3,0,.5,0,.1,0,.4,0,.5,0,.2,0,.2-1.2.2-.3,0-.6,0-.7,0,0,0-.2,0-.2,0,0,0-.6,0-.6,0,0,0-.2,0-.5.1-.4,0-.5,0-.5,0s0-.2,0-.2c0,0,0-.2,0-.3,0-.4,0-1,0-1.1,0,0,.3,0,1,0,.5,0,1,0,1.1,0s.3,0,.4,0c.1,0,.4-.2.6-.2.3,0,.4-.1.4,0ZM6.1,23.5c0,0,.2,0,.2,0,0,0,.2,0,.3,0,.2,0,.2,0,.3.2,0,.1,0,.3,0,.3,0,0,0,.1,0,.2s-.5,0-1.6.2c-.4,0-1.2.1-1.5.2-.5.2-.7.2-.8,0,0-.2,0-.4,0-.4s0-.4,0-.6c0,0,0-.2,0-.2.1,0,2.4,0,2.4.1,0,0,.4,0,.6,0ZM6.8,20.3c0,.2,0,.4,0,.5,0,.1,0,.3,0,.6v.4s-.3,0-.3,0c-.2,0-.4,0-.5,0-.1,0-.3,0-.4,0,0,0-.5,0-.9,0-1,0-.9,0-1.1,0,0,0-.2.1-.4.1h-.3v-.5c0-.3,0-.6,0-.6,0,0,0-.2,0-.4v-.3s.4,0,.4,0c.4,0,.3,0,1.6,0,.8,0,1.1,0,1.6-.2.1,0,.1,0,0,.3ZM6.9,16.6s0,.2,0,.4c0,.2,0,.4,0,.5,0,0,0,.2,0,.3,0,.3,0,.4-.5.4-.5,0-1.1,0-1.2,0,0,0-.2,0-.3,0-.1,0-.3,0-.4,0,0,0-.3,0-.4.1-.7,0-1,0-1,0,0-.3,0-1.2,0-1.5v-.3s.5,0,.5,0c.8,0,1.2,0,1.7,0,.3,0,.7,0,1.1,0,.5,0,.6,0,.6,0ZM6.9,13c0,.1,0,.3,0,.4,0,.2,0,.9-.1,1.2-.1.3-.2.3-1.2.3-.9,0-1.6,0-1.9.1-.1,0-.3,0-.5,0-.3,0-.3,0-.3-.2,0,0,0-.5,0-1,0-.5,0-.9,0-.9,0,0,.3,0,.6,0,.6,0,.9,0,1.7-.1.4,0,.6,0,.8,0,.2,0,.3,0,.4,0,.4-.2.4-.2.4,0ZM6.8,10.7c0,0,0,.3,0,.3,0,.2,0,.3,0,.6-.1.3-.2.3-.8.3s-.6,0-.6,0c0,0-.3,0-.6,0-.3,0-.6,0-.7,0-.6,0-1,0-1.1,0,0,0,0-.5,0-.6,0,0,0-.2,0-.5,0,0,0-.1-.2-.2-.2,0-.2-.2,0-.3,0,0,.2,0,.3,0,.1,0,.4,0,.6,0"/>
      <path class="cls-1" d="M70.2,71c0-.1,0-.3,0-.4.1-.3,0-1.6,0-1.9-.1-.2-.2-1.4-.1-1.4s.2-.7.2-.8c0,0,0-.2,0-.3,0-.1,0-.3,0-.5-.1-.4-.2-.9-.1-1,0,0,0-.2,0-.8,0-.3,0-.4,0-.5.1-.2.1-.7,0-.7s-.1-.4,0-.7c0-.1,0-.3,0-.3,0-.2,0-1.1,0-1.1,0,0,0-.2,0-.3,0-.2,0-.3,0-.4,0,0,0-.1,0-.2,0,0,0-.2,0-.3,0-.2,0-1.1,0-1.2-.1,0-.3-.5-.2-.6,0,0,0-.3,0-.5,0-.2,0-.5.1-.5,0-.1,0-.2,0-.3-.1-.1-.1-.8,0-1.2,0-.2,0-.4,0-.4,0,0,0-.2,0-.3,0-.1,0-.4,0-.6-.1-.6-.1-1.3,0-1.5,0-.1,0-.3,0-1,0-1.2,0-2.2,0-2.5,0-.2,0-.2,0-.5,0-.2,0-.3,0-.4,0,0,0,0,0,0,0,0,0-.5,0-.6,0,0,.1-1.6,0-2.7,0-.4,0-.8,0-.9,0,0,0-.3,0-.6,0-.5-.1-1.3,0-1.4,0,0,0-.3,0-.6,0-.2,0-.3,0-.4v-1.2c-.1-.2-.1-.5-.2-.6,0-.1,0-.3,0-.4,0-.2,0-1.2,0-1.4,0,0,0-.1,0-.1,0,0,0-1,0-1.1,0,0,.1-.6.1-.7,0-.3,0-1.1.1-1.9,0-.2,0-.5,0-.7,0-.2,0-.5,0-.7,0-.3,0-.4-.1-.9-.2-.5-.2-.6-.1-.7,0-.1.2-.6.1-1,0-.5,0-.6,0-.8,0-.2.2-2.3,0-2.3-.2,0-.2-1.1,0-1.6,0-.2.1-1.5,0-2.4,0-.1,0-1.6,0-2.1,0-.3,0-.4-.2-.8-.2-.4-.2-.7,0-.9,0,0,0,0,0,0s0,0,0-.1c0,0,0-.2,0-.4-.1-.5-.1-.9,0-.9s0-.1.1-.3c0-.3,0-2.6,0-2.7,0,0,0-.2,0-.4,0-.4,0-.7,0-1.3,0-.2,0-.4,0-.5,0-.1,0-.3,0-.5-.1-.4-.1-1.1,0-1.2.1-.1.1-.8,0-1.9,0-.3,0-.6,0-.8,0-.2,0-.3,0-.4,0,0-.1-.2-.1-.2,0-.3,0-.6,0-.6,0,0,0-.5,0-1.6,0-.6,0-1.5.2-1.7,0-.1,0-.2,0-.3,0,0,0-.1,0-.2,0,0,0,0,0-.1,0,0,0-.2,0-.4,0-.3,0-1.2-.2-1.5,0,0,.8.1,1.7,0s1.5-.1,2.6-.1,2.6.4,3.3.2,2.1,0,2.1,0c0,.5,0,1.4,0,1.7,0,.3,0,.5,0,1.2,0,.2,0,.3,0,.5,0,.2-.1.3,0,.4,0,0,0,.2,0,.3,0,.7,0,1.5.1,1.8,0,0,0,.2,0,.2,0,0,0,0,0,.1,0,0,0,0,0,0,0,0-.1.5-.1,1.4,0,0,0,.2,0,.4,0,.2,0,.5,0,.7,0,.2,0,.5,0,.6,0,.1,0,.3,0,.4-.1.3,0,1.6,0,1.9.1.2.2,1.4.1,1.4s-.2.7-.2.8c0,0,0,.2,0,.3,0,.1,0,.3,0,.5.1.4.2.9.1,1,0,0,0,.2,0,.8,0,.3,0,.4,0,.5-.1.2-.1.7,0,.7s.1.4,0,.7c0,.1,0,.3,0,.3,0,.2,0,1.1,0,1.1,0,0,0,.2,0,.3,0,.2,0,.3,0,.4,0,0,0,.1,0,.2,0,0,0,.2,0,.3,0,.2,0,1.1,0,1.2.1,0,.3.5.2.6,0,0,0,.3,0,.5,0,.2,0,.5-.1.5,0,.1,0,.2,0,.3.1.1.1.8,0,1.2,0,.2,0,.4,0,.4,0,0,0,.2,0,.3,0,.1,0,.4,0,.6.1.6.1,1.3,0,1.5,0,.1,0,.3,0,1,0,1.2,0,2.2,0,2.5,0,.2,0,.2,0,.5,0,.2,0,.3,0,.4,0,0,0,0,0,0,0,0,0,.5,0,.6,0,0-.1,1.6,0,2.7,0,.4,0,.8,0,.9,0,0,0,.3,0,.6,0,.5.1,1.3,0,1.4,0,0,0,.3,0,.6,0,.2,0,.3,0,.4v1.2c.1.2.1.5.2.6,0,.1,0,.3,0,.4,0,.2,0,1.2,0,1.4,0,0,0,.1,0,.1,0,0,0,1,0,1.1,0,0-.1.6-.1.7,0,.3,0,1.1-.1,1.9,0,.2,0,.5,0,.7,0,.2,0,.5,0,.7,0,.3,0,.4.1.9.2.5.2.6.1.7,0,.1-.2.6-.1,1,0,.5,0,.6,0,.8,0,.2-.2,2.3,0,2.3.2,0,.2,1.1,0,1.6,0,.2-.1,1.5,0,2.4,0,.1,0,1.6,0,2.1,0,.3,0,.4.2.8.2.4.2.7,0,.9,0,0,0,0,0,0s0,0,0,.1c0,0,0,.2,0,.4.1.5.1.9,0,.9s0,.1-.1.3c0,.3,0,2.6,0,2.7,0,0,0,.2,0,.4,0,.4,0,.7,0,1.3,0,.2,0,.4,0,.5,0,.1,0,.3,0,.5.1.4.1,1.1,0,1.2M77,4.2c0-.1,0-.4,0-.6,0-.5,0-.8-.4-.8s-.4,0-.7-.1c-.6-.1-.8-.1-.8,0,0,0-.3,0-.6-.1-.3-.2-.9-.3-1.1-.2-.4,0-.5.2-.4.7,0,.2,0,.4,0,.5,0,.2,0,.6,0,.7.1.1,1,.2,1.3.1.2,0,.3,0,.4,0,.2,0,.7,0,.8,0,0,0,.2,0,.4.1.8.3.9.3.9-.1ZM76.9,6.5v-.5s-1.3,0-1.3,0c-.7,0-1.4,0-1.6,0-.2,0-.4,0-.6,0-.1,0-.3,0-.4.1,0,0-.1.3,0,.3,0,0,0,.2,0,.3v.3h.4c.2,0,.6,0,.8,0,.2,0,.7.1,1.1.1.4,0,.8,0,.9.2.4.2.5,0,.6-.9ZM76.9,11.7c0-.1,0-.7,0-.9,0-.1,0-.3,0-.7,0,0,0-.2.2-.2.2-.1.2-.4,0-.5,0,0-.2,0-.3,0-.1,0-.4,0-.6,0-.2,0-.6-.1-.9-.1-.4,0-.6,0-.8-.1,0,0-.3-.1-.5-.1h-.5c-.2,0-.3.1-.3.6,0,.1,0,.4,0,.5,0,.3,0,.5,0,.8.1.4.2.5.8.5s.6,0,.6,0c0,0,.3,0,.6,0,.3,0,.6,0,.7,0,.6.1,1,.1,1.1,0ZM76.8,15.8c.3,0,.3,0,.3-.2,0,0,0-.6,0-1.1,0-.5,0-1,0-1,0,0-.3,0-.6,0-.6,0-.9,0-1.7-.1-.4,0-.6-.1-.8,0-.2,0-.3,0-.4,0-.4-.2-.4-.2-.4.1,0,.2,0,.4,0,.5,0,.3,0,1,.1,1.4.1.4.2.4,1.2.4.9,0,1.6,0,1.9.2.1,0,.3,0,.5,0ZM76.9,19c0-.3,0-1.2,0-1.5v-.3s-.5,0-.5,0c-.8,0-1.2,0-1.7,0-.3,0-.7,0-1.1,0-.5,0-.6,0-.6,0,0,0,0,.2,0,.4,0,.2,0,.4,0,.5s0,.2,0,.3c0,.3,0,.4.5.4.5,0,1.1,0,1.2,0,0,0,.2,0,.3,0,.1,0,.3,0,.4,0,0,0,.3,0,.4.1.7,0,1,0,1,0ZM76.9,22.6v-.5c0-.3,0-.6,0-.6,0,0,0-.2,0-.4v-.3s-.4,0-.4,0c-.4,0-.3,0-1.6,0-.8,0-1.1,0-1.6-.2-.1,0-.1,0,0,.3,0,.2,0,.4,0,.5,0,.1,0,.3,0,.6v.4s.3,0,.3,0c.2,0,.4,0,.5,0,.1,0,.3,0,.4,0,0,0,.5,0,.9,0,1,0,.9,0,1.1,0,0,0,.2.1.4.1h.3ZM76.9,25.3c0-.2,0-.4,0-.4s0-.4,0-.6c0,0,0-.2,0-.2-.1,0-2.4,0-2.4.1,0,0-.4,0-.6,0,0,0-.2,0-.2,0s-.2,0-.3,0c-.2,0-.2,0-.3.2,0,.1,0,.3,0,.3,0,0,0,.1,0,.2s.5,0,1.6.2c.4,0,1.2.1,1.5.2.5.2.7.2.8,0ZM76.9,28.7c0,0,0-.2,0-.2,0,0,0-.2,0-.3,0-.4,0-1,0-1.1,0,0-.3,0-1,0-.5,0-1,0-1.1,0s-.3,0-.4,0c-.1,0-.4-.2-.6-.2-.3,0-.4-.1-.4,0,0,.1,0,.3,0,.5,0,0,0,.2,0,.4,0,.2-.1.3,0,.5,0,.1,0,.4,0,.5,0,.2,0,.2,1.2.2.3,0,.6,0,.7,0,0,0,.2,0,.2,0,0,0,.6,0,.6,0,0,0,.2,0,.5.1.4,0,.5,0,.5,0ZM76.7,31.7c.1,0,.2-.4,0-.5,0,0-.1-.1-.1-.1q0-.3-.6-.3c-.3,0-.6,0-.6,0,0,0-.9,0-1.2,0-.2,0-.5,0-.8,0-.5,0-.5,0-.5.2,0,0,0,.2,0,.3,0,.2.5.4,1.1.3.3,0,.5,0,.6,0,0,0,.4.1.6.1.3,0,.6,0,.8,0,.2,0,.4,0,.5,0ZM76.9,34.5c0,0,0-.6,0-.7,0-.1,0-.5,0-.5,0,0,0,0,0-.1s-.1,0-.6,0c-.3,0-.7,0-.9,0-.2,0-.4,0-.4,0-.2-.1-1.6-.3-1.6-.2,0,0,0,.2-.1.4,0,.2,0,.4-.1.6,0,.2,0,.4,0,.5,0,.2,0,.2.3.1.5,0,2.3,0,2.6,0,.3,0,.8.1.9,0ZM76.9,36.8c0,0,0-.3,0-.4,0-.1,0-.3,0-.5q0-.3-.2-.2c-.1,0-.5,0-.8,0-.3,0-.6,0-.7.1-.2,0-.2,0-.4,0-.2,0-1.5,0-1.6,0,0,0,0,.1,0,.2,0,0,0,.2,0,.3,0,.3.2.3,1.7.3,0,0,.2,0,.4,0,.6,0,1.2.1,1.4.2.2,0,.2,0,.3-.1ZM76.8,39.5c0-.1,0-.2,0-.3,0,0,0-.3,0-.5v-.4h-.4c-.2,0-.5.1-.5.2,0,0-.3,0-.6,0-.3,0-.6,0-.7,0-.2,0-.4,0-.6,0-.4-.1-.8-.2-.9,0,0,0,0,0,0,.1,0,0,0,.1,0,.2,0,0,0,.3,0,.5,0,.3,0,.4.1.4,0,0,.3,0,.4,0,.4,0,.6,0,1.1,0,.2,0,.6,0,.8,0,.2,0,.6,0,.7.1.2,0,.4,0,.5,0q.2,0,0-.1ZM76.9,42.5s0,0,0-.1c0,0,0-.1,0-.2,0,0,0-.3,0-.5,0-.3,0-.4-.1-.4,0,0-.3,0-.4,0-.4,0-.6,0-1.1,0-.2,0-.6,0-.8,0-.2,0-.6,0-.7-.1-.2,0-.4,0-.5,0q-.2,0,0,.1c0,.1,0,.2,0,.3,0,0,0,.3,0,.5v.4h.4c.2,0,.5-.1.5-.2,0,0,.3,0,.6,0,.3,0,.6,0,.7,0,.2,0,.4,0,.6,0,.4.1.8.2.9,0ZM73.4,44.9c.1,0,.5,0,.8,0,.3,0,.6,0,.7-.1.2,0,.2,0,.4,0,.2,0,1.5,0,1.6,0,0,0,0-.1,0-.2,0,0,0-.2,0-.3,0-.3-.2-.3-1.7-.3,0,0-.2,0-.4,0-.6,0-1.2-.1-1.4-.2-.2,0-.2,0-.3.1,0,0,0,.3,0,.4,0,.1,0,.3,0,.5q0,.3.2.2ZM76.7,47.8s0-.2.1-.4c0-.2,0-.4.1-.6,0-.2,0-.4,0-.5,0-.2,0-.2-.3-.1-.5,0-2.3,0-2.6,0-.3,0-.8-.1-.9,0,0,0,0,.6,0,.7,0,.1,0,.5,0,.5,0,0,0,0,0,.1s.1,0,.6,0c.3,0,.7,0,.9,0,.2,0,.4,0,.4,0,.2.1,1.6.3,1.6.2ZM76.5,50c.5,0,.5,0,.5-.2,0,0,0-.2,0-.3,0-.2-.5-.4-1.1-.3-.3,0-.5,0-.6,0,0,0-.4-.1-.6-.1-.3,0-.6,0-.8,0-.2,0-.4,0-.5,0-.1,0-.2.4,0,.5,0,0,.1.1.1.1q0,.3.6.3c.3,0,.6,0,.6,0,0,0,.9,0,1.2,0,.2,0,.5,0,.8,0ZM76.8,53.9c0-.1,0-.3,0-.5,0,0,0-.2,0-.4,0-.2.1-.3,0-.5,0-.1,0-.4,0-.5,0-.2,0-.2-1.2-.2-.3,0-.6,0-.7,0,0,0-.2,0-.2,0,0,0-.6,0-.6,0,0,0-.2,0-.5-.1-.4,0-.5,0-.5,0s0,.2,0,.2c0,0,0,.2,0,.3,0,.4,0,1,0,1.1,0,0,.3,0,1,0,.5,0,1,0,1.1,0s.3,0,.4,0c.1,0,.4.2.6.2.3,0,.4.1.4,0ZM76.1,56.5c0,0,.2,0,.2,0,0,0,.2,0,.3,0,.2,0,.2,0,.3-.2,0-.1,0-.3,0-.3,0,0,0-.1,0-.2s-.5,0-1.6-.2c-.4,0-1.2-.1-1.5-.2-.5-.2-.7-.2-.8,0,0,.2,0,.4,0,.4s0,.4,0,.6c0,0,0,.2,0,.2.1,0,2.4,0,2.4-.1,0,0,.4,0,.6,0ZM76.8,59.7c0-.2,0-.4,0-.5,0-.1,0-.3,0-.6v-.4s-.3,0-.3,0c-.2,0-.4,0-.5,0-.1,0-.3,0-.4,0,0,0-.5,0-.9,0-1,0-.9,0-1.1,0,0,0-.2-.1-.4-.1h-.3v.5c0,.3,0,.6,0,.6,0,0,0,.2,0,.4v.3s.4,0,.4,0c.4,0,.3,0,1.6,0,.8,0,1.1,0,1.6.2.1,0,.1,0,0-.3ZM76.9,63.4s0-.2,0-.4c0-.2,0-.4,0-.5,0,0,0-.2,0-.3,0-.3,0-.4-.5-.4-.5,0-1.1,0-1.2,0,0,0-.2,0-.3,0-.1,0-.3,0-.4,0,0,0-.3,0-.4-.1-.7,0-1,0-1,0,0,.3,0,1.2,0,1.5v.3s.5,0,.5,0c.8,0,1.2,0,1.7,0,.3,0,.7,0,1.1,0,.5,0,.6,0,.6,0ZM76.9,67c0-.1,0-.3,0-.4,0-.2,0-.9-.1-1.2-.1-.3-.2-.3-1.2-.3-.9,0-1.6,0-1.9-.1-.1,0-.3,0-.5,0-.3,0-.3,0-.3.2,0,0,0,.5,0,1,0,.5,0,.9,0,.9,0,0,.3,0,.6,0,.6,0,.9,0,1.7.1.4,0,.6,0,.8,0,.2,0,.3,0,.4,0,.4.2.4.2.4,0ZM76.8,69.3c0,0,0-.3,0-.3,0-.2,0-.3,0-.6-.1-.3-.2-.3-.8-.3s-.6,0-.6,0c0,0-.3,0-.6,0-.3,0-.6,0-.7,0-.6,0-1,0-1.1,0,0,0,0,.5,0,.6,0,0,0,.2,0,.5,0,0,0,.1-.2.2-.2,0-.2.2,0,.3,0,0,.2,0,.3,0,.1,0,.4,0,.6,0"/>
      <path class="cls-1" d="M9,79.8c.1,0,.3,0,.4,0,.3-.1,1.6,0,1.9,0,.2.1,1.4.2,1.4.1s.7-.2.8-.2c0,0,.2,0,.3,0,.1,0,.3,0,.5,0,.4.1.9.2,1,.1,0,0,.2,0,.8,0,.3,0,.4,0,.5,0,.2-.1.7-.1.7,0s.4.1.7,0c.1,0,.3,0,.3,0,.2,0,1.1,0,1.1,0,0,0,.2,0,.3,0,.2,0,.3,0,.4,0,0,0,.1,0,.2,0,0,0,.2,0,.3,0,.2,0,1.1,0,1.2,0,0,.1.5.3.6.2,0,0,.3,0,.5,0,.2,0,.5,0,.5-.1.1,0,.2,0,.3,0,.1.1.8.1,1.2,0,.2,0,.4,0,.4,0,0,0,.2,0,.3,0,.1,0,.4,0,.6,0,.6.1,1.3.1,1.5,0,.1,0,.3,0,1,0,1.2,0,2.2,0,2.5,0,.2,0,.2,0,.5,0,.2,0,.3,0,.4,0,0,0,0,0,0,0,0,0,.5,0,.6,0,0,0,1.6-.1,2.7,0,.4,0,.8,0,.9,0,0,0,.3,0,.6,0,.5,0,1.3.1,1.4,0,0,0,.3,0,.6,0,.2,0,.3,0,.4,0h1.2c.2.1.5.1.6.2.1,0,.3,0,.4,0,.2,0,1.2,0,1.4,0,0,0,.1,0,.1,0,0,0,1,0,1.1,0,0,0,.6-.1.7-.1.3,0,1.1,0,1.9-.1.2,0,.5,0,.7,0,.2,0,.5,0,.7,0,.3,0,.4,0,.9.1.5.2.6.2.7.1.1,0,.6-.2,1-.1.5,0,.6,0,.8,0,.2,0,2.3-.2,2.3,0,0,.2,1.1.2,1.6,0,.2,0,1.5-.1,2.4,0,.1,0,1.6,0,2.1,0,.3,0,.4,0,.8.2.4.2.7.2.9,0,0,0,0,0,0,0s0,0,.1,0c0,0,.2,0,.4,0,.5.1.9.1.9,0s.1,0,.3-.1c.3,0,2.6,0,2.7,0,0,0,.2,0,.4,0,.4,0,.7,0,1.3,0,.2,0,.4,0,.5,0,.1,0,.3,0,.5,0,.4.1,1.1.1,1.2,0,.1-.1.8-.1,1.9,0,.3,0,.6,0,.8,0,.2,0,.3,0,.4,0,0,0,.2.1.2.1.3,0,.6,0,.6,0,0,0,.5,0,1.6,0,.6,0,1.5,0,1.7-.2.1,0,.2,0,.3,0,0,0,.1,0,.2,0,0,0,0,0,.1,0,0,0,.2,0,.4,0,.3,0,1.2,0,1.5.2,0,0-.1-.8,0-1.7s.1-1.5.1-2.6-.4-2.6-.2-3.3,0-2.1,0-2.1c-.5,0-1.4,0-1.7,0-.3,0-.5,0-1.2,0-.2,0-.3,0-.5,0-.2,0-.3.1-.4,0,0,0-.2,0-.3,0-.7,0-1.5,0-1.8-.1,0,0-.2,0-.2,0,0,0,0,0-.1,0,0,0,0,0,0,0,0,0-.5.1-1.4.1,0,0-.2,0-.4,0-.2,0-.5,0-.7,0-.2,0-.5,0-.6,0-.1,0-.3,0-.4,0-.3.1-1.6,0-1.9,0-.2-.1-1.4-.2-1.4-.1s-.7.2-.8.2c0,0-.2,0-.3,0-.1,0-.3,0-.5,0-.4-.1-.9-.2-1-.1,0,0-.2,0-.8,0-.3,0-.4,0-.5,0-.2.1-.7.1-.7,0s-.4-.1-.7,0c-.1,0-.3,0-.3,0-.2,0-1.1,0-1.1,0,0,0-.2,0-.3,0-.2,0-.3,0-.4,0,0,0-.1,0-.2,0,0,0-.2,0-.3,0-.2,0-1.1,0-1.2,0,0-.1-.5-.3-.6-.2,0,0-.3,0-.5,0-.2,0-.5,0-.5.1-.1,0-.2,0-.3,0-.1-.1-.8-.1-1.2,0-.2,0-.4,0-.4,0,0,0-.2,0-.3,0-.1,0-.4,0-.6,0-.6-.1-1.3-.1-1.5,0-.1,0-.3,0-1,0-1.2,0-2.2,0-2.5,0-.2,0-.2,0-.5,0-.2,0-.3,0-.4,0,0,0,0,0,0,0,0,0-.5,0-.6,0,0,0-1.6.1-2.7,0-.4,0-.8,0-.9,0,0,0-.3,0-.6,0-.5,0-1.3-.1-1.4,0,0,0-.3,0-.6,0-.2,0-.3,0-.4,0h-1.2c-.2-.1-.5-.1-.6-.2-.1,0-.3,0-.4,0-.2,0-1.2,0-1.4,0,0,0-.1,0-.1,0,0,0-1,0-1.1,0,0,0-.6.1-.7.1-.3,0-1.1,0-1.9.1-.2,0-.5,0-.7,0-.2,0-.5,0-.7,0-.3,0-.4,0-.9-.1-.5-.2-.6-.2-.7-.1-.1,0-.6.2-1,.1-.5,0-.6,0-.8,0-.2,0-2.3.2-2.3,0,0-.2-1.1-.2-1.6,0-.2,0-1.5.1-2.4,0-.1,0-1.6,0-2.1,0-.3,0-.4,0-.8-.2-.4-.2-.7-.2-.9,0,0,0,0,0,0,0s0,0-.1,0c0,0-.2,0-.4,0-.5-.1-.9-.1-.9,0s-.1,0-.3.1c-.3,0-2.6,0-2.7,0,0,0-.2,0-.4,0-.4,0-.7,0-1.3,0-.2,0-.4,0-.5,0-.1,0-.3,0-.5,0-.4-.1-1.1-.1-1.2,0M75.8,73c.1,0,.4,0,.6,0,.5,0,.8,0,.8.4s0,.4.1.7c.1.6.1.8,0,.8,0,0,0,.3.1.6.2.3.3.9.2,1.1,0,.4-.2.5-.7.4-.2,0-.4,0-.5,0-.2,0-.6,0-.7,0-.1-.1-.2-1-.1-1.3,0-.2,0-.3,0-.4,0-.2,0-.7,0-.8,0,0,0-.2-.1-.4-.3-.8-.3-.9.1-.9ZM73.5,73.1h.5s0,1.3,0,1.3c0,.7,0,1.4,0,1.6,0,.2,0,.4,0,.6,0,.1,0,.3-.1.4,0,0-.3.1-.3,0,0,0-.2,0-.3,0h-.3s0-.4,0-.4c0-.2,0-.6,0-.8,0-.2-.1-.7-.1-1.1,0-.4,0-.8-.2-.9-.2-.4,0-.5.9-.6ZM68.3,73.1c.1,0,.7,0,.9,0,.1,0,.3,0,.7,0,0,0,.2,0,.2-.2.1-.2.4-.2.5,0,0,0,0,.2,0,.3,0,.1,0,.4,0,.6,0,.2.1.6.1.9,0,.4,0,.6.1.8,0,0,.1.3.1.5v.5c0,.2-.1.3-.6.3-.1,0-.4,0-.5,0-.3,0-.5,0-.8,0-.4-.1-.5-.2-.5-.8s0-.6,0-.6c0,0,0-.3,0-.6,0-.3,0-.6,0-.7-.1-.6-.1-1,0-1.1ZM64.2,73.2c0-.3,0-.3.2-.3,0,0,.6,0,1.1,0,.5,0,1,0,1,0,0,0,0,.3,0,.6,0,.6,0,.9.1,1.7,0,.4.1.6,0,.8,0,.2,0,.3,0,.4.2.4.2.4-.1.4-.2,0-.4,0-.5,0-.3,0-1,0-1.4-.1-.4-.1-.4-.2-.4-1.2,0-.9,0-1.6-.2-1.9,0-.1,0-.3,0-.5ZM61,73.1c.3,0,1.2,0,1.5,0h.3s0,.5,0,.5c0,.8,0,1.2,0,1.7,0,.3,0,.7,0,1.1,0,.5,0,.6,0,.6,0,0-.2,0-.4,0-.2,0-.4,0-.5,0s-.2,0-.3,0c-.3,0-.4,0-.4-.5,0-.5,0-1.1,0-1.2,0,0,0-.2,0-.3,0-.1,0-.3,0-.4,0,0,0-.3-.1-.4,0-.7,0-1,0-1ZM57.4,73.1h.5c.3,0,.6,0,.6,0,0,0,.2,0,.4,0h.3s0,.4,0,.4c0,.4,0,.3,0,1.6,0,.8,0,1.1.2,1.6,0,.1,0,.1-.3,0-.2,0-.4,0-.5,0-.1,0-.3,0-.6,0h-.4s0-.3,0-.3c0-.2,0-.4,0-.5,0-.1,0-.3,0-.4,0,0,0-.5,0-.9,0-1,0-.9,0-1.1,0,0-.1-.2-.1-.4v-.3ZM54.7,73.1c.2,0,.4,0,.4,0s.4,0,.6,0c0,0,.2,0,.2,0,0,.1,0,2.4-.1,2.4,0,0,0,.4,0,.6,0,0,0,.2,0,.2s0,.2,0,.3c0,.2,0,.2-.2.3-.1,0-.3,0-.3,0,0,0-.1,0-.2,0s0-.5-.2-1.6c0-.4-.1-1.2-.2-1.5-.2-.5-.2-.7,0-.8ZM51.3,73.1c0,0,.2,0,.2,0,0,0,.2,0,.3,0,.4,0,1,0,1.1,0,0,0,0,.3,0,1,0,.5,0,1,0,1.1s0,.3,0,.4c0,.1.2.4.2.6,0,.3.1.4,0,.4-.1,0-.3,0-.5,0,0,0-.2,0-.4,0-.2,0-.3.1-.5,0-.1,0-.4,0-.5,0-.2,0-.2,0-.2-1.2,0-.3,0-.6,0-.7,0,0,0-.2,0-.2,0,0,0-.6,0-.6,0,0,0-.2-.1-.5,0-.4,0-.5,0-.5ZM48.3,73.3c0-.1.4-.2.5,0,0,0,.1.1.1.1q.3,0,.3.6c0,.3,0,.6,0,.6,0,0,0,.9,0,1.2,0,.2,0,.5,0,.8,0,.5,0,.5-.2.5,0,0-.2,0-.3,0-.2,0-.4-.5-.3-1.1,0-.3,0-.5,0-.6,0,0-.1-.4-.1-.6,0-.3,0-.6,0-.8,0-.2,0-.4,0-.5ZM45.5,73.1c0,0,.6,0,.7,0,.1,0,.5,0,.5,0,0,0,0,0,.1,0s0,.1,0,.6c0,.3,0,.7,0,.9,0,.2,0,.4,0,.4.1.2.3,1.6.2,1.6,0,0-.2,0-.4.1-.2,0-.4,0-.6.1-.2,0-.4,0-.5,0-.2,0-.2,0-.1-.3,0-.5,0-2.3,0-2.6,0-.3-.1-.8,0-.9ZM43.2,73.1c0,0,.3,0,.4,0,.1,0,.3,0,.5,0q.3,0,.2.2c0,.1,0,.5,0,.8,0,.3,0,.6-.1.7,0,.2,0,.2,0,.4,0,.2,0,1.5,0,1.6,0,0-.1,0-.2,0,0,0-.2,0-.3,0-.3,0-.3-.2-.3-1.7,0,0,0-.2,0-.4,0-.6-.1-1.2-.2-1.4,0-.2,0-.2.1-.3ZM40.5,73.2c.1,0,.2,0,.3,0,0,0,.3,0,.5,0h.4s0,.4,0,.4c0,.2,0,.5-.1.5,0,0,0,.3,0,.6,0,.3,0,.6,0,.7,0,.2,0,.4,0,.6.1.4.2.8,0,.9,0,0,0,0-.1,0,0,0-.1,0-.2,0,0,0-.3,0-.5,0-.3,0-.4,0-.4-.1,0,0,0-.3,0-.4,0-.4,0-.6,0-1.1,0-.2,0-.6,0-.8,0-.2,0-.6-.1-.7,0-.2,0-.4,0-.5q0-.2.1,0ZM37.5,73.1s0,0,.1,0c0,0,.1,0,.2,0,0,0,.3,0,.5,0,.3,0,.4,0,.4.1,0,0,0,.3,0,.4,0,.4,0,.6,0,1.1,0,.2,0,.6,0,.8,0,.2,0,.6.1.7,0,.2,0,.4,0,.5q0,.2-.1,0c-.1,0-.2,0-.3,0,0,0-.3,0-.5,0h-.4s0-.4,0-.4c0-.2,0-.5.1-.5,0,0,0-.3,0-.6,0-.3,0-.6,0-.7,0-.2,0-.4,0-.6-.1-.4-.2-.8,0-.9ZM35.1,76.6c0-.1,0-.5,0-.8,0-.3,0-.6.1-.7,0-.2,0-.2,0-.4,0-.2,0-1.5,0-1.6,0,0,.1,0,.2,0,0,0,.2,0,.3,0,.3,0,.3.2.3,1.7,0,0,0,.2,0,.4,0,.6.1,1.2.2,1.4,0,.2,0,.2-.1.3,0,0-.3,0-.4,0-.1,0-.3,0-.5,0q-.3,0-.2-.2ZM32.2,73.3s.2,0,.4-.1c.2,0,.4,0,.6-.1.2,0,.4,0,.5,0,.2,0,.2,0,.1.3,0,.5,0,2.3,0,2.6,0,.3.1.8,0,.9,0,0-.6,0-.7,0-.1,0-.5,0-.5,0,0,0,0,0-.1,0s0-.1,0-.6c0-.3,0-.7,0-.9,0-.2,0-.4,0-.4-.1-.2-.3-1.6-.2-1.6ZM30,73.5c0-.5,0-.5.2-.5,0,0,.2,0,.3,0,.2,0,.4.5.3,1.1,0,.3,0,.5,0,.6,0,0,.1.4.1.6,0,.3,0,.6,0,.8,0,.2,0,.4,0,.5,0,.1-.4.2-.5,0,0,0-.1-.1-.1-.1q-.3,0-.3-.6c0-.3,0-.6,0-.6,0,0,0-.9,0-1.2,0-.2,0-.5,0-.8ZM26.1,73.2c.1,0,.3,0,.5,0,0,0,.2,0,.4,0,.2,0,.3-.1.5,0,.1,0,.4,0,.5,0,.2,0,.2,0,.2,1.2,0,.3,0,.6,0,.7,0,0,0,.2,0,.2,0,0,0,.6,0,.6,0,0,0,.2.1.5,0,.4,0,.5,0,.5s-.2,0-.2,0c0,0-.2,0-.3,0-.4,0-1,0-1.1,0,0,0,0-.3,0-1,0-.5,0-1,0-1.1s0-.3,0-.4c0-.1-.2-.4-.2-.6,0-.3-.1-.4,0-.4ZM23.5,73.9c0,0,0-.2,0-.2,0,0,0-.2,0-.3,0-.2,0-.2.2-.3.1,0,.3,0,.3,0,0,0,.1,0,.2,0s0,.5.2,1.6c0,.4.1,1.2.2,1.5.2.5.2.7,0,.8-.2,0-.4,0-.4,0s-.4,0-.6,0c0,0-.2,0-.2,0,0-.1,0-2.4.1-2.4,0,0,0-.4,0-.6ZM20.3,73.2c.2,0,.4,0,.5,0,.1,0,.3,0,.6,0h.4s0,.3,0,.3c0,.2,0,.4,0,.5,0,.1,0,.3,0,.4,0,0,0,.5,0,.9,0,1,0,.9,0,1.1,0,0,.1.2.1.4v.3s-.5,0-.5,0c-.3,0-.6,0-.6,0,0,0-.2,0-.4,0h-.3s0-.4,0-.4c0-.4,0-.3,0-1.6,0-.8,0-1.1-.2-1.6,0-.1,0-.1.3,0ZM16.6,73.1s.2,0,.4,0c.2,0,.4,0,.5,0,0,0,.2,0,.3,0,.3,0,.4,0,.4.5,0,.5,0,1.1,0,1.2,0,0,0,.2,0,.3,0,.1,0,.3,0,.4,0,0,0,.3.1.4,0,.7,0,1,0,1-.3,0-1.2,0-1.5,0h-.3s0-.5,0-.5c0-.8,0-1.2,0-1.7,0-.3,0-.7,0-1.1,0-.5,0-.6,0-.6ZM13,73.1c.1,0,.3,0,.4,0,.2,0,.9,0,1.2.1.3.1.3.2.3,1.2,0,.9,0,1.6.1,1.9,0,.1,0,.3,0,.5,0,.3,0,.3-.2.3,0,0-.5,0-1,0-.5,0-.9,0-.9,0,0,0,0-.3,0-.6,0-.6,0-.9-.1-1.7,0-.4,0-.6,0-.8,0-.2,0-.3,0-.4-.2-.4-.2-.4,0-.4ZM10.7,73.2c0,0,.3,0,.3,0,.2,0,.3,0,.6,0,.3.1.3.2.3.8s0,.6,0,.6c0,0,0,.3,0,.6,0,.3,0,.6,0,.7,0,.6,0,1,0,1.1,0,0-.5,0-.6,0,0,0-.2,0-.5,0,0,0-.1,0-.2.2,0,.2-.2.2-.3,0,0,0,0-.2,0-.3,0-.1,0-.4,0-.6"/>
      <path class="cls-1" d="M71,9.8c-.1,0-.3,0-.4,0-.3-.1-1.6,0-1.9,0-.2.1-1.4.2-1.4.1s-.7-.2-.8-.2c0,0-.2,0-.3,0-.1,0-.3,0-.5,0-.4.1-.9.2-1,.1,0,0-.2,0-.8,0-.3,0-.4,0-.5,0-.2-.1-.7-.1-.7,0s-.4.1-.7,0c-.1,0-.3,0-.3,0-.2,0-1.1,0-1.1,0,0,0-.2,0-.3,0-.2,0-.3,0-.4,0,0,0-.1,0-.2,0,0,0-.2,0-.3,0-.2,0-1.1,0-1.2,0,0,.1-.5.3-.6.2,0,0-.3,0-.5,0-.2,0-.5,0-.5-.1-.1,0-.2,0-.3,0-.1.1-.8.1-1.2,0-.2,0-.4,0-.4,0,0,0-.2,0-.3,0-.1,0-.4,0-.6,0-.6.1-1.3.1-1.5,0-.1,0-.3,0-1,0-1.2,0-2.2,0-2.5,0-.2,0-.2,0-.5,0-.2,0-.3,0-.4,0,0,0,0,0,0,0,0,0-.5,0-.6,0,0,0-1.6-.1-2.7,0-.4,0-.8,0-.9,0,0,0-.3,0-.6,0-.5,0-1.3.1-1.4,0,0,0-.3,0-.6,0-.2,0-.3,0-.4,0h-1.2c-.2.1-.5.1-.6.2-.1,0-.3,0-.4,0-.2,0-1.2,0-1.4,0,0,0-.1,0-.1,0,0,0-1,0-1.1,0,0,0-.6-.1-.7-.1-.3,0-1.1,0-1.9-.1-.2,0-.5,0-.7,0-.2,0-.5,0-.7,0-.3,0-.4,0-.9.1-.5.2-.6.2-.7.1-.1,0-.6-.2-1-.1-.5,0-.6,0-.8,0-.2,0-2.3-.2-2.3,0,0,.2-1.1.2-1.6,0-.2,0-1.5-.1-2.4,0-.1,0-1.6,0-2.1,0-.3,0-.4,0-.8.2-.4.2-.7.2-.9,0,0,0,0,0,0,0s0,0-.1,0c0,0-.2,0-.4,0-.5.1-.9.1-.9,0s-.1,0-.3-.1c-.3,0-2.6,0-2.7,0,0,0-.2,0-.4,0-.4,0-.7,0-1.3,0-.2,0-.4,0-.5,0-.1,0-.3,0-.5,0-.4.1-1.1.1-1.2,0-.1-.1-.8-.1-1.9,0-.3,0-.6,0-.8,0-.2,0-.3,0-.4,0,0,0-.2.1-.2.1-.3,0-.6,0-.6,0,0,0-.5,0-1.6,0-.6,0-1.5,0-1.7-.2-.1,0-.2,0-.3,0,0,0-.1,0-.2,0,0,0,0,0-.1,0,0,0-.2,0-.4,0-.3,0-1.2,0-1.5.2,0,0,.1-.8,0-1.7S0,6.6,0,5.5s.4-2.6.2-3.3S.2.2.2.2c.5,0,1.4,0,1.7,0,.3,0,.5,0,1.2,0,.2,0,.3,0,.5,0,.2,0,.3.1.4,0,0,0,.2,0,.3,0,.7,0,1.5,0,1.8-.1,0,0,.2,0,.2,0,0,0,0,0,.1,0,0,0,0,0,0,0,0,0,.5.1,1.4.1,0,0,.2,0,.4,0,.2,0,.5,0,.7,0,.2,0,.5,0,.6,0,.1,0,.3,0,.4,0,.3.1,1.6,0,1.9,0,.2-.1,1.4-.2,1.4-.1s.7.2.8.2c0,0,.2,0,.3,0,.1,0,.3,0,.5,0,.4-.1.9-.2,1-.1,0,0,.2,0,.8,0,.3,0,.4,0,.5,0,.2.1.7.1.7,0s.4-.1.7,0c.1,0,.3,0,.3,0,.2,0,1.1,0,1.1,0,0,0,.2,0,.3,0,.2,0,.3,0,.4,0,0,0,.1,0,.2,0,0,0,.2,0,.3,0,.2,0,1.1,0,1.2,0,0-.1.5-.3.6-.2,0,0,.3,0,.5,0,.2,0,.5,0,.5.1.1,0,.2,0,.3,0,.1-.1.8-.1,1.2,0,.2,0,.4,0,.4,0,0,0,.2,0,.3,0,.1,0,.4,0,.6,0,.6-.1,1.3-.1,1.5,0,.1,0,.3,0,1,0,1.2,0,2.2,0,2.5,0,.2,0,.2,0,.5,0,.2,0,.3,0,.4,0,0,0,0,0,0,0,0,0,.5,0,.6,0,0,0,1.6.1,2.7,0,.4,0,.8,0,.9,0,0,0,.3,0,.6,0,.5,0,1.3-.1,1.4,0,0,0,.3,0,.6,0,.2,0,.3,0,.4,0h1.2c.2-.1.5-.1.6-.2.1,0,.3,0,.4,0,.2,0,1.2,0,1.4,0,0,0,.1,0,.1,0,0,0,1,0,1.1,0,0,0,.6.1.7.1.3,0,1.1,0,1.9.1.2,0,.5,0,.7,0,.2,0,.5,0,.7,0,.3,0,.4,0,.9-.1.5-.2.6-.2.7-.1.1,0,.6.2,1,.1.5,0,.6,0,.8,0,.2,0,2.3.2,2.3,0,0-.2,1.1-.2,1.6,0,.2,0,1.5.1,2.4,0,.1,0,1.6,0,2.1,0,.3,0,.4,0,.8-.2.4-.2.7-.2.9,0,0,0,0,0,0,0s0,0,.1,0c0,0,.2,0,.4,0,.5-.1.9-.1.9,0s.1,0,.3.1c.3,0,2.6,0,2.7,0,0,0,.2,0,.4,0,.4,0,.7,0,1.3,0,.2,0,.4,0,.5,0,.1,0,.3,0,.5,0,.4-.1,1.1-.1,1.2,0M4.2,3c-.1,0-.4,0-.6,0-.5,0-.8,0-.8.4s0,.4-.1.7c-.1.6-.1.8,0,.8,0,0,0,.3-.1.6-.2.3-.3.9-.2,1.1,0,.4.2.5.7.4.2,0,.4,0,.5,0,.2,0,.6,0,.7,0,.1-.1.2-1,.1-1.3,0-.2,0-.3,0-.4,0-.2,0-.7,0-.8,0,0,0-.2.1-.4.3-.8.3-.9-.1-.9ZM6.5,3.1h-.5s0,1.3,0,1.3c0,.7,0,1.4,0,1.6,0,.2,0,.4,0,.6,0,.1,0,.3.1.4,0,0,.3.1.3,0,0,0,.2,0,.3,0h.3s0-.4,0-.4c0-.2,0-.6,0-.8,0-.2.1-.7.1-1.1,0-.4,0-.8.2-.9.2-.4,0-.5-.9-.6ZM11.7,3.1c-.1,0-.7,0-.9,0-.1,0-.3,0-.7,0,0,0-.2,0-.2-.2-.1-.2-.4-.2-.5,0,0,0,0,.2,0,.3,0,.1,0,.4,0,.6,0,.2-.1.6-.1.9,0,.4,0,.6-.1.8,0,0-.1.3-.1.5v.5c0,.2.1.3.6.3.1,0,.4,0,.5,0,.3,0,.5,0,.8,0,.4-.1.5-.2.5-.8s0-.6,0-.6c0,0,0-.3,0-.6,0-.3,0-.6,0-.7.1-.6.1-1,0-1.1ZM15.8,3.2c0-.3,0-.3-.2-.3,0,0-.6,0-1.1,0-.5,0-1,0-1,0,0,0,0,.3,0,.6,0,.6,0,.9-.1,1.7,0,.4-.1.6,0,.8,0,.2,0,.3,0,.4-.2.4-.2.4.1.4.2,0,.4,0,.5,0,.3,0,1,0,1.4-.1.4-.1.4-.2.4-1.2,0-.9,0-1.6.2-1.9,0-.1,0-.3,0-.5ZM19,3.1c-.3,0-1.2,0-1.5,0h-.3s0,.5,0,.5c0,.8,0,1.2,0,1.7,0,.3,0,.7,0,1.1,0,.5,0,.6,0,.6,0,0,.2,0,.4,0,.2,0,.4,0,.5,0s.2,0,.3,0c.3,0,.4,0,.4-.5,0-.5,0-1.1,0-1.2,0,0,0-.2,0-.3,0-.1,0-.3,0-.4,0,0,0-.3.1-.4,0-.7,0-1,0-1ZM22.6,3.1h-.5c-.3,0-.6,0-.6,0,0,0-.2,0-.4,0h-.3s0,.4,0,.4c0,.4,0,.3,0,1.6,0,.8,0,1.1-.2,1.6,0,.1,0,.1.3,0,.2,0,.4,0,.5,0,.1,0,.3,0,.6,0h.4s0-.3,0-.3c0-.2,0-.4,0-.5,0-.1,0-.3,0-.4,0,0,0-.5,0-.9,0-1,0-.9,0-1.1,0,0,.1-.2.1-.4v-.3ZM25.3,3.1c-.2,0-.4,0-.4,0s-.4,0-.6,0c0,0-.2,0-.2,0,0,.1,0,2.4.1,2.4,0,0,0,.4,0,.6,0,0,0,.2,0,.2s0,.2,0,.3c0,.2,0,.2.2.3.1,0,.3,0,.3,0,0,0,.1,0,.2,0s0-.5.2-1.6c0-.4.1-1.2.2-1.5.2-.5.2-.7,0-.8ZM28.7,3.1c0,0-.2,0-.2,0,0,0-.2,0-.3,0-.4,0-1,0-1.1,0,0,0,0,.3,0,1,0,.5,0,1,0,1.1s0,.3,0,.4c0,.1-.2.4-.2.6,0,.3-.1.4,0,.4.1,0,.3,0,.5,0,0,0,.2,0,.4,0,.2,0,.3.1.5,0,.1,0,.4,0,.5,0,.2,0,.2,0,.2-1.2,0-.3,0-.6,0-.7,0,0,0-.2,0-.2,0,0,0-.6,0-.6,0,0,0-.2.1-.5,0-.4,0-.5,0-.5ZM31.7,3.3c0-.1-.4-.2-.5,0,0,0-.1.1-.1.1q-.3,0-.3.6c0,.3,0,.6,0,.6,0,0,0,.9,0,1.2,0,.2,0,.5,0,.8,0,.5,0,.5.2.5,0,0,.2,0,.3,0,.2,0,.4-.5.3-1.1,0-.3,0-.5,0-.6,0,0,.1-.4.1-.6,0-.3,0-.6,0-.8,0-.2,0-.4,0-.5ZM34.5,3.1c0,0-.6,0-.7,0-.1,0-.5,0-.5,0,0,0,0,0-.1,0s0,.1,0,.6c0,.3,0,.7,0,.9,0,.2,0,.4,0,.4-.1.2-.3,1.6-.2,1.6,0,0,.2,0,.4.1.2,0,.4,0,.6.1.2,0,.4,0,.5,0,.2,0,.2,0,.1-.3,0-.5,0-2.3,0-2.6,0-.3.1-.8,0-.9ZM36.8,3.1c0,0-.3,0-.4,0-.1,0-.3,0-.5,0q-.3,0-.2.2c0,.1,0,.5,0,.8,0,.3,0,.6.1.7,0,.2,0,.2,0,.4,0,.2,0,1.5,0,1.6,0,0,.1,0,.2,0,0,0,.2,0,.3,0,.3,0,.3-.2.3-1.7,0,0,0-.2,0-.4,0-.6.1-1.2.2-1.4,0-.2,0-.2-.1-.3ZM39.5,3.2c-.1,0-.2,0-.3,0,0,0-.3,0-.5,0h-.4s0,.4,0,.4c0,.2,0,.5.1.5,0,0,0,.3,0,.6,0,.3,0,.6,0,.7,0,.2,0,.4,0,.6-.1.4-.2.8,0,.9,0,0,0,0,.1,0,0,0,.1,0,.2,0,0,0,.3,0,.5,0,.3,0,.4,0,.4-.1,0,0,0-.3,0-.4,0-.4,0-.6,0-1.1,0-.2,0-.6,0-.8,0-.2,0-.6.1-.7,0-.2,0-.4,0-.5q0-.2-.1,0ZM42.5,3.1s0,0-.1,0c0,0-.1,0-.2,0,0,0-.3,0-.5,0-.3,0-.4,0-.4.1,0,0,0,.3,0,.4,0,.4,0,.6,0,1.1,0,.2,0,.6,0,.8,0,.2,0,.6-.1.7,0,.2,0,.4,0,.5q0,.2.1,0c.1,0,.2,0,.3,0,0,0,.3,0,.5,0h.4s0-.4,0-.4c0-.2,0-.5-.1-.5,0,0,0-.3,0-.6,0-.3,0-.6,0-.7,0-.2,0-.4,0-.6.1-.4.2-.8,0-.9ZM44.9,6.6c0-.1,0-.5,0-.8,0-.3,0-.6-.1-.7,0-.2,0-.2,0-.4,0-.2,0-1.5,0-1.6,0,0-.1,0-.2,0,0,0-.2,0-.3,0-.3,0-.3.2-.3,1.7,0,0,0,.2,0,.4,0,.6-.1,1.2-.2,1.4,0,.2,0,.2.1.3,0,0,.3,0,.4,0,.1,0,.3,0,.5,0q.3,0,.2-.2ZM47.8,3.3s-.2,0-.4-.1c-.2,0-.4,0-.6-.1-.2,0-.4,0-.5,0-.2,0-.2,0-.1.3,0,.5,0,2.3,0,2.6,0,.3-.1.8,0,.9,0,0,.6,0,.7,0,.1,0,.5,0,.5,0,0,0,0,0,.1,0s0-.1,0-.6c0-.3,0-.7,0-.9,0-.2,0-.4,0-.4.1-.2.3-1.6.2-1.6ZM50,3.5c0-.5,0-.5-.2-.5,0,0-.2,0-.3,0-.2,0-.4.5-.3,1.1,0,.3,0,.5,0,.6,0,0-.1.4-.1.6,0,.3,0,.6,0,.8,0,.2,0,.4,0,.5,0,.1.4.2.5,0,0,0,.1-.1.1-.1q.3,0,.3-.6c0-.3,0-.6,0-.6,0,0,0-.9,0-1.2,0-.2,0-.5,0-.8ZM53.9,3.2c-.1,0-.3,0-.5,0,0,0-.2,0-.4,0-.2,0-.3-.1-.5,0-.1,0-.4,0-.5,0-.2,0-.2,0-.2,1.2,0,.3,0,.6,0,.7,0,0,0,.2,0,.2,0,0,0,.6,0,.6,0,0,0,.2-.1.5,0,.4,0,.5,0,.5s.2,0,.2,0c0,0,.2,0,.3,0,.4,0,1,0,1.1,0,0,0,0-.3,0-1,0-.5,0-1,0-1.1s0-.3,0-.4c0-.1.2-.4.2-.6,0-.3.1-.4,0-.4ZM56.5,3.9c0,0,0-.2,0-.2,0,0,0-.2,0-.3,0-.2,0-.2-.2-.3-.1,0-.3,0-.3,0,0,0-.1,0-.2,0s0,.5-.2,1.6c0,.4-.1,1.2-.2,1.5-.2.5-.2.7,0,.8.2,0,.4,0,.4,0s.4,0,.6,0c0,0,.2,0,.2,0,0-.1,0-2.4-.1-2.4,0,0,0-.4,0-.6ZM59.7,3.2c-.2,0-.4,0-.5,0-.1,0-.3,0-.6,0h-.4s0,.3,0,.3c0,.2,0,.4,0,.5,0,.1,0,.3,0,.4,0,0,0,.5,0,.9,0,1,0,.9,0,1.1,0,0-.1.2-.1.4v.3s.5,0,.5,0c.3,0,.6,0,.6,0,0,0,.2,0,.4,0h.3s0-.4,0-.4c0-.4,0-.3,0-1.6,0-.8,0-1.1.2-1.6,0-.1,0-.1-.3,0ZM63.4,3.1s-.2,0-.4,0c-.2,0-.4,0-.5,0,0,0-.2,0-.3,0-.3,0-.4,0-.4.5,0,.5,0,1.1,0,1.2,0,0,0,.2,0,.3,0,.1,0,.3,0,.4,0,0,0,.3-.1.4,0,.7,0,1,0,1,.3,0,1.2,0,1.5,0h.3s0-.5,0-.5c0-.8,0-1.2,0-1.7,0-.3,0-.7,0-1.1,0-.5,0-.6,0-.6ZM67,3.1c-.1,0-.3,0-.4,0-.2,0-.9,0-1.2.1-.3.1-.3.2-.3,1.2,0,.9,0,1.6-.1,1.9,0,.1,0,.3,0,.5,0,.3,0,.3.2.3,0,0,.5,0,1,0,.5,0,.9,0,.9,0,0,0,0-.3,0-.6,0-.6,0-.9.1-1.7,0-.4,0-.6,0-.8,0-.2,0-.3,0-.4.2-.4.2-.4,0-.4ZM69.3,3.2c0,0-.3,0-.3,0-.2,0-.3,0-.6,0-.3.1-.3.2-.3.8s0,.6,0,.6c0,0,0,.3,0,.6,0,.3,0,.6,0,.7,0,.6,0,1,0,1.1,0,0,.5,0,.6,0,0,0,.2,0,.5,0,0,0,.1,0,.2.2,0,.2.2.2.3,0,0,0,0-.2,0-.3,0-.1,0-.4,0-.6"/>
    </g>
  </g>
</svg>