<?xml version="1.0" encoding="UTF-8"?>
<svg id="_ÎÓÈ_1" data-name="—ÎÓÈ 1" xmlns="http://www.w3.org/2000/svg" version="1.1" viewBox="0 0 720 720">
  <defs>
    <style>
      .cls-1, .cls-2, .cls-3, .cls-4, .cls-5, .cls-6 {
        stroke-width: 0px;
      }

      .cls-1, .cls-4, .cls-6 {
        display: none;
      }

      .cls-1, .cls-5, .cls-6 {
        fill: #243866;
      }

      .cls-2 {
        fill: #b3dce5;
      }

      .cls-3 {
        fill: #f7f4cd;
      }

      .cls-4 {
        fill: #dae1f1;
      }

      .cls-6 {
        fill-rule: evenodd;
      }
    </style>
  </defs>
  <rect class="cls-3" x="-740" width="720" height="720"/>
  <path class="cls-6" d="M-373.5,39.3c-8.3-13.6-17.9-26.7-22.2-44,10.9-42.6,10.8-95.9-45.3-117.7-32.2-12.5-78.3-10.1-93.9-5.3l1.5,5.1c7.1-2.2,21.5-3.8,37.8-3.6,1.1,9.3,8.8,89.3-58.5,115.9-51.9,20.5-25.9,38.8-71.6,99.9-11.5,15.4-123,36.7-90.7,95.1,18.1,32.7,7.9,59.9-17.3,103.5-43.5-29.9-84.4-72-105.6-93.5-2.8-2.8-21.8,20.8-24.3,23.9-35.8,45.6-46.1,43.6-46.1,76.5-30.4,57.1-55.2,160.3-55.2,160.3,89.9-12.7,35.2,9.8,106.2,24.2,6.5,1.9,12.6,2.4,18.4,2.3,2.8,6.3,5.7,12.7,8.4,19.3.8,1.9,1.6,3.9,2.4,5.9,22.7,56.7,38.9,124.2,23.3,197.2-10.3,48.3-35.2,62-55,133-8.4,32.8-13.9,61.3-15.1,96.6,89.8,37.4,189.9,53.8,293.5,43.5,31.5-3.1,62.2-8.6,91.9-16.2-17.3-80.2-24.5-84.8,31.7-132.8,44.8-25.2,192.9-229.4-78.1-343.7-8.8-3.7-10.4-7.1-7.7-10,19.3-1.4,34.9-7.9,46.1-19.5,17.4-17.9,17.8-30.8,18.2-45.7.3-12.1.7-26.1,10.9-46.5,29.5-18.8,62.8-33.3,54.5-73.6-.2-.8-.3-1.5-.5-2.3,6.3-11.6,9.4-22.3,9.5-32.4,0-16-7.5-28.3-14.1-39.1-.6-.9-1.1-1.8-1.7-2.7,4.1-20.8,16.7-32.2,35-61.3,22.2-9.6,45.8-23.1,47.6-55.4,1.6-29.1-17.3-43.9-34.1-56.8Z"/>
  <path class="cls-1" d="M-495.7-126.9c-12.9-25.4-30.5-49.5-67.8-72-23.6-14.2-52.9-17.5-82.5-9.2-26.2,7.4-50.6,23.5-65.1,43.1-5.9,7.9-15.7,7.2-29.3,6.3-19.1-1.4-45.3-3.2-71.2,22.7-19.5,19.5-19.4,43.7-15.3,66.1,0,.2-.1.4-.2.6-12.2,39.4-2.8,57.6-1.3,72.9-7.1,6-15.8,9-25.4,12.2-23.8,8.1-50.8,17.3-66.6,76.5-9.1,34.1-8.6,66.2,1.3,95.6,2,6,4.4,11.6,6.9,16.9-1,1.2-2.1,2.4-3.2,3.6-59.6,62.8-39.1,109.3-13.4,129.9,47.8-120.8,86.9-81.2,190.2-146.9,51.5-32.7,122.4-150.9,105.8-163.2-12.7-9.5-9.3-61.8,37-30.8,48.4,32.3,131.3-81.3,131.3-81.3,0,0-11.1-20.2-31.3-42.9Z"/>
  <path class="cls-6" d="M-373.5,39.3c-8.3-13.6-17.9-26.7-22.2-44,10.9-42.6,10.8-95.9-45.3-117.7-32.2-12.5-78.3-10.1-93.9-5.3l1.5,5.1c7.1-2.2,21.5-3.8,37.8-3.6,1.1,9.3,8.8,89.3-58.5,115.9-51.9,20.5-25.9,38.8-71.6,99.9-11.5,15.4-123,36.7-90.7,95.1,18.1,32.7,7.9,59.9-17.3,103.5-43.5-29.9-84.4-72-105.6-93.5-2.8-2.8-21.8,20.8-24.3,23.9-35.8,45.6-46.1,43.6-46.1,76.5-30.4,57.1-55.2,160.3-55.2,160.3,89.9-12.7,35.2,9.8,106.2,24.2,6.5,1.9,12.6,2.4,18.4,2.3,2.8,6.3,5.7,12.7,8.4,19.3.8,1.9,1.6,3.9,2.4,5.9,22.7,56.7,38.9,124.2,23.3,197.2-10.3,48.3-35.2,62-55,133-8.4,32.8-13.9,61.3-15.1,96.6,89.8,37.4,189.9,53.8,293.5,43.5,31.5-3.1,62.2-8.6,91.9-16.2-17.3-80.2-24.5-84.8,31.7-132.8,44.8-25.2,192.9-229.4-78.1-343.7-8.8-3.7-10.4-7.1-7.7-10,19.3-1.4,34.9-7.9,46.1-19.5,17.4-17.9,17.8-30.8,18.2-45.7.3-12.1.7-26.1,10.9-46.5,29.5-18.8,62.8-33.3,54.5-73.6-.2-.8-.3-1.5-.5-2.3,6.3-11.6,9.4-22.3,9.5-32.4,0-16-7.5-28.3-14.1-39.1-.6-.9-1.1-1.8-1.7-2.7,4.1-20.8,16.7-32.2,35-61.3,22.2-9.6,45.8-23.1,47.6-55.4,1.6-29.1-17.3-43.9-34.1-56.8Z"/>
  <rect class="cls-4" width="720" height="720"/>
  <rect class="cls-2" x="740" width="720" height="720"/>
  <path class="cls-1" d="M913.6,301.1c-9.6-6.1-56-65.3-93.3-113.8l23.7-18.2c7.5,9.8,15.3,19.8,22.9,29.6l95-76.4c2.1-1.7,5.3-1.4,7,.8,1.7,2.1,1.4,5.3-.8,7l-95.1,76.4c12.3,15.7,24,30.4,33.6,42.3l95.4-76.6c2.1-1.7,5.3-1.4,7,.8,1.7,2.1,1.4,5.3-.8,7l-95.3,76.6c8.4,10.3,14.6,17.4,17.2,19.7,3.8,2.3,13.6,6.7,27.1,12.3l75.8-60.9c2.1-1.7,5.3-1.4,7,.8,1.7,2.1,1.4,5.3-.8,7l-71.6,57.5c15.5,6.4,34.2,14,53.7,21.8l24.6-19.8c2.1-1.7,5.3-1.4,7,.8,1.7,2.1,1.4,5.3-.8,7l-20.2,16.3c3.9,1.6,7.9,3.2,11.8,4.7,7.4,2.9,14.5,5.8,21.5,8.6,2.1,11.7,4.1,23.3,6,34.6-13.9-5.6-27-10.8-38.6-15.5-69-27.6-108.6-43.5-119.1-50.3ZM1128.2,357.7c1.9,11,3.8,22.5,5.9,34.6,16.5,6.8,32.9,13.6,48.4,20.3l-32.8,26.3c-2.1,1.7-2.5,4.9-.8,7s4.9,2.5,7,.8l36.9-29.6c19.7,8.5,37.5,16.5,51.6,23.4l-81.7,65.7c-2.1,1.7-2.5,4.9-.8,7,1.7,2.1,4.9,2.5,7,.8l85.3-68.5c11.3,5.8,19.1,10.6,21.9,13.7l17.7,22.1-100.1,80.4c-2.1,1.7-2.5,4.9-.8,7,1.7,2.1,4.9,2.5,7,.8l100.1-80.4,33.8,42.1-100.1,80.4c-2.1,1.7-2.5,4.9-.8,7,1.7,2.1,4.9,2.5,7,.8l100.1-80.4,16.4,20.4,23.3-18.7-80.5-100.2c-11.9-14.8-65.9-39.8-171.1-82.7ZM1127.1,435.3c-28.2-171.4-44.2-256.2-59-274.6l-83.6-104-23.3,18.7,83.6,104c12.8,17.5,38.8,175.8,52.8,260.8,12.1,73.3,19.1,115.4,23.4,127.2,3.9,10.7,50,66.7,87.9,111.7l22.8-19.2c-37.1-44.1-77.9-94.4-82.9-103.3-3.7-11-12.9-67-21.8-121.2Z"/>
  <path class="cls-5" d="M395.6,187.2h8.1l3.9,4.2-2,2,8.1,12.1,2-2h16c2.5-12.1,7.9-18.2,16.3-18.2h96.8v3.9l-64.5,99h-6.2l2.2,2v2c0,7.1-2.1,11.1-6.2,12.1h-2l-2-2h-2.2l-7.9,14h3.9v6.2l-16.3,26.4c10.5,9,24.6,25.1,42.4,48.3l-2,2c5.4,0,9.4,2.7,12.1,8.1l-2,2v2l2,8.1h2.2v-3.9h3.9l52.5,60.6-14,5.9-2.2-2v-3.9l2.2-2.2-4.2-14c-3,0-7,5.4-12.1,16.3,0,3.9,2.7,5.9,8.1,5.9v4.2l-40.4,12.1-2-2v-6.2h2l6.2,2v-8.1l-4.2-3.9-28.1,28.3h-2.2l-5.9-4.2c0,6.7-11.4,12.1-34.2,16.3l-44.6-94.8-30.3,34.2-7.9,3.9,2,2.2v3.9c0,4.8-5.4,10.2-16.3,16.3l-5.9-2.2v6.2h-2l-6.2-3.9h-2c-5.4,2.6-8.1,6.7-8.1,12.1h2c5.4,2.6,8.1,6,8.1,10.1-6.4,12-11.8,18-16.3,18-55.8-10.7-94.8-16-117-16l-3.9-4.2c5.4-11.7,49.1-59.4,131-143.1-3,0-11.7-8-26.1-24.1,8-2.8,12.1-5.5,12.1-8.1l-10.1-4.2-3.9,4.2-2-2h-2.2v3.9h-2l-38.4-36.2v-2.2c9.5,0,14.3-4.7,14.3-14,3.6,0,7.6-2.1,12.1-6.2l10.1,4.2-2-2v-6.2l2-2-2-2v-4.2l3.9-3.9,4.2,3.9v-10.1l-2.2-2v-2c-2.6,0-12.7,10.1-30.3,30.3h-2c-2.6,0-3.9-2.1-3.9-6.2-3.1,0-5.8,6.1-8.1,18.2h-3.9c-40.1-31.7-63.6-54.6-70.7-68.7,0-2.6,30.3-8.6,90.9-18l3.9,3.9h6.2c0-6.7,10.8-10.1,32.3-10.1h3.9l54.4,52.5v2h-2l-2-2h-2v3.9l10.1,4.2,5.9-2,10.1,10.1c15.1-52.5,24.5-78.8,28.3-78.8ZM201.7,477.8l-7.9,18.2v3.9l10.1,2c14.8-3.6,22.2-7.6,22.2-12.1-1.3-8-3.4-12.1-6.2-12.1h-18.2ZM207.9,249.8c0,3.1,3.4,5.2,10.1,6.2l-6.2-6.2h-3.9ZM218,457.6v3.9h2v-3.9h-2ZM224.1,508.1v3.9l2-2h2l5.9,2-3.9-6.2-5.9,2.2ZM230.1,447.5l3.9,3.9h6.2l3.9-3.9-3.9-3.9-10.1,3.9ZM242.1,498c0,7.4,3.4,12.1,10.1,14,0-5.4,3.4-8.1,10.1-8.1v-3.9l-10.1-14h-3.9c-4.1,1.3-6.2,5.3-6.2,12.1ZM264.3,215.5l-3.9,14v4.2h2c0-6.1,2.7-10.2,8.1-12.3l-2-5.9h-4.2ZM266.5,467.7h2l5.9-6.2h-2l-5.9,6.2ZM268.5,294.1l5.9,16.3h2.2v-4.2l-2.2-12.1h-5.9ZM268.5,510.1l2,8.1h6.2v-2.2l-6.2-5.9h-2ZM274.4,491.9l4.2,8.1h2v-10.1l-6.2,2ZM282.5,471.7l-2-2h-3.9v2l5.9,12.1c13.5-1.3,20.2-3.9,20.2-7.9v-6.2l-3.9-6.2,3.9-5.9v-4.2h-2c-10.8,2.5-16.3,6.6-16.3,12.3l-2,5.9ZM282.5,393.1l-2,14v2l3.9,4.2h4.2l-2.2-2.2v-2l4.2-12.1-4.2-3.9h-3.9ZM280.5,423.4c0,2.6,4,5.3,12.1,7.9v-3.9l-8.1-3.9h-3.9ZM288.7,213.6l-4.2,7.9,6.2,2.2,2-8.1-2-2h-2ZM290.6,292.1v4.2h2v-4.2h-2ZM290.6,514v4.2h2l3.9-4.2h-5.9ZM292.6,342.6v6.2h3.9v-2.2l-3.9-3.9ZM296.6,282v2h2.2c3.9,0,5.9-2,5.9-5.9l2-2h2.2l3.9,3.9,12.1-2v-8.1l-10.1-2-18.2,14ZM300.7,215.5v2h3.9v-2h-3.9ZM300.7,385v3.9h3.9l4.2-3.9h-8.1ZM308.9,229.6c-1.8,9.5-3.9,14.3-6.2,14.3,1.3,5.3,5.3,7.9,12.1,7.9h2v-18l-3.9-4.2h-3.9ZM302.7,431.3h3.9v2.2l8.1-6.2v-2h-5.9l-6.2,5.9ZM304.7,322.4l6.2,3.9h2v-7.9l-2-10.1c-3.1,0-5.2,4.7-6.2,14ZM304.7,503.9v2h4.2v-2h-4.2ZM324.9,405.2l-3.9-4.2-12.1,2.2v7.9l12.1,4.2c0-4.1,4.7-8.1,14-12.1l2-6.2h-2c-3.9,0-5.9,2.1-5.9,6.2l-2.2,2h-2ZM310.8,342.6v8.1l8.1,2v-3.9l-8.1-6.2ZM314.8,328.6v3.9l8.1,8.1v-6.2l-6.2-5.9h-2ZM316.7,429.3v20.2l2.2,2v2c3,0,7-5.3,12.1-16-1.3-5.4-6.1-8.1-14.3-8.1ZM319,253.7v2.2h5.9l4.2-4.2v-2h-6.2l-3.9,3.9ZM319,356.6l3.9,16.3c2.3,0,4.3-3.4,6.2-10.1-2.1-5.4-4.2-8.1-6.2-8.1l-2,2h-2ZM324.9,296.3h8.1v-4.2h-3.9l-4.2,4.2ZM329.1,459.6v6.2l2,2h2v-2l-2-6.2h-2ZM336.9,332.5v6.2h4.2v-2.2l-4.2-3.9ZM341.1,280.1l5.9,8.1h4.2l2-14.3v-2l-4.2-3.9c-2.6,0-3.9,3.4-3.9,10.1l-2,2h-2ZM341.1,350.7v2l10.1,2,3.9-3.9,2,2h2v-3.9l-3.9-6.2c-9.4,2.3-14,5-14,8.1ZM341.1,385v3.9h2v-3.9h-2ZM345.1,308.4v3.9h2v-3.9h-2ZM357.1,370.9v5.9c1.3,8,3.4,12.1,6.2,12.1v-2l-4.2-16h-2ZM373.4,407.1l-8.1-3.9-2,12.1,2,5.9-2,2.2-2-2.2h-4.2v8.1l4.2,4.2,28.1-30.3,8.1,5.9,6.2-20.2-2.2-2h-7.9c-4.1,0-6.2,4.7-6.2,14-4.4,0-9.1,2.1-14,6.2ZM361.3,316.3v4.2h2v-4.2h-2ZM361.3,326.4l3.9,4.2h2l-3.9-4.2h-2ZM365.3,302.2v2c2.6,6.1,5.3,9.4,8.1,10.1h2c-1.6-5.7-5-9.8-10.1-12.1ZM377.3,266l-8.1,7.9,2.2,2.2v3.9l-2.2,2v2l6.2,2.2,6.2-16.3-4.2-3.9ZM371.4,352.7v2c0,2,2.6,4,7.9,6.2l2.2-8.1h-10.1ZM389.4,233.7v3.9h2c7.1,0,11.2-2.1,12.3-6.2l-2.2-2h-7.9l-4.2,4.2ZM389.4,332.5v3.9h2v-3.9h-2ZM391.4,271.9v4.2h4.2v-4.2h-4.2ZM391.4,304.2v6.2h2.2v-6.2h-2.2ZM393.6,364.8h3.9l6.2-6.2h-4.2l-5.9,6.2ZM401.5,332.5v3.9h6.2v-3.9h-6.2ZM411.6,360.8l2.2,14h3.9v-14h-6.2ZM413.8,219.5v4.2h2v-4.2h-2ZM415.8,425.4v3.9l10.1,4.2v-2.2c0-3-3.4-4.9-10.1-5.9ZM419.7,219.5v4.2h6.2l-4.2-4.2h-2ZM423.9,338.7l-2.2,10.1v2h2.2l2-10.1v-2h-2ZM427.8,259.9l20.2,14,5.9-2v-2l-12.1-18.2c-9.4,3.1-14,5.8-14,8.1ZM429.8,479.8v2c0,3.1,3.4,5.2,10.1,6.2v-2c0-2.5-3.4-4.5-10.1-6.2ZM431.8,219.5v4.2h2v-4.2h-2ZM433.7,358.6v2.2h4.2v-2.2h-4.2ZM446.1,372.9l-4.2,3.9-8.1-2v2c0,10.8,3.4,16.3,10.1,16.3l2.2-12.1h3.9c3,0,5,3.4,6.2,10.1h3.9v-10.1c-4.1,0-8.8-2.7-14-8.1ZM443.8,314.3v4.2h2.2v-4.2h-2.2ZM443.8,405.2l8.1,2v-6.2h-3.9l-4.2,4.2ZM453.9,294.1l4.2,4.2v-4.2h-4.2ZM462.1,403.2v7.9l6.2,2.2v-2.2l-2-7.9h-4.2ZM472.2,207.4l-8.1,14h2.2l18-7.9,2,7.9,4.2-3.9v-2c-4.1,0-6.2-2.1-6.2-6.2l-2-2h-2l-6.2,2-2-2ZM464,276.1v2l4.2,3.9h3.9v-3.9l-2-2v-2.2l-6.2,2.2ZM468.2,255.9v7.9l2-2h2l-2-5.9h-2ZM468.2,429.3l2,10.1h6.2l2-2h2l-3.9-12.1-8.1,3.9ZM472.2,229.6v8.1h6.2l-2-8.1h-4.2ZM476.3,255.9v3.9l9.9,2,2.2-2v-3.9h-12.1ZM478.3,280.1v2l3.9-3.9v-2l-3.9,3.9ZM478.3,415.3v3.9l3.9-3.9h-3.9ZM486.2,445.6l-3.9,16v4.2h2l8.1-16.3-3.9-3.9h-2.2ZM484.2,437.4v2h8.1v-2l-3.9-3.9-4.2,3.9ZM510.6,445.6l-4.2,7.9h6.2l2-5.9-2-2h-2ZM522.6,445.6v3.9h3.9l-3.9-3.9Z"/>
  <g>
    <path class="cls-5" d="M645.5,295.2c0,.5-.1,1.1-.1,1.7,0,.6,0,1.3-.1,1.8-.3-1.6-.6-2.8-.6-3.4,0-.6.2-.7.8,0Z"/>
    <path class="cls-5" d="M645.4,340.5c0-2.9-.2-6.2-.3-9.8,0-1.8,0-3.6,0-5.4,0-1.8-.2-3.7-.2-5.6,0-1.9,0-3.8,0-5.6,0-.9,0-1.9,0-2.8,0-.9,0-1.8,0-2.7,0-3.6.1-6.9.5-9.9.5,2.5,1.5,6.2,2.4,10.2.5,2,.9,4.2,1.2,6.4.3,2.2.6,4.4.9,6.6.1,1.1.2,2.2.3,3.2,0,1.1,0,2.1,0,3.1,0,2-.3,3.9-.6,5.6-.7,3.3-1.9,5.7-4.1,6.6Z"/>
    <path class="cls-5" d="M658.9,290.8v3.9s-.1,3.9-.1,3.9l-.3,7.7c-1.7-4.3-1.5-6.1-.9-7.9.6-1.8,1.7-3.6,1.4-7.6Z"/>
    <path class="cls-5" d="M651.8,297.5l-3.2-.3c.7-2.8,1.1-5.5,1.7-8.3l.8,4.3c.3,1.4.6,2.9.7,4.3Z"/>
    <path class="cls-5" d="M119.9,239.9c1.8-.8,3.5-.9,5,.4l-5-.4Z"/>
    <path class="cls-5" d="M96,265.1c-1.3,2.7-2.1,4.6-2.7,6.2.3-2,1.1-3.5,2.7-6.2Z"/>
    <path class="cls-5" d="M130.9,214c-.4.8-.8,1.7-1.1,2.5l-1.1,2.6c.2-.9.5-1.8.8-2.6.3-.9.8-1.7,1.3-2.4Z"/>
    <path class="cls-5" d="M426.6,73c1.2.9,2.3,1.7,3.4,2.5,1.1.9,2.2,1.7,3.2,2.5,2,1.6,3.9,3.1,5.5,4.2-5.2-.2-7.7-1.6-9.1-3.5-1.5-1.8-1.9-4-3-5.8Z"/>
    <path class="cls-5" d="M50.5,424.9l2.9.9c-.6,2-1.5,3.2-2.9-.9Z"/>
    <path class="cls-5" d="M52.7,262.2c1.5.2,2.4.8,3.1,1.7-.4.6-.6,1.2-1,1.7l-2-3.4Z"/>
    <path class="cls-5" d="M137.9,192.5c0-.1,0-.3,0-.4.6-.5,1.3-1,1.9-1.5l2-1.4c-1,2.2-2.2,3.3-3.8,3.3Z"/>
    <path class="cls-5" d="M65.5,476.5c-.3,2.8-1,5.7-2.2,8.5-1.2-5.3,0-8.6,2.2-8.5Z"/>
    <path class="cls-5" d="M93.2,272.1c0,0,0,0-.1,0,0-.2.2-.6.3-.8,0,.3-.1.5-.2.8Z"/>
    <path class="cls-5" d="M73.1,212.1c-1.5,2.4-3,4.7-4.6,7.3.2-.9.5-1.7.8-2.5.3-.8.7-1.4,1.1-2,.8-1.2,1.8-2.2,2.7-2.8Z"/>
    <path class="cls-5" d="M426.6,73c-1.3-1-2.7-1.9-4-2.9,2.1.5,3.2,1.6,4,2.9Z"/>
    <path class="cls-5" d="M631.2,258.5c-.6-2.2-.7-3.7-.4-4.8.3-1.1,1-1.9,1.8-2.6,0,2.7-.3,5.2-1.4,7.4Z"/>
    <path class="cls-5" d="M631.9,351.4v-1.8c.2.8.1,1.3,0,1.8Z"/>
    <path class="cls-5" d="M568.3,504.3c-.9.3-1.9.5-2.9.5.3-1.5,1.8-1.4,2.9-.5Z"/>
    <path class="cls-5" d="M464.1,649.4c2.9-2,6-3.2,9.2-4.1,3.2-1,6.5-1.7,9.9-2.2,1.7-.2,3.4-.5,5-.7,1.7-.2,3.3-.6,4.9-.9,3.2-.7,6.2-1.4,9-2.6l-5-1.2,5.9-1.2c2-.4,3.9-1,5.9-1.5l-2.1-4c9.2-3.4,18.4-9.3,26.3-14.2,3.9-2.5,7.6-4.7,11-6.1,3.3-1.6,6.2-2.3,8.7-1.9l-6-4.6c3.3-1.2,6.7-2.4,10-3.6l9.9-4.1c-4.1,1.2-8.2,2.3-12.3,3.4,2.2-1.9,4.5-3.8,7-5.8,1.2-1,2.5-1.9,3.8-2.9.7-.5,1.3-1,2-1.5.6-.5,1.3-1,1.9-1.5,5.2-4.1,10.7-7.9,15.4-11.8,2.4-1.9,4.8-3.7,6.9-5.3,2.1-1.7,4-3.3,5.7-4.7,3.4-2.8,5.8-4.9,6.6-5.8l-3.4-.3c.8-1.8,2-3,3.4-4.1,1.4-1,3-1.9,4.7-3.1l-5-.4c1.5-1.6,2.8-3.1,4.1-4.6,1.3-1.5,2.5-2.9,3.6-4.4,2.1-2.9,4-5.7,5.7-8.4,1.7-2.6,3.1-5.3,4.5-7.9,1.3-2.6,2.6-5.1,3.9-7.7,1.3-2.6,2.5-5.2,3.8-7.9.7-1.3,1.4-2.7,2.1-4.1.7-1.4,1.6-2.8,2.3-4.3,1.6-3,3.4-6.1,5.5-9.4.5-.8,1.1-1.7,1.6-2.6.5-.9,1.1-1.8,1.6-2.7,1.1-1.8,2.4-3.8,3.7-5.8,3.8-9.6-3.8,4.5-5.9,3.6-.2-3.2,2-7.4,4.4-11,2.3-3.7,5.1-6.8,6.5-7.8-3.5,0-6.4,3.9-8.4,6-1,1.1-1.8,1.7-2.3,1.3-.5-.4-.7-1.9-.7-5.1,3.1-3.2,1.2-2.5-.6-2.6-1.8-.1-3.5-1.1,0-7.4,3.3-.6,6.5-1.4,9.7-2.2.9-4.1-.5-5.1-1.3-6.5-.4-.7-.7-1.5-.6-2.9.1-1.4.8-3.3,1.9-6.2,4-6.4,4.8-1.4,5.5,2.5.8,3.9,1.6,6.8,6.1-4.6,1.8-5.9-1-13.5-2.9-21.8-.2-1-.5-2.1-.7-3.2-.2-1.1-.5-2.2-.6-3.3-.4-2.2-.6-4.5-.6-6.9,0-1.2,0-2.4.1-3.6,0-1.2.2-2.4.4-3.7.4-2.5,1-5.1,2.1-7.8,0-2.5-.4-4.2-.9-5.4-.5-1.2-1.1-1.8-1.7-2.1-1.3-.6-2.8.3-4.1.9-2.5,1.2-4.2,1.7-1.5-11.1l-3.7,7.9-1.8,3.9-2,3.8c-.8-2.3-2.3-2.9-3.1-4.3-.9-1.4-1.2-3.5.3-8.8.9-.8,1.9-1.7,2.8-2.8,1-1.1,2-2.4,2.8-3.8,1.7-2.7,3-5.9,3.4-8.9-4,11.8-5.9,6.2-8,.7-1.1-2.8-2.1-5.5-3.7-6.3-.7-.4-1.5-.2-2.4.6-.9.9-2,2.5-3.2,5l.5-3.9c.2-1.3.2-2.6.3-3.9-.3,1-1.1,1.2-1.7.6l-.3-10.4c-1,3.2-1.7,8.6-3,12.2-1.4,3.6-3.3,5.5-6,1.9v-1.8s-.2-1.8-.2-1.8l-.3-3.7-.6-7.3c-4.6,3.8-6.3-1.5-9.9-.6-3,13.7-7,26.9-12,39.5,1.4-.5,3-2.2,4.2-3.4,1.3-1.2,2.5-2,3.7-.7.3,2.8-.2,4.7-.7,6.1-.6,1.4-1.3,2.4-2,3.4-1.4,1.9-2.5,3.7-1.9,9.1l4.5-3.7c-1.5.5-2.3,1.8-2.2-.4-1.7-4,1.3-5,3.5-4.6,1.9,2.2,1.7,5.8.3,9-1.4,3.3-3.6,6.2-5.5,7.3-1.5,6.5.2,7.7,2.5,7.7,2.2,0,4.9-1.3,5.2.3-2.3,1.2-3.9,3.2-4.9,5.5-1.2,2.4-2,5.1-2.6,8-.3,1.4-.6,2.9-1,4.3-.4,1.4-.8,2.8-1.3,4.1-.9,2.6-2,5-3.6,6.6,2.2-1,4.4-2.1,6.6-3.2.2,1.5.3,2.9.2,4.3,0,1.4-.2,2.7-.6,3.9-.7,2.4-1.8,4.6-3,6.5-2.4,3.9-5.8,6.6-8,8.9l4.7-.3c-.9,1.6-1.6,3.2-2.1,4.8-.3.8-.5,1.6-.7,2.4-.2.8-.4,1.5-.6,2.3-.7,3-1,6-1.6,8.6-.6,2.7-1.8,4.9-3.8,6.7-2,1.7-5,3-9.5,3.3,1.1,0,2.1.1,3.1.2-1.2,2.9-2.6,6.6-4.5,10-.5.8-1,1.7-1.6,2.4-.6.7-1.2,1.4-1.9,2.1-1.4,1.2-2.9,2.2-4.6,2.7,1.2,1.2,2.2,3.3,1.1,5.6-.8-.1-1.5,0-2.1,0-.7.1-1.2.4-1.8.7-1.1.7-2,1.8-2.8,3.1-.9,1.4-1.7,3-2.6,4.8-.2.4-.5.9-.7,1.4-.3.4-.6.9-.8,1.3-.6.9-1.2,1.8-1.9,2.7,2.6-1.7,5-1,7.3-.3,2.3.6,4.8,1.3,7.6-.7-1,4-2.5,6.4-4.3,7.6-1.8,1.3-3.8,1.6-5.9,1.7-2.1.1-4.3,0-6.5.4-2.2.4-4.5,1.2-6.6,3.3-1.3,3.8.5,3.5,3.1,2.2,2.6-1.3,6-3.4,7.5-3.2-.5.3-1,.7-1.4,1.1-.5.4-1,.7-1.4,1.1-.9.8-1.8,1.6-2.6,2.5-1.6,1.8-3.1,3.7-4.4,5.8-2.8,4-5.2,8.4-7.7,12.5-2.6,3.9-5.4,7.5-8.6,9.8-3.3,2.3-7.1,3.2-11.6,2,1.4-2.8,2.7-5.7,4-8.5-7.9,1.8-11.1,4.1-9.7,4.8,1.7-1.8,3.1-1.1,4.6-.5-3.5,4.9-7.8,7.8-12.1,9.9-1.1.5-2.2,1-3.3,1.4-1.1.4-2.3.7-3.4,1-2.3.6-4.6,1-6.9,1.4-1.2.2-2.3.4-3.5.6-1.2.2-2.3.3-3.5.5-2.3.3-4.7.7-7,1.3-2.3.6-4.7,1.1-7.1,2-2.4.9-4.7,2-7.1,3.5,2.6,1.8,5.9,1.3,6.9,3.3-2.1,1.7-4.1,2.1-6.1,1.7-2-.4-4-1.4-6.1-2.2-2.1-.9-4.3-1.6-6.9-1.4-1.3.1-2.6.4-4.1.9-1.5.6-3,1.5-4.8,2.8l4.1,1.9c-2.3,1.8-4.8,1.9-6.7,1.5-1.8-.4-3-1.5-2.8-2.1.8,2.9-.9,5-4.1,6.7-1.6.8-3.5,1.6-5.7,2.4-2.2.7-4.6,1.2-7.1,1.9-1.2.3-2.5.7-3.8,1-1.3.4-2.5.8-3.8,1.1-2.5.7-5.1,1.5-7.4,2.6-4.7,2.2-8.8,4.7-11.3,9.1-1.2-.7-2.5-1.3-4.1-1.9-.8-.3-1.6-.6-2.4-.8-.9-.3-1.7-.6-2.7-.9-3.7-1.1-7.7-2-11.6-2.5-4-.7-7.8-1.2-11.2-1.2-.8,0-1.6,0-2.4,0-.8,0-1.5,0-2.2.2-1.3.2-2.5.5-3.4.9-5.3,3.5-3.1,5.6,0,7.6,1.6,1,3.4,2,4.6,3.2,1.2,1.2,1.7,2.4.7,4.2-4.3,0-7.5-1.8-11.2-3.3-.9-.4-1.9-.7-2.9-1-1-.3-2.1-.7-3.2-.9-2.3-.5-4.9-.7-8.1-.3.2-3.4,6.6-6.4,9.9-9.2,3.3-2.9,3.7-5.5-7.2-8.3l-3.4,3.4c2.4-.3,5.6-1.5,8.8-.3,6.3,4.5-4.2,4.2-5.9,6l-3-.5c-1-.2-2-.3-3-.6l-6-1.3-6-1.3-5.9-1.6c-.2-3.7,3.1-4.5,6.7-4.6,3.6-.3,7.5.2,8.3-.6-2.4-.1-4.8,0-7.3,0-2.5,0-5,0-7.6.2-2.6,0-5.3.3-7.9.4-2.6,0-5.3,0-8,0s-2.7,0-4,0c-1.3,0-2.6-.2-3.9-.4-2.6-.3-5.1-.7-7.6-1.2-2.5-.5-4.8-1.3-7-2.2-2.2-.9-4.3-2-6.2-3.3l.7,3.1c-1.2-.8-2.4-1.5-3.4-2.1-1-.6-2-1.1-2.9-1.5-1.8-.8-3.4-1.2-4.7-1.3-2.7-.3-4.8.6-6.5,1.2-1.8.6-3.4,1.2-5.3.4-1-.4-2-1.1-3.2-2.3-.6-.6-1.2-1.3-1.9-2.1-.3-.4-.7-.9-1-1.4-.3-.5-.7-1.1-1-1.7-4.8-1.4-4.9.7-5.4,2.4-.6,1.7-1.6,2.9-8.5-.3-3.8-2.1-.2-3.2.8-3.7-7.3-5.7-10-5.2-12.2-5.1-2.2,0-4-.3-9.4-7.7-.4,2.8-.8,5.6-1.1,8.4-7.4-7.8-13-17.9-18.5-26.9-.7-1.1-1.4-2.2-2-3.4-.7-1.1-1.3-2.2-2-3.3-1.4-2.1-2.7-4.1-4.2-6-2.8-3.8-5.8-7.1-9.5-9.4-1.7,2.4-.5,5.4,1.1,8.6,1.6,3.1,3.7,6.5,3.9,9.6-1.4-2.9-2.9-5.9-4.7-8.6-1.8-2.8-3.9-5.4-5.9-8.1-2.1-2.7-4.3-5.3-6.6-7.8-2.2-2.7-4.5-5.3-6.8-7.8l-1.7-1.9c-.6-.6-1.1-1.3-1.7-2-1.1-1.3-2.2-2.6-3.3-3.9-1.1-1.3-2.1-2.6-3.2-3.9-1-1.3-2-2.7-2.9-4-1.8-2.7-3.6-5.3-5-8-1.4-2.7-2.5-5.4-3.4-8,3.9,1.4,4.9-2.4,6.5-5.2,1.5-2.8,3.5-4.8,8.8-.4-1.2,1.7-1.5,3.2-1.4,4.6,0,.7.2,1.3.5,1.9.3.6.7,1.1,1.2,1.7,1.8,2.2,4.6,4.3,6.3,7.4,1.7-4.8.5-9.2-2.2-13.4-1.2-2.2-2.8-4.3-4.6-6.3-.9-1-1.8-2-2.8-3.1-.9-1-1.8-2.1-2.7-3.1-1.8-2-3.7-4-5.3-6-1.6-2-2.9-3.9-3.8-5.7-1.9-3.6-2.2-6.7.8-9-2.2,0-4.4-.1-6.6-.2-.3-1.6-.2-4.7.5-6.8.6-2.1,1.9-3.3,3.8-1.2l-1.6-2.3-1.4-2.4-2.9-4.8-1.5-2.4-.7-1.2-.7-1.2-2.7-5c-.4,2.2-1,5.1-1.5,8.2-.4,3.1-.7,6.5-.6,9.7,0,1.6,0,3.2.3,4.6.2,1.4.6,2.8,1,3.9.9,2.3,2.3,4,4.3,4.6-1.5,4.3-3.4,2.6-5.5.8-2.1-1.8-4.3-3.7-6.4.5.3-2.3.4-4.2.3-5.7,0-.7,0-1.4-.2-2,0-.6-.2-1.1-.3-1.6-.6-1.8-1.8-2.7-3.2-3.5-1.4-.8-3-1.6-4.6-3.1-.8-.8-1.6-1.8-2.2-3.1-.6-1.3-1.2-3-1.6-5.1,5.3,2.2,6.6-2.7,7.3-8,.3-2.6.6-5.5,1-7.6.4-2.2,1-3.7,2-3.8-.7-1.1-1.2-2.8-1.6-4.6-.3-1.9-.3-4-.2-6.1.2-4.2.9-8.4,2.1-10.9-.2-2.3-1-5.1-2.1-8.4-.6-1.6-1.1-3.4-1.6-5.3-.5-1.9-1.1-3.8-1.7-5.8-.3-1-.6-2-.8-3-.3-1-.4-2.1-.7-3.1-.4-2.1-.8-4.2-1-6.2-.1-1-.2-2.1-.3-3.1,0-.5,0-1-.1-1.5,0-.5,0-1,0-1.5,0-2,.2-3.9.5-5.8-.6,1.4-1.3,3-2.1,4.6-.8,1.6-1.6,3.3-2.4,4.8-1.7,2.9-3.8,5.2-6.5,5.1.6-1.9,1.1-3.9,1.2-5.7.2-1.8.3-3.6,0-5.2-.5-3.1-2.2-5.5-5.4-6.2-1.4,3.4-2.1,6.1-2.5,8.2-.2,1.1-.3,2-.2,2.8,0,.8.2,1.5.4,2.1.9,2.4,2.9,3.3,5,4.1,2.1.8,4.4,1.4,5.8,3.4.7,1,1.1,2.3,1.3,4.1.2,1.8,0,4.1-.5,7.2-1.6,1.7-2.9,3.4-3.8,5.2-1,1.8-1.6,3.7-2,5.8-.4,2.1-.7,4.4-.8,7,0,1.3-.1,2.7,0,4.1,0,1.4.1,2.9.2,4.5-5.3-4.8-6.5-1.9-12-3.3,3-4.7,4.2-9.6,4.3-14.5.3-5-.4-10.2-1.4-15.6-.4-2.7-.8-5.4-1.2-8.2-.2-1.4-.4-2.8-.5-4.1,0-.7-.2-1.4-.2-2.1v-2.1c-.1-2.8,0-5.5.2-8.2.2-1.4.4-2.7.6-4,.3-1.3.8-2.6,1.3-3.9,2.3-4.3,5.9-4.7,9.1-6.4,1.6-.9,3.1-2,4.4-4.2,1.4-2.1,2.5-5.1,3.3-9.7l1.7,8.1.4,2c.1.7.3,1.3.5,2l1.1,4c-.5-2.2-.8-3.9-.9-5.2-.1-1.3,0-2.3.2-3,.4-1.4,1.1-1.8,2.1-2,1.9-.5,4.5-.6,5.9-7.4-1.8,1.7-3.5,3.4-5.3,5.1,0-2.2,0-4,0-5.6.1-1.6.5-2.9.9-4.1.9-2.4,2.2-4.2,4.3-6.3-2.8,2-5.7,4.1-8.5,6.3-.2-2.4-.2-5.8.3-8.6.1-.7.3-1.3.5-1.9.2-.6.5-1.1.9-1.5.7-.8,1.6-1.2,2.7-1.1-1.6-1.5-3-2.2-4.3-2.4,1.4-.7,2.6-2.8,3.3-8.2-1.4,3-1.4,5.4-3.6,5.1.7-2.6,1.1-4.6,1.3-6.2.3-1.6.3-2.8.1-3.7-.3-1.8-1.2-2.4-2.3-2.7-2.1-.7-4.5-.5-2.7-7-1.1.8-2,.2-2.5-1.3-.5-1.5-.7-3.8-.4-6.3,2.9.9,5.6,0,8.2-2,1.3-1,2.5-2.2,3.8-3.5,1.3-1.3,2.6-2.8,3.8-4.3,4.8-6.2,9.9-12.9,14.2-14.8h-.2c.9-1.2,1.9-2.3,2.8-3.5l2.9-3.4c1.9-2.3,3.8-4.5,5.8-6.7-2.5,2.6-3.7-2.1-2.5-7.2l-.3.8c.4-2.9-3.2-3-5.6-3.9-1.2-.5-2.1-1.2-2-2.7,0-.7.3-1.6.9-2.8.7-1.1,1.7-2.5,3.1-4.1,2.5-2,5-4,7.6-5.9-1.2,1.1-2-1.1-2.3-2.3l7.7-6c-.3-2.3,0-4.2.5-6,.5-1.8,1.3-3.3,2.3-4.7,1-1.4,2.2-2.7,3.5-3.8,1.4-1.1,2.9-2.2,4.4-3.2,3.1-2,6.2-4,9.2-6.3,1.5-1.2,2.8-2.5,4.1-4,1.2-1.5,2.2-3.3,3.2-5.2-1.3,2-3.2,4.3-4.9,5.5-1.7,1.2-3.3,1.2-3.6-1.2.5-1.7,1.9-3.2,3.4-4.4.8-.6,1.6-1.1,2.5-1.5.9-.4,1.7-.7,2.4-.8l-1.6-.3,6.8-4.4,1.7-1.1,1.7-1,3.5-2c2.3-1.3,4.6-2.7,6.9-4l7.1-3.7c-1.1-.4-2.8,0-4.7.8-.9.4-1.9.8-2.9,1.2-.5.2-1,.4-1.4.7-.5.2-.9.5-1.3.7-3.5,1.7-6.1,2.5-4.8-1.9,0-1.8.5-3.3,1.6-4.6,1.1-1.2,2.6-2.2,4.2-3.1,3.3-1.7,7-3.1,9.4-4.6.7,1.5-.6,4.3-.7,6.3,0,1,0,1.6.8,1.7.7.1,2-.4,4.3-1.7,0-1,1.4-3.7,2.3-6,.8-2.3,1-4.2-1.5-3.7,1.3-.5,2.7-1.1,4.1-1.7,1.4-.6,2.9-1.2,4.4-1.8,1.5-.6,3-1.2,4.5-1.9,1.5-.6,3-1.3,4.6-1.8,3.1-1.1,6.3-2,9.3-2.7.8-.2,1.5-.3,2.2-.5.8-.1,1.5-.2,2.2-.3,1.5-.2,2.9-.2,4.3-.2,1.9-2.7-2.8-1.5-4.4-1.1l-.2,1.2c-1.6.4-2.7.2-3.6-.1-.9-.4-1.6-.9-2.4-1.2-1.6-.6-3.6-.3-8,4.5-3.4-4,.2-7.1,5.6-10.2,1.3-.8,2.9-1.4,4.4-2.1,1.6-.7,3.1-1.4,4.7-2.1,1.6-.7,3.1-1.4,4.5-2.2,1.5-.7,2.8-1.4,4-2.2l-4.9.5-4.8.7c-3.2.5-6.5,1-9.7,1.5,2.4-3.5,5.3-6.7,8.6-9.6l1.2-1.1,1.3-1c.9-.7,1.8-1.3,2.7-1.9,1.8-1.3,3.7-2.5,5.6-3.6,1.9-1.2,4-2.1,6.1-3.1,2.1-.9,4.2-1.8,6.3-2.7,2.1-.9,4.4-1.6,6.6-2.2,2.2-.7,4.5-1.3,6.7-1.9,2.2-.7,4.5-1.1,6.8-1.5,2.3-.4,4.6-.9,6.8-1.3,2.2-.5,4.5-.7,6.8-1,2.2-.3,4.5-.6,6.7-.9,1.1-.1,2.2-.3,3.3-.4,1.1-.1,2.2-.2,3.3-.3,2.2-.2,4.3-.5,6.3-.7,1-.1,2.1-.3,3.1-.4,1-.2,2-.2,3-.4,2-.2,3.9-.5,5.8-.8-8.3,4.6-16.1,3.5-13.3,11.1,2.4,0,4.4,0,6.1-.2,1.8,0,3.3,0,4.6,0,2.7,0,4.7-.2,6.6-.4,1-.1,2-.3,3-.4,1.1,0,2.2-.2,3.5-.3,2.6-.2,5.9-.4,10.4-.6-.5-.1-1.1-.2-1.6-.3,2.2-1.3,4.8-1.7,7.4-1.9,2.6-.1,5.4,0,8,.2,5.2.5,9.9.5,13.1-3.2-2.1-2.2-5.5-1-8.4-.5-2.9.6-5.3.5-5.7-4h11.9c2,0,3.9.2,5.9.3l5.9.3c-3.6-2.7-9.6-3.3-15.8-2.6-3.1.3-6.2.6-9.1.9-2.9.4-5.6.7-7.9.5-3.2.5,0,.6,3.8,1.3,1.9.4,3.9.9,5.2,1.7,1.3.9,2,2,1.3,3.5-1.4,0-2.6,0-3.9.1-1.2,0-2.4,0-3.5,0-2.2,0-4.3-.2-6.1-.4-1.9-.3-3.6-.4-5.2-.7-1.6-.3-3.1-.7-4.5-1.2s-2.8-1-4.1-1.6c-.7-.3-1.3-.6-2-.9-.7-.3-1.3-.6-1.9-1-2.6-1.3-5.3-2.8-8.5-4.4-4-2.5-1.8-4.5,1.9-6,1.9-.8,4.1-1.4,6.2-1.9,2.1-.4,3.9-.6,5-.8,2,.9,4.1,1.8,6.2,2.5,1.1.4,2.2.7,3.3,1,1.1.3,2.2.7,3.4,1,2.3.7,4.6,1.2,7,1.7,2.4.5,4.8.8,7.3,1.2,9.9,1.4,20.6,1.4,31.9.1l6.4-3c1.1-.5,2.2-1,3.3-1.5l3.3-1.3c5.3,3.8,6.2,8.6,8.3,12.5,1.1,2,2.4,3.9,4.6,5.3,1.1.7,2.5,1.4,4.2,1.9.8.3,1.8.5,2.8.7,1,.2,2.1.3,3.3.5-1.5-2.1-3.1-4-4.7-5.9,4.6-1.2,7.5-1.1,9.6-.6-.9-.7-1.9-1.4-2.8-2.1-1-.7-1.9-1.4-2.9-2.1-2-1.4-4-2.7-6-4.1-2-1.4-4-2.8-6-4.1-2-1.3-3.9-2.5-5.8-3.7,3.3-2.2,7-2.8,11-2,2,.4,4,1,6.1,1.8,2.1.8,4.2,1.8,6.3,3,2.1,1.2,4.2,2.5,6.3,3.9,2.1,1.4,4.2,2.6,6.2,4.1,2,1.4,4,2.7,6,3.9,1,.6,2,1.2,3,1.7,1,.5,2,1,2.9,1.5-.1-.4-.5-.8-1.1-1.3-.6-.4-1.4-.9-2.2-1.5-1.6-1.1-3.2-2.3-3.7-3.9,1.6.3,3.1.6,4.7,1,.8.2,1.6.4,2.3.6.8.3,1.5.5,2.3.8,3,1.1,6,2.4,8.9,3.9.7.4,1.4.7,2.1,1.1l2.1,1.2c1.4.8,2.7,1.7,4.1,2.6,2.7,1.8,5.3,3.5,7.8,5.5,2.5,1.9,4.9,3.9,7.2,5.8,1.2.9,2.3,1.9,3.4,2.9,1.1,1,2.2,1.9,3.3,2.9,1.1.9,2.1,1.8,3.2,2.7,1,.9,2.1,1.7,3.1,2.6,2,1.7,3.9,3.3,5.9,4.6,4.6,0,1.6-2.6-1.8-5.7-3.3-3.2-7.3-6.6-3.9-8.7,1,.9,2.1,1.6,3.2,2.4,1.1.7,2.2,1.4,3.4,2,2.3,1.2,4.6,2.2,6.7,3.2,2.1.9,3.8,2.1,5,3.2,1.2,1.2,1.8,2.6,1.5,4.2.3-2.5,1.7-3,3.4-2.6.9.2,1.9.6,2.8,1.1.5.3,1,.5,1.4.8.5.3.9.6,1.3.9,1.7,1.1,3,2,3.1,1.4,0-.3-.1-.9-.7-2.1-.6-1.1-1.5-2.9-3.1-5.1,16.9,8.9,32.1,22.5,44.5,38.3,12.5,15.7,22.2,33.3,30.2,50.2,1.3-3,3.2-4.3,5.6-3.9-.9-1.3-1.7-2.8-2.7-4.3-1-1.5-1.9-3-2.9-4.6-1.9-3.2-3.6-6.6-5.4-9.9-1.7-3.3-3.1-6.6-4.1-9.7-1.1-3-1.8-5.8-1.8-8.2,2.3.9,4,2.6,5.3,4.6,1.3,2.1,2.1,4.5,2.7,6.7,1.3,4.5,1.9,8.5,3.7,8.7-.2-1.2-.7-2.6-1.3-3.9-.6-1.4-1.3-2.8-1.8-4.1-1.1-2.7-1.6-5.2.1-6.6,2.8,1.5,4.7,3.2,6.2,5,1.5,1.8,2.5,3.8,3.1,5.8,1.3,4.1,1.8,8.2,3.7,11.7l-4.4-2.2c.6,1.5,1.1,2.8,1.5,4.1.4,1.3.6,2.5.9,3.6.4,2.2.6,4.1.6,5.8,0,3.3-.5,5.6-.8,7.8-.4,2.2-.5,4.4.4,7.2.4,1.4,1.1,3,2.2,4.9.5.9,1.1,2,1.7,3.1.7,1.1,1.4,2.4,2.2,3.7,4.5,2.8,5.5,2.3,6.1.7.6-1.6.8-4.4,3.8-6.1.1,1.7,1.2,3.8,2.6,6.2,1.4,2.4,3.1,5.2,4.8,8.1.8,1.4,1.6,2.9,2.3,4.3.7,1.4,1.2,2.9,1.5,4.3.7,2.8.8,5.4-.3,7.5-2.1-4.8-4.1-9.6-6.5-14.2,1.5,5.3,2.9,10.4,4.2,15.2.3,1.2.6,2.3.9,3.5.3,1.1.4,2.3.6,3.4.4,2.2.6,4.3.6,6.2,1.1-1.2,2.4-2.3,2.2-4.6.2,2.2.6,4.5,1,6.8l.3,1.7c0,.6.2,1.2.3,1.7.2,1.1.3,2.3.5,3.4.3,2.2.4,4.3.3,6.2-.1,1.9-.5,3.5-1.4,4.9,2.5.2,5.1.4,7.6.6-.5-.5-1.1-1.2-1.6-2.1-.3-.4-.5-.9-.8-1.3-.3-.5-.5-.9-.8-1.4-1-2-2-4.3-2.6-6.6-.7-2.3-1.1-4.6-1.2-6.5-.2-1.9,0-3.5.8-4.5,3.2-.3,5.3,3.6,6.5,8.5.6,2.4,1.1,5.1,1.6,7.5.1.6.2,1.2.4,1.8.1.6.2,1.2.3,1.7.2,1.1.4,2.1.7,2.9-.3-1.9-.5-3.7-.8-5.4-.3-1.7-.5-3.3-.7-4.8-.3-3-.5-5.7-.6-8.2-.2-4.9-.1-9-.1-12.9,0-3.9-.4-7.5-1.5-11.7-.6-2.1-1.4-4.3-2.5-6.7-1.2-2.4-2.7-4.9-4.6-7.7l-.2,5c-1.5-1.6-2.7-3.3-3.8-5.1-.6-.9-1.1-1.8-1.5-2.7-.5-.9-1-1.8-1.4-2.7-1.8-3.7-3.1-7.6-4.3-11.6-1.3-3.9-2.5-7.8-3.8-11.6-.6-1.9-1.4-3.7-2.3-5.4-.8-1.7-1.8-3.3-2.8-4.9,3.5,2.7,6.2,2,6.1-.3-11.2-12.3-21.1-25-32.3-37.4-11.2-12.4-23.6-24.6-39.1-34.8l-2.2-6.3c-.7-2.1-1.5-4.2-2.4-6.3l-3.8,4c-8.1-4.3-7.8-6.4-6.7-8.3.5-.9,1.3-1.8,1.2-2.8,0-1.1-.8-2.2-3.4-3.7,3.8,2.4,2.7,2.7,2.6,4.4-3.6-4.2-6.3-6.5-8.3-7.6-2-1.1-3.5-1.1-4.7-.8-2.5.6-4.3,2.4-9-1.3,2.1,7.6,18.2,13.8,9.7,17.4-1.7-2-3.7-4-5.8-6-2.1-2-4.5-3.7-6.9-5.6l-3.6-2.7-1.8-1.3c-.6-.4-1.2-.8-1.9-1.2-2.5-1.6-4.9-3.3-7.2-4.9-1.1-.8-2.3-1.6-3.3-2.4-1.1-.7-2.1-1.5-3.1-2.2-2-1.5-3.7-3-5.1-4.5-1.4-1.5-2.5-3.1-3.2-4.7-.7-1.5-1-3.1-.7-4.8-2.5-.6-4.9-1.3-7.4-2-1.2-.4-2.5-.7-3.7-1.1-1.2-.4-2.5-.7-3.8-1.1-2.5-.7-5.1-1.5-7.6-2.3-1.3-.4-2.5-.8-3.8-1.2-1.3-.4-2.6-.7-3.9-1.1-2.6-.7-5.2-1.5-7.8-2.3-1.3-.4-2.6-.8-3.9-1.2l-3.9-1.1c-5.2-1.4-10.4-3.1-15.7-4.3-2.6-.7-5.2-1.3-7.8-2l-1.9-.5-2-.4c-1.3-.3-2.6-.6-3.9-.8-2.6-.6-5.2-1.1-7.7-1.6-.6-.1-1.3-.3-1.9-.4-.6-.1-1.3-.2-1.9-.3-1.3-.2-2.5-.4-3.8-.6-10-1.8-19.5-2.6-28-3-4.6,2.4,2.9,1.7,1.1,3.6-3.3-1.8-7.8-2.3-12.7-2.2-1.2,0-2.4.1-3.7.3-1.2.2-2.5.4-3.7.6-2.5.5-4.9,1-7.3,1.5-4.7,1-8.9,2.4-12.1,2.9-3.1.5-5.2.3-5.5-1.3-3.1,1.3-5.1,3.5-6.4,5.4-1.4,2-2.1,3.8-2.8,4.9-2.2-.4-4.5-.7-6.9-.9-2.4-.2-4.8-.1-7.3,0-2.5.1-5.1.3-7.7.6-1.3.1-2.6.3-3.9.6-1.3.2-2.6.5-4,.7l4-.2c1.3,0,2.7-.1,4-.1l-.6,1.1c-3.8.1-7.6.3-11.5.5l.3-.5c-1.7.3-3.3.7-5,1.1-1.7.5-3.3.9-5,1.4-3.3,1-6.7,2-10.1,3-3.4,1.2-6.7,2.4-10.1,3.6-1.7.6-3.4,1.1-5.1,1.8-1.7.7-3.3,1.3-5,2-1.7.6-3.3,1.3-5,1.9-1.7.6-3.3,1.2-5,1.9-3.3,1.3-6.5,2.6-9.8,3.8-.8.3-1.6.6-2.4.9-.8.3-1.6.6-2.4.9-1.6.6-3.2,1.2-4.8,1.7s-3.2,1-4.8,1.5c-1.6.5-3.2.9-4.7,1.4,1.8-.5,3.2-.7,4.3-.7,1,0,1.7.2,2.2.5.9.7.8,1.8.5,3.1-.7,2.5-2.2,5.2,1.4,4.7-8-1.4-18.6,2-29.3,8.2-2.7,1.5-5.3,3.3-7.9,5.2-2.6,1.9-5.3,3.8-7.8,5.9-2.5,2.1-4.9,4.3-7.3,6.5-1.2,1.1-2.4,2.2-3.5,3.3-1.1,1.1-2.2,2.3-3.3,3.4,1.6,1.6,1.5,4.2,4.8,3.5l-6.6,3.3c-2.2,1.1-4.5,2.2-6.6,3.4l3.2.5c-2,2.5-4.2,4.8-6.5,7-1.1,1.1-2.3,2.2-3.5,3.3-1.2,1.1-2.3,2.2-3.5,3.3-2.4,2.2-4.8,4.3-7.3,6.3-2.4,2.1-4.7,4.3-7,6.3-4.7,4.1-8.8,8.4-12.3,12.6-.9,1.1-1.7,2.1-2.4,3.1-.7,1.1-1.4,2.1-2,3.2-1.2,2.1-2.1,4.3-2.7,6.4,6.7-8.1,8.6-6.9,12.2-5.7-.7.9-1.3,1.8-1.9,2.8-.6.9-1.2,1.9-1.9,2.8-1.2,1.9-2.5,3.7-3.7,5.5l-1.9,2.8c-.6.9-1.2,1.9-1.8,2.9-1.2,1.9-2.4,3.8-3.6,5.7-2.6,3.8-4.9,7.8-7.5,11.9-.7,1-1.3,2.1-2,3.1-.7,1-1.4,2.1-2,3.2-1.3,2.2-2.7,4.4-4.2,6.6,1.1-.8,2.1-1.1,2.8-.8-.7,2.7-2.4,5.3-4.2,7.8-1.8,2.6-3.8,5.1-5.5,7.5l4.8,2.7c-.8,1.1-1.5,2.3-2.2,3.6-.7,1.3-1.2,2.7-1.8,4-1.1,2.8-2.1,5.8-3.2,8.8-.6,1.5-1.1,3-1.6,4.6-.5,1.5-1.1,3.1-1.7,4.6-.6,1.5-1.3,3-2.1,4.5-.4.7-.8,1.5-1.2,2.2-.4.7-.8,1.5-1.3,2.2,1.2,1.6,1,4.2,0,7.4-.5,1.6-1.1,3.4-1.9,5.3-.7,1.9-1.5,4-2.4,6.1-3.5,8.5-7,18.6-6.6,26.2-.9,2.8.9-.2,2.8-1.8.9-.8,1.9-1.3,2.4-.6.3.3.5,1,.5,2,0,1,0,2.5-.1,4.5-5.9.6-6.4,5.8-7,10.9-.3,5.1-.8,10-7.1,10.6.7,2.4,1.4,4.8,2.2,7.2l2.5,7.1c-2.1,1.1-4.2,2.2-6.2,3.4,1.5,1.5,2.6,2.9,3.3,4.2.7,1.3,1.2,2.6,1.3,3.9.3,2.6-.4,5.1-1.4,7.9-2,5.6-4.4,12.2-1.4,21.1,1.2-1.2,1.4-3.2,2.4-2.4-.4,3,0,7.9-.2,10.8-.3,2.9-1.1,3.9-3.7-1.1.5,2.4,1,6.4,1.6,10.6.8,4.2,1.7,8.8,2.6,12.6.9,3.8,2.1,6.7,3,7.7,1,1,1.8,0,2.4-4.1-.8.5-1.5,0-2-1.2-.5-1.1-.8-2.9-1-5-.4-4.1-.5-9.1-.4-12.1,2.7-.1,4.4,3.4,6.2,7.3.9,1.9,1.8,3.9,2.9,5.6.6.8,1.2,1.6,1.8,2.1.7.6,1.5,1,2.3,1.2-.5.6-.8,2.6-1.3,4.2l3.8,1.1c-.1,2.3,0,4.7.1,6.9,0,1.1.2,2.3.4,3.4.2,1.1.4,2.2.6,3.3.4,2.2,1,4.3,1.5,6.5.3,1.1.5,2.1.8,3.2.3,1,.6,2.1.9,3.1,1.2,4,2.4,8,3.1,11.9.8,3.8,1.3,7.6.9,11.4.9,0,2,.6,3.1,1.9.6.7,1.1,1.5,1.7,2.5.6,1,1.3,2.2,1.9,3.7l-6,3.3,4.6,8.7c1.5,2.9,3.3,5.7,4.9,8.5,1.3-4.3,2.7-8.5,4.1-12.7,3,4.3,5.1,8.7,6.7,13.1.4,1.1.8,2.2,1.2,3.3.4,1.1.8,2.2,1.1,3.2.7,2.2,1.3,4.4,1.9,6.5,1.1,4.4,2.4,8.6,3.8,12.8.7,2.1,1.5,4.2,2.4,6.2.9,2,2,3.9,3.2,5.8,2.9-.8,5.5.6,8,3.3,1.2,1.4,2.5,3,3.8,4.8,1.3,1.8,2.7,3.8,4.1,5.9,2.7,4.2,6,8.4,9.6,12,3.5,3.6,7.6,6.2,12.1,7l-3.9-5.8c-.7-1-1.3-1.9-1.8-2.9l-1.8-3c9.4,11.1,16.5,15.8,23.3,20.3,1.7,1.1,3.3,2.3,5.1,3.5,1.7,1.2,3.5,2.4,5.4,3.8,1.8,1.4,3.8,3,5.8,4.8,2.1,1.8,4.4,3.8,6.8,6.1-2.6-1.3-4.9-2.4-6.9-3.5-2-1.1-3.7-2.1-5.4-3.1-3.2-2-6-3.7-9.1-5.5-3-1.9-6.4-3.9-11.1-6.4-2.4-1.2-4.9-2.7-7.8-4.4-2.9-1.7-6.4-3.5-10.2-5.7,3.5,2.6,6.7,5.2,9.8,7.9,1.5,1.3,2.9,2.7,4.4,4,1.5,1.3,2.9,2.6,4.3,3.9,1.4,1.3,2.8,2.6,4.1,3.9.7.7,1.3,1.3,2,2,.7.6,1.4,1.3,2,1.9,2.7,2.6,5.4,5.1,8,7.6.7.6,1.3,1.3,2,1.9l2.1,1.8c1.4,1.2,2.8,2.3,4.2,3.5,2.8,2.3,5.7,4.6,8.8,6.6,3.1,2,6.3,3.9,9.7,5.7,3.4,1.7,7.1,3.1,10.9,4.4-.5-3.4-6.4-8.8,1.6-7.4.6,2,2.5,3.9,4.9,5.7,2.4,1.7,5.4,3.2,8.1,4.6,2.7,1.4,5,2.7,6.2,3.8,1.3,1.1,1.4,2.2-.4,3.2,5,1,8.5.2,11.4-.7,1.5-.4,2.8-.9,4.2-1.1.7-.1,1.3-.2,2-.2.7,0,1.4,0,2.1.2l6.7,4.9c2.2,1.6,4.5,3.3,6.8,4.8l7,4.6c2.4,1.5,4.7,3.1,7.1,4.5l-.6-1.6c3.6,0,7.1.2,10.6.4,1.7.1,3.4.3,5.1.5,1.7.1,3.4.3,5,.5,3.3.4,6.6.8,9.8,1.4,3.2.5,6.5,1,9.6,1.6,12.7,2.5,25.2,5.3,37.9,8.1,3.2.7,6.4,1.2,9.6,1.8,3.2.5,6.5,1.2,9.7,1.6,3.3.4,6.5.8,9.8,1.1,1.7.2,3.3.3,5,.5,1.7.2,3.3.1,5,.2,6.7.1,13.5.1,20.2-.8,3.4-.4,6.8-.9,10.2-1.6,3.4-.8,6.8-1.7,10.2-2.7l-1.7-3.4c2.4.5,4.9.9,7.4,1.4l7.4,1c-5.8-.5-4.8-1.9-2.5-3.5,2.4-1.7,6.1-3.6,6.2-5.2,3,0,6-.2,9.1-.3l9.1-.5c1.5,0,3.1-.2,4.6-.4l4.6-.5,9.2-1c-.3-3.2-4.8-9.3-12.5-5.2ZM73.5,485.1c-1.1-2.5-2.3-5-3.2-7.6-1-1.4-1.8-2.9-1.9-4.9l1.9,4.9c.6.9,1.4,1.6,2,2.3.7.7,1.3,1.2,1.8,1.8.9,1.1,1,2.2-.6,3.5ZM461.1,47.6c2.6,4.2-5.5-.9-8.2-1.2l11.9,4.9c2.3-1.1-2.1-2.6-3.8-3.6ZM112.5,465l5.9,1.4-.9,6.2-5-7.6ZM173.4,545.2l-5.5-8.8h1.2c0,0,5.4,8.7,5.4,8.7l-1.2.2ZM256.9,637.3c-.6-.5-1.2-.9-1.8-1.6.6.4,1.2.9,1.8,1.6,3.6,3,7,2.8,9.9,3.1,1.5.2,2.8.4,4.1,1.2,1.3.8,2.5,2.1,3.7,4.5-5.2,2-8.8,1-11.4-1.3-2.6-2.2-4.4-5.4-6.3-7.5ZM100.4,516.3c-1.3-3.7-2-5.5-3.9-7.6-1.2,3.1-.3,11.9-4.2,7.6.2-2.5-1.3-6.7-2.3-10.5-1-3.9-1.4-7.5.5-8.7.4,3.1,1.5,5.5,3.1,7.3,1.6,1.8,3.4,3.2,5,4.4,3.2,2.4,5.2,4,1.8,7.6ZM60.6,259.1l-.3,2.9,6.2-9-5.9,6.1ZM81,215.3c1.9-.7,3.7-2.1,5.3-3.8.8-.9,1.6-1.9,2.4-2.9.8-1,1.6-2.2,2.4-3.3,1.5-2.3,3-4.8,4.5-7.3.7-1.2,1.5-2.4,2.3-3.5.8-1.1,1.5-2.2,2.3-3.2-1.5-2.4-4.8-2.1-8.4.2-1.8,1.1-3.6,2.8-5.3,4.9-1.7,2.1-3.2,4.6-4.5,7.3-1.3,1.3-2.2,2.5-2.7,3.5-.6,1-.8,1.8-.9,2.5,0,1.3.6,2.1,1.5,2.7,1.7,1.1,4,1.3,1.2,3.1ZM164.7,574.7l.5-4.9,2.3,1.3-6.4-9c3.6,1.3,6.3,3.1,8.5,5.3,1.1,1.1,2,2.2,2.9,3.4.9,1.2,1.6,2.4,2.3,3.6,1.4,2.4,2.5,4.9,3.5,7.2.5,1.1,1,2.2,1.6,3.2.6.9,1.1,1.8,1.8,2.5-.6-.5-1.3-1.2-2-2.1-.7-.9-1.4-1.9-2.2-3-1.5-2.2-3-4.6-4.5-6.5-1.5-1.9-3-3.4-4.3-3.8-1.4-.4-2.7.3-3.8,2.9ZM139.2,132.8c2.4-1.2,5.1-2.8,8-4.3,1.4-.8,2.9-1.5,4.3-2.2,1.4-.7,2.9-1.3,4.2-1.9,2.7-1.2,5.1-2,7-2.3,1.9-.3,3.2,0,3.6,1-1.2-1.5-2.9-2.3-4.8-2.4-1.9-.1-4.1.3-6.2,1.1-4.2,1.5-8.4,4.1-9.8,5.8-1.5,2.2-3.1,3.3-6.2,5.3ZM149.4,143.1c-3.1,1.9-5.5,3.4-7.6,4.4-2.2,1.1-4.1,1.8-6.1,2.3-4,1.1-7.8,1.7-14.1,3.9,1.6-3.3,3.4-5.7,5.3-7.2,2-1.5,4-2.1,5.8-2.3,3.6-.3,6.6,1.7,7.6,3.6,4.5-2.5,5.5-4.2,5.8-5.8.3-1.6-.2-3.2,1.2-5.5.7,2.2,1.3,4.3,2,6.5ZM123.3,140l-1.6,2.6-1.5,2.7c-1,3.8,0,7.4-.3,10.2-.2,1.4-.7,2.7-2,3.8-1.2,1.1-3.2,2-6.5,2.8l2-4.3,1-2.1,1.1-2.1,4.5-8.3c.2-.9.5-1.8,1-2.7.5-.9,1.2-1.8,2.1-2.7ZM221.5,62.7l-6.7.5c5.6-2.6,6.7-1.8,6.7-.5l5.5-.3c-10.5,8.5-5.7,3-5.5.3ZM145.3,119.9c-2.2,1.9-4.3,4-6.4,6l-6.3,6.1c1.7.9,4.1-1,6.4-3.7,2.4-2.6,4.6-6.2,6.4-8.4ZM221.1,70.6c-6.4,3.6-22,14.4-19.9,12.6-.2-1.1.6-2.5,2-3.9,1.4-1.4,3.5-2.8,5.7-4.1,2.2-1.3,4.6-2.5,6.8-3.3,2.2-.8,4.2-1.3,5.4-1.3ZM566.8,130.4l-7.3-7.5c2.5-.2,4.9-.3,7.4-.5,0,2.7,0,5.4,0,8ZM461.9,68.8l3.4-1.6,5.5,2.6-8.9-1ZM351.9,51.6c.5-1.2.2-2.7-.8-3.9-1.7-.4-3.3-1.1-4.1-2.2,1.6,0,3.1.9,4.1,2.2,4.6,1.1,11.3.2,14.4-1.3-.4-.7-1.2-1.2-2.2-1.6-.5-.2-1-.4-1.6-.5-.6-.1-1.1-.2-1.7-.3-2.3-.4-4.8-.6-6.2-1.5,1.3-.8,2.8-1.3,4.5-1.4,1.7-.2,3.4,0,5.2.3,3.6.7,7.3,2,10.5,3,3.1.9,5.7,1.6,7.2.8,1.5-.8,1.9-3,.5-7.8,2.2,1.3,7.1,3.4,10.6,5.6,3.5,2.4,5.7,4.7,2.9,5.9-1.5-.3-3.1-.7-4.9-.8-1.8-.2-3.7-.3-5.6-.4-3.9-.2-8.2-.4-12.3,0-4.1.3-8.2.7-11.7,1.3-3.5.7-6.6,1.6-8.8,2.5-.5,1-1.4,1.8-3.4,2,.6-.7,1.9-1.3,3.4-2ZM211.3,98.3c-3.8,1.9-5.6,2.4-6.6,2.3-1.9.4-3.7.5-5.1.3-1.4-.2-2.4-.9-2.7-2.3,1.1-.4,2-.7,2.7-.8.7-.2,1.3-.2,1.8-.2.9,0,1.4.4,1.6.8.5.9.3,2.1,1.6,2.2,2.3-.5,4.6-1.2,6.6-2.3ZM190.3,114.1c2.1-1,4.4-1.7,6.5-2.6l6.5-2.5-7.9.7,5.3-1.4c1.8-.5,3.4-1,5.2-1.3l10.5-2.3c-3.8,4.7-9.3,7.4-14.3,9.1-5,1.6-9.7,1.6-11.9.3ZM188.7,119.8l-4.9-1.7,6.2.9-1.2.8,1.1.4c-3.2,2-6.5,3.9-9.6,6.1l-4.7,3.2c-1.6,1.1-3.2,2.1-4.7,3.3,1.4-1.2,2.9-2.3,4.4-3.4l4.4-3.3,2.2-1.7,1.1-.8,1.1-.8,4.6-3.1ZM73.4,317c3.6,2.5,6.2,2.4,8.2,1,1-.7,1.8-1.7,2.5-3,.7-1.3,1.3-2.8,1.9-4.3,1.3-3.2,2.3-6.7,3.6-9.7.3-.7.6-1.4,1-2.1.3-.6.8-1.2,1.2-1.8.8-1,1.7-1.8,2.7-2.2-2.4-.9-5.2-3.7-7.9-3.7-1.3,0-2.6.8-3.8,2.9-.3.5-.6,1.2-.9,1.9-.3.7-.6,1.5-.8,2.5-.4,1.9-.8,4.1-1.2,6.9-1.4-10,1.8-12.6,3.6-14.3.9-.9,1.6-1.5,1.3-2.8-.2-1.3-1.4-3.2-3.9-6.7-.5,4.7-2,9.6-3.7,13.6-.2.5-.4,1-.6,1.5-.2.5-.4.9-.5,1.4-.3.9-.7,1.7-1,2.4-.6,1.4-1,2.4-1.2,2.8l.4-5.6c0-.9.2-1.9.3-2.8l.4-2.8c-2.6,1.2-3.9,2.9-4.2,4.9-.3,2,.2,4.4.9,6.7.7,2.4,1.6,4.8,2,7,.5,2.3.7,4.4-.2,6.3ZM90.5,434.3c1.3,4.7,3.1,9.2,4.8,13.7-1.3-4.4-2.7-8.8-3.7-13.3l-1.1-.4ZM364.9,623.1c-.5-1.8,3.8-4.4,8.6-5.8,2.4-.6,5-1.2,7.3-1.1,2.3.1,4.3.8,5.5,2.4-2.3.4-4.6.8-6.8,1.1-1.1.2-2.2.3-3.3.5-1.1.1-2.1.2-3.1.3-3.9.5-7,1.1-8.2,2.5ZM509.5,582.6c-2.5,1-5.2,1.8-7.7,2.7l-3.8,1.3c-1.3.4-2.5.9-3.9,1.3-.1-1.1,0-2,.2-2.7.3-.8.7-1.4,1.3-2,1.2-1.1,2.9-1.8,4.9-2.4,2-.6,4.2-1.1,6.3-1.8,2-.8,4-1.7,5.3-3,4.4,2-2,2.9-2.7,6.6ZM587.1,512.8c1.4-1.1,2.8-2.1,4.2-3.3-3.2-.1-6.5-.4-9.7-.6l5.5,3.9ZM574.3,511.6c-.5-2.4-2.7-1.7-4.9-.3-2.3,1.4-4.6,3.6-5.3,4.7,3.4-1.4,6.9-2.8,10.1-4.4ZM612,430.2c-.5,2.1-1.2,4-1.8,6.1l4.4-1.4c1.5-.5,3-1,4.4-1.5l-7-3.2ZM616.2,442.7c-2.7-.3-5.6-1.2-8.1-.2-.6.2-1.2.6-1.8,1.1-.6.5-1.2,1.2-1.7,2-1.1,1.7-2,4.2-2.7,7.9,4.7,2.9,6.3-.9,9.8,7,3.2-4,2.8-8.7,3.4-11.1-2.2,2.7-1.8,7.3-5.4,6.6.2-3,1.1-5.7,2.2-7.9.3-.6.6-1.1.9-1.6.3-.5.6-1,1-1.5.7-.9,1.4-1.7,2.2-2.3,1.9.2,3.7,0,5.2-1.5-1.6-.5-3.4,0-5.2,1.5ZM595.9,493.9c-.6,2-.9,4-.6,5.1h-1.7c-.7-3,.6-4.2,2.3-5.1.6-2.3,1.5-4.7,2.4-7.3-1.5-1.9-4.3-1.1-7.2.2-2.9,1.3-5.7,3.2-7.5,3.6,1.9-1.6,4.2-2.7,6.4-4.3,1.1-.8,2-1.7,2.8-2.8.4-.6.7-1.2,1-1.9.3-.7.4-1.5.5-2.4-.8,0-1.3-.3-1.8-.1-.5.2-1.1.7-2.2,2.4l1-2,.9-2,1.7-4c5.3-2.7,7.2-1.9,7.4.9,0,1.4-.3,3.3-.8,5.4-.6,2.1-1.3,4.5-2.2,6.8.7.8,1.2,2,1.2,4.1-.3,1.7-2,2.3-3.6,3.1ZM637.3,431.3l-2.9,4.5c-2.5,1.9-3.7-.3-5.3.1,1.1-2.7,3.1-5.7,4.8-7.1,1.7-1.4,3.2-1.2,3.4,2.5ZM414.5,627.4c1.6-1,.1-2.4-2.6-3.3-2.7-.9-6.6-1.1-10.3,0,1-2.4,2-4.8,3-7.3.4,2.2,4.3,2.5,8.4,2.3,2-.1,4.1-.4,5.7-.6,1.6-.3,2.9-.5,3.3-.5,4,5.5-2.3,4.4-7.6,9.4ZM106.7,482.9c1.5-1.7,1.7-3.8,1.3-6.2-.4-2.4-1.5-5-2.8-7.6-.6-1.3-1.3-2.6-2-3.8-.7-1.2-1.2-2.5-1.8-3.6-1.1-2.2-1.8-4.1-1.7-5.4,1.5,2.1,3.3,5,5,8,1.9,3,3.6,6.1,4.8,9,.6,1.4,1,2.8,1.4,4,.3,1.2.4,2.3.3,3.1-.3,1.8-1.6,2.8-4.6,2.5ZM88.5,453.2c-1.9-5.2-3.3-6.3,1-7.4.4-1.6-.4-3.1-1.1-4.7-.7-1.6-1.4-3.2-1-4.7,3.4,4.4,3.7,6.8,3,9.2-.7,2.3-2.2,4.4-1.9,7.6.2.7.5,1.4.8,2.2.3.8.6,1.7.9,2.6-.6-1-1-1.8-1.2-2.6-.2-.8-.4-1.5-.4-2.2ZM232.2,606.7c1.3,3,2.7,5.8,4,8.8l5.4,2.2c.9.4,1.8.7,2.7,1.1l2.8.9c-2.6-2-5.1-4.3-7.6-6.4-2.5-2.2-5-4.3-7.4-6.5ZM350.3,647.5c-.4-1.8,2.8-2.7,6.4-2.8,1.8,0,3.7,0,5.4.2,1.6.1,3,.4,3.7.9-.2-1.2-1-2-2.1-2.6-.5-.3-1.2-.5-1.9-.7-.7-.2-1.5-.4-2.3-.5-3.2-.6-7.3-.7-10.8-1-.9-.4-2.4-.7-4.6-.8.7.2,1.4.4,2.2.5.8.1,1.6.2,2.5.3,2.6,1.2.7,3.6.6,5.2l-3.7,1.3,10,1.6-5.5-1.5ZM561.5,580.5c1.9-4.1,3.3-6.1,4.8-7.3,1.5-1.3,3.2-1.8,5.7-3.2,0,2.6-5.4,7.8-10.5,10.5ZM282.4,641.7c1.7.2,3,.1,3.9,0,.9-.2,1.3-.5,1.5-.9.4-.8-.4-1.9-1.3-3-.9-1.1-1.9-2.3-2.1-3.2-.2-.9.4-1.5,2.7-1.5-2.3-.4-4.6-.9-7-1.4,3.1-.4,5-.2,6.4.4,1.3.6,2,1.5,2.6,2.6,1.2,2.1,1.8,4.6,6,4.8l-5.6-.3c-5.3,3.4,7.5,4.9,7.8,8.7-3.4.2-8.6-1.4-12.2-3.1-1.8-.8-3.2-1.7-3.8-2.3-.6-.6-.4-1,1-.8ZM573.5,574.2c3.5-6.5,6.4-7.6,9.3-7.7,1.5,0,2.9,0,4.4,0,1.5-.2,3-.7,4.7-2.1-2.4,5.6-5.1,6.4-8,6.7-2.9.3-6.2,0-10.5,3.2ZM369.6,665.5l-.9.9,5.9,1.2c2,.4,4,.8,5.9,1.1l.9-1-3-.4-3-.6-5.9-1.2Z"/>
    <path class="cls-5" d="M552.1,528.7c1.6-2.5,3-3.9,4.4-4.8-1.2,1.6-2.6,3.3-4.4,4.8Z"/>
    <path class="cls-5" d="M109,413.9c-1.3,0-2.1-.7-2.9-1.9.7,0,1.6.4,2.9,1.9Z"/>
    <path class="cls-5" d="M106.5,391.2c0-.3-.1-.6-.1-.8.1-.2.2-.5.3-.8l-.2,1.6Z"/>
    <path class="cls-5" d="M623.3,253.4c-3.9,6.6-2.4-4.3-3.9-8.2,1.4,3.8,5.7,4,3.9,8.2Z"/>
    <path class="cls-5" d="M620.1,219.3c-.5,3-.1,6.8,1.2,10.9-1.3-2.4-1.9-5.3-1.2-10.9Z"/>
    <path class="cls-5" d="M628.1,245.4c-.4-.7-.8-1.4-1.2-2.1-.4-.7-.8-1.4-1.1-2-.7-1.3-1.4-2.6-1.9-3.9-1.2-2.5-2-4.9-2.6-7.1.9,1.9,2.2,3.5,3.5,5.7.6,1.1,1.3,2.4,1.9,3.9.6,1.5,1.2,3.3,1.5,5.6Z"/>
    <path class="cls-5" d="M568.4,146.2c.3,1.6,1,3.1,1.9,4.5.9,1.5,1.9,2.9,3,4,2.1,2.4,4.1,3.9,4.1,3.9-8.4-7.1-8.9-5.1-7.5-1.1.7,2,1.9,4.6,2.8,6.8.2.6.5,1.1.6,1.6.2.5.3,1,.4,1.4.2.9.3,1.6.2,1.9-1.7-2.8-3-4.9-3.8-6.9-.8-1.9-1.1-3.6-1.2-5.3-.1-1.6,0-3.3,0-5,0-1.7,0-3.7-.4-6Z"/>
    <path class="cls-5" d="M548.6,124.7c1.7,1.5,3.5,2.8,5.1,3.5-2.2-.7-3.8-2-5.1-3.5Z"/>
    <path class="cls-5" d="M540.2,122c-2.7-2.7-4-5.2-4.7-7.7-.7-2.5-.8-4.9-1.3-7.2,1.2.4,2.2.9,3.1,1.5.9.6,1.7,1.2,2.4,1.9,1.4,1.4,2.5,3,3.5,4.6,2,3.2,3.1,6.8,5.4,9.4-2.1-1.7-4-3.6-5.6-4.4-1.6-.7-2.6-.5-2.9,1.7Z"/>
    <path class="cls-5" d="M325.3,80.5c1.7.2,5.5-.3,5.9,1.9l-5.8.8-2.9.4c-1,.1-1.9.3-2.9.5-4.8-.5,3.3-3,5.6-3.6Z"/>
    <path class="cls-5" d="M279.8,79.5c-9.4,2.8-2.7,6.7-7.8,7l-2-7.4,9.8.4Z"/>
    <path class="cls-5" d="M274.1,40.6l3.4-.2c-1.2.2-2.4.5-3.7.8l.3-.6Z"/>
    <path class="cls-5" d="M239.8,104.2c3.3,1.5,6.5,3.1,9.6,4.7-7.8,1.6-11.2-4.4-9.6-4.7Z"/>
    <path class="cls-5" d="M212.1,127.7c2-.3,4-.7,5.9-1-2.6,1.3-5.1,2.6-7.7,3.9l-3.9,1.9-3.7,2.1c3-2.5,6.2-4.7,9.3-7Z"/>
    <path class="cls-5" d="M176.4,152.1l.2,2.3c-3.3,2.3-6.5,4.7-9.8,7.1l4.8-4.7c1.6-1.6,3.1-3.2,4.8-4.7Z"/>
    <path class="cls-5" d="M214.2,568.3c-.6,1.8-2,2.3-3.8,2-.9-.1-1.9-.5-3.1-.9-1.1-.5-2.2-1.1-3.4-1.9-2.3-1.4-4.8-3.1-7-4.6-2.2-1.5-4.1-2.8-5.5-3.3,2.2-1.2,3.9-1,5.5-.2,1.6.9,3.1,2.3,4.6,3.9,1.6,1.6,3.3,3.3,5.3,4.3,1,.6,2.1.9,3.3,1,1.2.1,2.5,0,4-.4Z"/>
    <path class="cls-5" d="M542.2,542.7l-7.6,5.5c-1.2.9-2.6,1.7-3.9,2.6l-3.9,2.5c4.7-5.5,5.5-6.1,6.6-6.4,1.1-.2,2.6,0,8.7-4.2Z"/>
  </g>
</svg>