<?xml version="1.0" encoding="UTF-8"?>
<svg id="Camada_1" data-name="Camada 1" xmlns="http://www.w3.org/2000/svg" version="1.1" viewBox="0 0 720 455">
  <defs>
    <style>
      .cls-1, .cls-2, .cls-3 {
        fill: #2f3b64;
      }

      .cls-1, .cls-4, .cls-5, .cls-6, .cls-7 {
        stroke-width: 0px;
      }

      .cls-2 {
        font-size: 21.1px;
      }

      .cls-2, .cls-3 {
        font-family: CordelEncarnadoII, 'Cordel Encarnado II';
      }

      .cls-4 {
        fill: #f5f3ce;
      }

      .cls-4, .cls-6 {
        opacity: .3;
      }

      .cls-5, .cls-6, .cls-7 {
        fill: #eab59f;
      }

      .cls-3 {
        font-size: 30px;
      }

      .cls-7 {
        opacity: .3;
      }
    </style>
  </defs>
  <rect id="fundo" class="cls-4" y="1" width="720" height="454"/>
  <g id="Titulo-info">
    <text class="cls-3" transform="translate(27.1 59.5)"><tspan x="0" y="0">Locais de rodízio para aplicação da insulina</tspan></text>
  </g>
  <g>
    <g>
      <path class="cls-6" d="M550.3,236.5c-2-1.9-2,.6-.1,3.2,1.9,2.6,4,5.5,3,6.1-1,.6-4.7-6-5.5-5.5-.7.5,3.6,8.3,2.3,8.9-1.3.7-3.6-7.6-4.6-7.7-1.1-.1.8,8.9-.5,8.7-1.3-.2-1.7-8.3-2.4-8.5-.8-.2-.9,6-2,5.8-1-.2-.3-5.6-.6-6.9,0,0-2.9-4.4-1.6-10.4,0,0-3.1-6.2-7.1-9.8-4-3.6-13.5-10.2-13.2-32.8,0,0-3,8.8-5,11.2-2,2.4.5,24.3,1.5,27.9,1,3.6,7,36.7,3.5,51,0,0-5,21.7-3.2,30.9,1.8,9.2,2.7,19.1-2.3,30.1-5,11-3.1,18.5-3.1,18.5,0,0,1.3,2,1,4.9-.3,2.5,1.4,5.5,2.8,9.2.3.6.5,1.3.7,2,1.5,4.6-9.4,6-12.1,3.5-1.3-1.2-1.5-3.3-1.5-5.5,0-2.3.3-4.6,0-6-.8-2.7,0-7.2,1.2-10.5,1.2-3.3.8-11.3-.5-18.3-1.3-7-.1-14.1,1.7-22,1.8-7.9-5.1-16.5-4.7-28.5.4-11.5-4.4-20-4.5-34.5-.1,14.5-4.9,23-4.5,34.5.4,12-6.5,20.6-4.7,28.5,1.8,7.9,3,15,1.7,22-1.3,7-1.7,15-.5,18.3,1.2,3.2,1.9,7.7,1.2,10.5-.4,1.4-.1,3.7,0,6,0,2.2-.2,4.4-1.5,5.5-2.7,2.4-13.6,1-12.1-3.5.2-.7.5-1.4.7-2,1.4-3.7,3.1-6.7,2.8-9.2-.3-2.9,1-4.9,1-4.9,0,0,1.8-7.5-3.1-18.5-5-11-4.1-20.8-2.3-30.1,1.8-9.2-3.2-30.9-3.2-30.9-3.5-14.3,2.5-47.4,3.5-51,1-3.6,3.5-25.5,1.5-27.9-2-2.4-5-11.2-5-11.2.3,22.5-9.2,29.2-13.2,32.8-4,3.6-7.1,9.8-7.1,9.8,1.3,6-1.6,10.4-1.6,10.4-.3,1.2.5,6.7-.6,6.9-1,.2-1.2-6-2-5.8-.8.2-1.1,8.3-2.4,8.5-1.3.2.6-8.8-.5-8.7-1,.1-3.4,8.4-4.6,7.7-1.3-.7,3-8.5,2.3-8.9-.7-.5-4.5,6.1-5.5,5.5-1-.6,1.1-3.5,3-6.1,1.9-2.6,1.9-5-.1-3.2-2,1.9-6.7,2.1-4.7.9,2-1.2,3.5-2.9,6-6.2,2.5-3.2,4.8-3.1,4.8-3.1,1.3-1.6,3.9-7.4,5.3-15.1,1.5-7.7,9-15.7,9-15.7-.4-14.6,1.4-28,6.4-32.8,3.3-3.1,9.1-5,12.7-6,2.8-.7,5.4-2.1,7.5-4.1,2.3-2.2,2.5-4.1,2.5-8.6s-3.6-7.3-5-9.9c-.3-.6-.6-1.3-.6-2.1,0-3.9,1.9-2.9,1.9-2.9,0-14.5,9.7-14.3,11.3-14.3s11.3-.3,11.3,14.3c0,0,1.9-1,1.9,2.9s-.2,1.5-.6,2.1c-1.4,2.7-5,4.8-5,9.9s.2,6.3,2.5,8.6c2,2,4.6,3.3,7.4,4.1,3.6.9,9.4,2.8,12.7,6,5,4.8,6.8,18.2,6.4,32.8,0,0,7.5,8,9,15.7,1.5,7.7,4,13.5,5.3,15.1,0,0,2.3-.2,4.8,3.1,2.5,3.2,4.1,4.9,6,6.2,2,1.2-2.7,1-4.7-.9Z"/>
      <g>
        <path class="cls-5" d="M457.3,176.6c-1,3.7-1.7,7.4-2.3,11.1s-.1,1.3.3,1.9.9,1,1.5,1.1c1.2.3,2.9-.4,3.1-1.7.6-3.7,1.3-7.4,2.3-11.1s-.4-2.8-1.7-3.1-2.7.4-3.1,1.7h0Z"/>
        <path class="cls-5" d="M523.7,176.7c0,.5.2,1,.2,1.5s0,.5.1.8c0-.5,0,.1,0,.3.1,1,.2,1.9.3,2.9.1,2,.2,3.9.2,5.9s1.2,2.6,2.5,2.5,2.5-1.1,2.5-2.5c0-4.2-.3-8.5-1-12.6s-1.9-2.1-3.1-1.7-2,1.7-1.7,3.1h0Z"/>
      </g>
      <g>
        <path class="cls-5" d="M470.4,236.6c-.7,3-1.3,6.1-1.9,9.2s-.7,3.1-.7,4.7,1,3.7,2.9,4.4,5.4.4,7.3-1.4,2.4-5.8,1.9-8.8-1.9-6.2-4-8.7-3.9-.7-4.2,1.1c-.5,3-1,5.9-1.4,8.9s-.7,3.4.1,4.9,4.2,2.1,5.2,0,.4-2.8-.9-3.4-2.8-.4-3.4.9l.2-.3,1.1-.6,2.3,1.5c0-.1,0-.3,0-.4,0-.2,0-.5,0-.7,0-.4.1-.9.2-1.2.1-.7.2-1.8.4-2.6.3-1.9.6-3.7.9-5.6l-4.2,1.1c0,0,.4.5.2.3.1.2.3.4.4.6.3.4.6.9.8,1.4s.2.5.3.7,0,0,0,0c0,.1,0,.2.1.4.2.5.4,1,.5,1.6s.2,1,.3,1.5c0-.4,0,.3,0,.4,0,.3,0,.6,0,.9s0,.5,0,.8,0,.3,0,.4c0,0,0,.4,0,.2s0,.2,0,.2c0,.1,0,.3,0,.4s0,.3-.1.4c0-.2,0-.1,0,0s-.1.2-.2.3c-.1.2,0,0,0-.1-.1.1-.3.3-.4.4.3-.3,0,0-.1,0s-.3.2,0,0,0,0-.1,0c-.2,0-.4.1-.6.2.4-.1.2,0,0,0s-.4,0-.6,0c.5,0,0,0-.2,0s-.2-.2,0,0,.3.4.4.6c0,0-.1-.4,0,0s0-.3,0-.5c0-.3,0,0,0,0,0-.2,0-.3,0-.5.2-1.2.4-2.4.6-3.7.5-2.8,1.1-5.5,1.7-8.3s-.4-2.8-1.7-3.1-2.8.4-3.1,1.7h0Z"/>
        <path class="cls-5" d="M476.5,251.6c3.2,0,3.2-5,0-5s-3.2,5,0,5h0Z"/>
        <path class="cls-5" d="M475.7,249.1c3.2,0,3.2-5,0-5s-3.2,5,0,5h0Z"/>
      </g>
      <g>
        <path class="cls-5" d="M511.6,238.1c.5,3.1,1,6.2,1.4,9.3s.4,2.5.4,3.7c0-.3,0-.3,0,0,0-.2.1-.3.3-.4.2-.2.3-.2.1-.1-.2,0-.1,0,.2,0-.1,0-.2,0-.3,0,.4,0,.4,0,.2,0-.7,0,.3,0-.2,0-.3,0-.2,0,.1,0-.1,0-.2-.1-.3-.2.3.2.3.2,0,0,0,0-.2-.2-.3-.3.3.3,0,0,0-.2-.1-.3-.1-.3,0,0,0-.2-.1-.3-.1-.5,0-.2,0-.3-.1-.5,0,.2,0,.2,0-.1,0-.4,0-.7,0-1.1,0-.6,0-1.3,0-1.9,0-.2,0-.4,0-.5,0,.2,0,.2,0-.1,0-.3.1-.7.2-1,.1-.6.3-1.2.5-1.8s.2-.6.3-1c.1-.3.1-.3,0,0,0-.1.1-.3.2-.4.3-.6.6-1.1.9-1.7l-4.7-1.3c.3,2,.5,3.9.7,5.9s.2,1.9.3,2.8,0,1,.1,1.5,0,.5,0,.7c0,.4,0,0,.1-.2l.9-.9h.3c.4-.1.9-.1,1.3-.1h-.1c.4.2.7.4,1.1.6h-.1c.2.3.4.6.6,1v-.2c-.5-1.2-1.8-2.2-3.1-1.7s-2.2,1.8-1.7,3.1,1.1,1.9,2.4,2.1,2.3-.4,2.9-1.5.4-3.1.2-4.6c-.3-2.9-.6-5.7-1-8.6s-.7-2.1-1.8-2.4-2.2.2-2.8,1.1c-1.4,2.2-2.3,4.7-2.7,7.3s-.7,6.2.8,8.7,4.5,3.5,7.1,2.3,2.3-5.1,1.9-7.8-1-6.9-1.6-10.4-1.9-2.1-3.1-1.7-2,1.7-1.7,3.1h0Z"/>
        <path class="cls-5" d="M511.2,251.7c3.2,0,3.2-5,0-5s-3.2,5,0,5h0Z"/>
        <path class="cls-5" d="M511.8,249.3c3.2,0,3.2-5,0-5s-3.2,5,0,5h0Z"/>
      </g>
      <path class="cls-1" d="M501.5,119.9c-2.1-2.1-5-3.3-8-3.2-.9,0-1.7.2-2.5.4-.4-.2-.8-.2-1.2-.2-6.9.9-9.8,7.6-9.1,13.8.3,2.8.9,6,2.9,8.5.5.7,1,1.4,1.4,2,1,1.6,1.9,3.1,3.9,3.9,1.1.4,2.5.6,4,.6,2.6,0,5.4-.6,7.3-1.6,2.1-1.2,3.6-3.5,4.5-7,1.3-5.2,1.8-12.4-3-17.2Z"/>
      <path class="cls-7" d="M479.1,262.1c5.2,1,9.7-2.3,13-5.9s-.4-1.6-.9-.9c-3,3.3-7,6.5-11.8,5.6s-1.2,1.1-.4,1.3h0Z"/>
      <path class="cls-7" d="M495.7,255.6c3.1,3.2,7.8,4.6,12.1,3.6s.5-1.5-.4-1.3c-3.9.9-8.1-.4-10.8-3.3s-1.5.3-.9.9h0Z"/>
      <g>
        <path class="cls-5" d="M468.5,264.6c4.9,8.2,6.4,18.1,4,27.3l4.6-.6c-1.8-3.9-2.2-8.5-2.9-12.7s-1.4-9-1.8-13.6-1.1-2.5-2.5-2.5-2.6,1.1-2.5,2.5c.4,5,1.1,9.9,1.9,14.9s1.4,9.6,3.4,13.9,4.1,1.4,4.6-.6c2.7-10.5,1.1-21.9-4.5-31.2-1.7-2.8-6-.2-4.3,2.5h0Z"/>
        <path class="cls-5" d="M514.2,261.5c-5.6,9.3-7.3,20.7-4.5,31.2s3.6,2.6,4.6.6c2-4.3,2.6-9.2,3.4-13.9.8-4.9,1.6-9.9,1.9-14.9s-1.2-2.5-2.5-2.5-2.4,1.1-2.5,2.5c-.3,4.6-1,9.1-1.8,13.6s-1.1,8.8-2.9,12.7l4.6.6c-2.4-9.3-.9-19.2,4-27.3s-2.7-5.3-4.3-2.5h0Z"/>
      </g>
      <text class="cls-2" transform="translate(451.7 413)"><tspan x="0" y="0">COSTAS</tspan></text>
    </g>
    <g>
      <path class="cls-5" d="M257.8,176.7c0,.5.2,1,.2,1.5s0,.5.1.8c0-.5,0,.1,0,.3.1,1,.2,1.9.3,2.9.1,2,.2,3.9.2,5.9s1.2,2.6,2.5,2.5,2.5-1.1,2.5-2.5c0-4.2-.3-8.5-1-12.6s-1.9-2.1-3.1-1.7-2,1.7-1.7,3.1h0Z"/>
      <g>
        <path class="cls-6" d="M284,236.5c-2-1.9-2,.6-.1,3.2,1.9,2.6,4,5.5,3,6.1-1,.6-4.7-6-5.5-5.5-.7.5,3.6,8.3,2.3,8.9-1.3.7-3.6-7.6-4.6-7.7-1.1-.1.8,8.9-.5,8.7-1.3-.2-1.7-8.3-2.4-8.5-.8-.2-.9,6-2,5.8-1-.2-.3-5.6-.6-6.9,0,0-2.9-4.4-1.6-10.4,0,0-3.1-6.2-7.1-9.8-4-3.6-13.5-10.2-13.2-32.8,0,0-3,8.8-5,11.2-2,2.4.5,24.3,1.5,27.9,1,3.6,7,36.7,3.5,51,0,0-5,21.7-3.2,30.9,1.8,9.2,2.7,19.1-2.3,30.1-5,11-3.1,18.5-3.1,18.5,0,0,1.3,2,1,4.9-.3,2.5,1.4,5.5,2.8,9.2.3.6.5,1.3.7,2,1.5,4.6-9.4,6-12.1,3.5-1.3-1.2-1.5-3.3-1.5-5.5,0-2.3.3-4.6,0-6-.8-2.7,0-7.2,1.2-10.5,1.2-3.3.8-11.3-.5-18.3-1.3-7-.1-14.1,1.7-22,1.8-7.9-5.1-16.5-4.7-28.5.4-11.5-4.4-20-4.5-34.5-.1,14.5-4.9,23-4.5,34.5.4,12-6.5,20.6-4.7,28.5,1.8,7.9,3,15,1.7,22-1.3,7-1.7,15-.5,18.3,1.2,3.2,1.9,7.7,1.2,10.5-.4,1.4-.1,3.7,0,6,0,2.2-.2,4.4-1.5,5.5-2.7,2.4-13.6,1-12.1-3.5.2-.7.5-1.4.7-2,1.4-3.7,3.1-6.7,2.8-9.2-.3-2.9,1-4.9,1-4.9,0,0,1.8-7.5-3.1-18.5-5-11-4.1-20.8-2.3-30.1,1.8-9.2-3.2-30.9-3.2-30.9-3.5-14.3,2.5-47.4,3.5-51,1-3.6,3.5-25.5,1.5-27.9-2-2.4-5-11.2-5-11.2.3,22.5-9.2,29.2-13.2,32.8-4,3.6-7.1,9.8-7.1,9.8,1.3,6-1.6,10.4-1.6,10.4-.3,1.2.5,6.7-.6,6.9-1,.2-1.2-6-2-5.8-.8.2-1.1,8.3-2.4,8.5-1.3.2.6-8.8-.5-8.7-1,.1-3.4,8.4-4.6,7.7-1.3-.7,3-8.5,2.3-8.9-.7-.5-4.5,6.1-5.5,5.5-1-.6,1.1-3.5,3-6.1,1.9-2.6,1.9-5-.1-3.2-2,1.9-6.7,2.1-4.7.9,2-1.2,3.5-2.9,6-6.2,2.5-3.2,4.8-3.1,4.8-3.1,1.3-1.6,3.9-7.4,5.3-15.1,1.5-7.7,9-15.7,9-15.7-.4-14.6,1.4-28,6.4-32.8,3.3-3.1,9.1-5,12.7-6,2.8-.7,5.4-2.1,7.5-4.1,2.3-2.2,2.5-4.1,2.5-8.6s-3.6-7.3-5-9.9c-.3-.6-.6-1.3-.6-2.1,0-3.9,1.9-2.9,1.9-2.9,0-14.5,9.7-14.3,11.3-14.3s11.3-.3,11.3,14.3c0,0,1.9-1,1.9,2.9s-.2,1.5-.6,2.1c-1.4,2.7-5,4.8-5,9.9s.2,6.3,2.5,8.6c2,2,4.6,3.3,7.4,4.1,3.6.9,9.4,2.8,12.7,6,5,4.8,6.8,18.2,6.4,32.8,0,0,7.5,8,9,15.7,1.5,7.7,4,13.5,5.3,15.1,0,0,2.3-.2,4.8,3.1,2.5,3.2,4.1,4.9,6,6.2,2,1.2-2.7,1-4.7-.9Z"/>
        <path class="cls-5" d="M191.4,176.6c-1,3.7-1.7,7.4-2.3,11.1s-.1,1.3.3,1.9.9,1,1.5,1.1c1.2.3,2.9-.4,3.1-1.7.6-3.7,1.3-7.4,2.3-11.1s-.4-2.8-1.7-3.1-2.7.4-3.1,1.7h0Z"/>
        <g>
          <path class="cls-5" d="M205.1,253.9l7-4.4-3.8-2.2c-.5,5.1-1.2,10.2-2.1,15.3s-.9,4.8-1.4,7.2-1.1,4.1-2.4,5.7l4.2,1.1c-.7-4.3-.8-8.6-.3-12.9s.6-4.2,1.1-6.3,1.5-4.4-.3-6-4.5-.9-5.5,1.1-.6,4.4-.6,6.5c0,4.7,0,9.3,0,14s5,3.2,5,0,0-6.6,0-10,0-3.2,0-4.7,0-1.7,0-2.5.1-.8,0-1-.8,1-1.3.8l-1.1-.6c-.2-1.3-.4-1.5-.5-.7,0,.2-.1.5-.2.7-.1.5-.3,1.1-.4,1.6-.2.9-.4,1.8-.5,2.8-.4,2.1-.6,4.2-.7,6.2-.3,4.1,0,8.3.7,12.3s3,2.5,4.2,1.1c3.4-4.1,4.1-9.5,5.1-14.6s1.8-11.4,2.3-17.1-2.3-3.1-3.8-2.2l-7,4.4c-2.7,1.7-.2,6,2.5,4.3h0Z"/>
          <path class="cls-5" d="M250.2,250.2l-7-4.4c-1.5-.9-3.9.3-3.8,2.2.6,5.7,1.3,11.4,2.3,17.1s1.7,10.5,5.1,14.6,3.9.7,4.2-1.1c.6-4.1.9-8.2.7-12.3s-.4-4.2-.7-6.2-.3-1.8-.5-2.8-.2-.9-.3-1.4c0-.3-.2-.6-.2-.9-.1-.8-.3-.6-.5.7l-1.1.6c-.3.1-1.2-1-1.3-.8,0,0,0,.6,0,.7,0,.8,0,1.7,0,2.5,0,1.7,0,3.3,0,5,0,3.3,0,6.6,0,10s5,3.2,5,0c0-4.7,0-9.3,0-14s.4-4.6-.6-6.5-3.9-2.6-5.5-1.1-.8,4-.3,6,.9,4.2,1.1,6.3c.4,4.3.3,8.6-.3,12.9l4.2-1.1c-1.3-1.6-1.9-3.6-2.4-5.5s-1-4.9-1.5-7.4c-.9-5.1-1.6-10.2-2.1-15.3l-3.8,2.2,7,4.4c2.7,1.7,5.2-2.6,2.5-4.3h0Z"/>
        </g>
        <polygon class="cls-5" points="214.2 215.8 221.1 208.5 213.5 201.3 207.8 208.1 206.7 221.8 213.2 231.4 221.4 224.9 214.2 215.8"/>
        <polygon class="cls-5" points="239.8 216 232.9 208.7 240.5 201.5 246.2 208.3 247.3 222 240.8 231.6 232.6 225.1 239.8 216"/>
        <text class="cls-2" transform="translate(189.5 413)"><tspan x="0" y="0">FRENTE</tspan></text>
        <path class="cls-1" d="M236.2,118.6c-.9-1.6-2.1-3-3.7-3.7-1.8-.9-3.7-1-5.6-.8-1.9.1-3.9.3-5.7,1.1-1.7.7-2.9,2.1-4,3.5-1.2,1.5-2.2,3.1-2.6,4.9-.5,2.2-.4,4.5-.3,6.7.1,1.5,2.3,1.5,2.2,0,0-.9-.1-1.9-.1-2.8,0,0,.1,0,.2-.2,2.4-3,6-4.6,9.6-2.8,3.1,1.6,6.6,4.7,10.3,3.1.2,0,.4-.2.6-.4.2,1.2.3,2.5.3,3.7,0,1.5,2.1,1.5,2.2,0,.2-4.2-1.2-8.7-3.3-12.2Z"/>
      </g>
    </g>
  </g>
</svg>