<?xml version="1.0" encoding="UTF-8"?>
<svg xmlns="http://www.w3.org/2000/svg" version="1.1" viewBox="0 0 500 500">
  <defs>
    <style>
      .cls-1 {
        fill: #ffcab3;
      }

      .cls-1, .cls-2, .cls-3, .cls-4, .cls-5, .cls-6, .cls-7, .cls-8, .cls-9, .cls-10, .cls-11, .cls-12, .cls-13 {
        stroke-width: 0px;
      }

      .cls-2 {
        fill: #b1dae3;
      }

      .cls-3 {
        fill: #ded65b;
      }

      .cls-4 {
        fill: #e0e0e0;
      }

      .cls-5 {
        fill: #000;
      }

      .cls-6 {
        fill: #eb996e;
      }

      .cls-7 {
        fill: #455a64;
      }

      .cls-8 {
        fill: #f5f2cb;
      }

      .cls-9 {
        fill: #263238;
      }

      .cls-14 {
        opacity: .2;
      }

      .cls-15 {
        opacity: .3;
      }

      .cls-16 {
        opacity: .3;
      }

      .cls-10 {
        fill: #ebebeb;
      }

      .cls-11 {
        fill: #243866;
      }

      .cls-12 {
        fill: #fff;
      }

      .cls-17 {
        display: none;
      }

      .cls-13 {
        fill: #f5f5f5;
      }
    </style>
  </defs>
  <g id="Background_Complete" data-name="Background Complete">
    <g>
      <g>
        <path class="cls-8" d="M122.3,373.7c0,0,.8,0,2.4-.3,1.5-.4,3.8-1.3,5.7-3.6.9-1.1,1.7-2.6,2.1-4.4.2-.9.3-1.8.2-2.8,0-1,0-2,0-3.1,0-4.2,0-9.1,0-14.4,0-5.3,0-11.2,0-17.5,0-1.6,0-3.2,0-4.8,0-1.6,0-3.3-.4-4.8-.8-3.2-3.3-6-6.6-7.1-1.6-.6-3.4-.6-5.2-.6-1.8,0-3.6,0-5.5,0-3.7,0-7.5,0-11.3,0-7.7,0-15.7,0-23.8,0-2,0-3.9.6-5.6,1.7-1.6,1.1-3,2.6-3.7,4.4-.4.9-.7,1.8-.8,2.8-.1.9-.1,1.9-.1,2.9,0,2,0,3.9,0,5.8,0,7.7,0,15.1,0,22.2,0,3.5,0,7,0,10.3,0,1.7-.1,3.3.2,4.9.3,1.6,1,3,2,4.2,1.9,2.5,4.8,3.8,7.6,4,2.9,0,5.7,0,8.4,0,10.7,0,19.3,0,25.3,0,3,0,5.3,0,6.9,0,.8,0,1.4,0,1.8,0,.4,0,.6,0,.6,0,0,0-.2,0-.6,0-.4,0-1,0-1.8,0-1.6,0-3.9,0-6.9,0-6,0-14.6,0-25.3,0-2.7,0-5.5,0-8.4,0-3-.1-6-1.5-8-4.1-1-1.3-1.7-2.8-2.1-4.4-.4-1.6-.2-3.3-.2-5,0-3.3,0-6.8,0-10.3,0-7.1,0-14.5,0-22.2,0-1.9,0-3.9,0-5.8,0-1.9,0-4.1,1-5.9.8-1.9,2.2-3.5,4-4.6,1.7-1.1,3.8-1.7,5.9-1.8,8.2,0,16.1,0,23.8,0,3.8,0,7.6,0,11.3,0,1.8,0,3.7,0,5.5,0,1.8,0,3.7,0,5.4.6,3.4,1.2,6.1,4.1,6.9,7.4.5,1.7.4,3.4.4,5,0,1.6,0,3.2,0,4.8,0,6.3,0,12.1,0,17.5,0,5.3,0,10.2,0,14.4,0,1.1,0,2.1,0,3.1,0,1,0,2-.3,2.9-.4,1.8-1.2,3.3-2.2,4.5-2,2.3-4.3,3.2-5.8,3.5-.8.2-1.4.2-1.8.2-.4,0-.6,0-.6,0Z"/>
        <polygon class="cls-8" points="106.6 320 89 344.9 101.8 344.9 93.1 363.7 113.1 337.3 101.1 337.5 106.6 320"/>
      </g>
      <path class="cls-8" d="M187.5,306.8c0,.1-12.2,7.5-27.4,16.5-15.2,9-27.6,16.2-27.6,16.1,0-.1,12.2-7.5,27.4-16.5,15.2-9,27.6-16.2,27.6-16.1Z"/>
      <circle class="cls-8" cx="187.5" cy="306.9" r="2.2"/>
    </g>
    <g>
      <path class="cls-8" d="M337.9,374.9c0-.1,8.4,5.2,18.6,11.9,10.2,6.7,18.4,12.2,18.3,12.3,0,.1-8.4-5.2-18.6-11.9-10.2-6.7-18.4-12.2-18.3-12.3Z"/>
      <path class="cls-8" d="M337.1,372.8c1.1-.5,2.4,0,3,1,.5,1.1,0,2.4-1,3-1.1.5-2.4,0-3-1-.5-1.1,0-2.4,1-3Z"/>
      <g>
        <rect class="cls-8" x="420.9" y="366.1" width="14.5" height="62"/>
        <rect class="cls-8" x="397.8" y="379.5" width="14.5" height="48.6"/>
        <rect class="cls-8" x="374.3" y="395" width="14.5" height="33.2"/>
        <rect class="cls-8" x="444.7" y="386.6" width="14.5" height="41.5"/>
      </g>
    </g>
    <g>
      <g>
        <path class="cls-8" d="M401.1,42.4c-1.2-6.2-7-11.7-13.3-11.2-3.7.3-7.1,2.5-9.5,5.4-1,1.3-1.7,2.2-2.3,3.1-.5-1-1.1-1.9-2.1-3.3-2.2-3-5.5-5.4-9.2-5.9-6.3-.8-12.3,4.4-13.8,10.5-1.6,6.1.6,12.7,4.3,17.9,3.7,5.2,9.9,11.8,20.5,14.5,7.1-1.4,16.3-8.5,20.2-13.5,3.9-5,6.4-11.4,5.2-17.7Z"/>
        <path class="cls-12" d="M399.7,53.8s0,0-.2,0c-.2,0-.4,0-.6,0-.6,0-1.4,0-2.4,0-2.1,0-5,0-8.6-.2h.1c-.8,2.7-1.8,5.9-2.9,9.5l-.2.6-.2-.6c-1.4-4.4-3-9.4-4.7-14.7-.5-1.6-1-3.2-1.5-4.8h.4c-2.1,3.4-4.1,6.6-5.9,9.5h0c0,0-.1,0-.1,0-6.2-.2-11.5-.4-15.2-.5-1.8,0-3.3-.1-4.3-.2-.5,0-.9,0-1.1,0-.3,0-.4,0-.4,0,0,0,.1,0,.4,0,.3,0,.7,0,1.1,0,1,0,2.5,0,4.3,0,3.7,0,9,.2,15.2.3h-.2c1.8-2.8,3.8-6,5.9-9.4l.2-.4v.4c.6,1.6,1.1,3.2,1.7,4.8,1.7,5.3,3.2,10.2,4.7,14.7h-.4c1.1-3.6,2.1-6.8,3-9.6h0c0-.1.1-.1.1-.1,3.6.1,6.6.2,8.6.3,1,0,1.8,0,2.4.1.2,0,.4,0,.6,0,.1,0,.2,0,.2,0Z"/>
      </g>
      <path class="cls-8" d="M342.7,97.4s.2-.4.8-1.2c.6-.8,1.3-1.9,2.2-3.1,1.9-2.6,4.5-6.2,7.5-10.2,3-4,5.6-7.5,7.6-10.1.9-1.2,1.7-2.2,2.4-3,.6-.7.9-1.1.9-1.1,0,0-.2.4-.8,1.2-.6.8-1.3,1.9-2.2,3.1-1.9,2.6-4.5,6.2-7.5,10.2-3,4-5.6,7.5-7.6,10.1-.9,1.2-1.7,2.2-2.4,3-.6.7-.9,1.1-.9,1.1Z"/>
      <path class="cls-8" d="M340.6,98.1c-.5-1.1,0-2.4,1.2-2.9,1.1-.5,2.4,0,2.9,1.2.5,1.1,0,2.4-1.2,2.9-1.1.5-2.4,0-2.9-1.2Z"/>
    </g>
  </g>
  <g id="Background_Simple" data-name="Background Simple" class="cls-17">
    <path class="cls-10" d="M417.8,97.3l-2.2-3.6c-18.6-30.6-52.2-49.1-87.6-46.8-4.6.3-9.1.9-13.6,1.9-32.2,6.9-60.2,31.2-71.8,62.4-6.8,18.3-8.7,39.4-21.7,54-16.9,18.9-45.5,19.5-70.7,18.8-25.2-.8-53.8-.1-70.6,18.9-10.5,11.9-13.8,28.8-13,44.8,2.2,42.2,31.7,80,69.1,98.7,37.4,18.8,81.5,20.4,122.4,12.2,57.4-11.6,111.9-43.3,144.7-92.4,32.8-49.1,41.1-115.9,14.9-168.8Z"/>
    <circle class="cls-10" cx="381.5" cy="376.4" r="28.2" transform="translate(-51.6 692.1) rotate(-80.7)"/>
  </g>
  <g id="Floor">
    <path class="cls-9" d="M465.4,447.8c0,.1-96.4.3-215.4.3s-215.4-.1-215.4-.3,96.4-.3,215.4-.3,215.4.1,215.4.3Z"/>
  </g>
  <g id="Stats">
    <g>
      <circle class="cls-13" cx="90.4" cy="215.8" r="15.6" transform="translate(-126.1 127.1) rotate(-45)"/>
      <g>
        <path class="cls-11" d="M95.6,215.8c0,2.8-2.3,5.2-5.2,5.2s-5.2-2.3-5.2-5.2,2.3-5.2,5.2-5.2,5.2,2.3,5.2,5.2Z"/>
        <path class="cls-11" d="M95.6,215.8c0,0,0-.5-.3-1.2-.2-.8-.7-1.9-1.9-2.7-1.1-.9-2.9-1.3-4.7-.7-1.7.6-3.2,2.5-3.2,4.6,0,2.2,1.5,4,3.2,4.6,1.8.7,3.6.2,4.7-.7,1.1-.8,1.7-2,1.9-2.7.2-.8.2-1.2.3-1.2,0,0,0,.1,0,.3,0,.2,0,.5,0,1-.2.8-.7,2-1.9,3-1.2,1-3.1,1.5-5.1.8-1-.3-1.9-1-2.5-1.9-.7-.9-1-2-1.1-3.2,0-1.2.4-2.3,1.1-3.2.7-.9,1.6-1.5,2.5-1.9,1.9-.7,3.9-.1,5.1.8,1.2,1,1.7,2.2,1.9,3,0,.4.1.7,0,1,0,.2,0,.3,0,.3Z"/>
      </g>
      <circle class="cls-13" cx="169.3" cy="250.3" r="15.6" transform="translate(-111.6 361.6) rotate(-77.5)"/>
      <circle class="cls-13" cx="438.5" cy="118.5" r="15.6"/>
      <g>
        <circle class="cls-11" cx="438.5" cy="118.5" r="5.2"/>
        <path class="cls-11" d="M443.7,118.5c0,0,0-.5-.3-1.2-.2-.8-.7-1.9-1.9-2.7-1.1-.9-2.9-1.3-4.7-.7-1.7.6-3.2,2.5-3.2,4.6,0,2.2,1.5,4,3.2,4.6,1.8.7,3.6.2,4.7-.7,1.1-.8,1.7-2,1.9-2.7.2-.8.2-1.2.3-1.2,0,0,0,.1,0,.3,0,.2,0,.5,0,1-.2.8-.7,2-1.9,3-1.2,1-3.1,1.5-5.1.8-1-.3-1.9-1-2.5-1.9-.7-.9-1-2-1.1-3.2,0-1.2.4-2.3,1.1-3.2.7-.9,1.6-1.5,2.5-1.9,1.9-.7,3.9-.1,5.1.8,1.2,1,1.7,2.2,1.9,3,0,.4.1.7,0,1,0,.2,0,.3,0,.3Z"/>
      </g>
      <circle class="cls-13" cx="344.9" cy="189.4" r="15.6"/>
      <path class="cls-11" d="M46.4,253l-.9-.4c.2-.4,18.2-36.9,45.1-37,0,0,.1,0,.2,0,14.3,0,27.3,8.9,39.9,17.6,12.5,8.6,25.4,17.5,39.4,17.2,18.6-.3,30.4-23.6,41.8-46.1,11.8-23.3,24-47.4,44.2-47.8.3,0,.5,0,.8,0,12.3,0,21,6.1,31.1,13,13.4,9.3,28.6,19.8,57,19.1,21.8-.6,36.5-18.7,50.8-36.1,13.9-17.1,27.1-33.2,46-33.2v1c-18.4,0-31.5,15.9-45.2,32.8-14.4,17.7-29.3,35.9-51.6,36.5-28.7.8-44-9.9-57.6-19.2-10.1-7-18.9-13.1-31.3-12.9-19.5.4-31.6,24.2-43.3,47.3-11.6,22.8-23.5,46.3-42.7,46.7-14.3.3-27.3-8.7-39.9-17.4-12.4-8.6-25.3-17.4-39.4-17.4s0,0-.1,0c-26.3.1-44.1,36.1-44.3,36.5Z"/>
      <g>
        <path class="cls-11" d="M350.1,189.4c0,2.8-2.3,5.2-5.2,5.2s-5.2-2.3-5.2-5.2,2.3-5.2,5.2-5.2,5.2,2.3,5.2,5.2Z"/>
        <path class="cls-11" d="M350.1,189.4c0,0,0-.5-.3-1.2-.2-.8-.7-1.9-1.9-2.7-1.1-.9-2.9-1.3-4.7-.7-1.7.6-3.2,2.5-3.2,4.6,0,2.2,1.5,4,3.2,4.6,1.8.7,3.6.2,4.7-.7,1.1-.8,1.7-2,1.9-2.7.2-.8.2-1.2.3-1.2,0,0,0,.1,0,.3,0,.2,0,.5,0,1-.2.8-.7,2-1.9,3-1.2,1-3.1,1.5-5.1.8-1-.3-1.9-1-2.5-1.9-.7-.9-1-2-1.1-3.2,0-1.2.4-2.3,1.1-3.2.7-.9,1.6-1.5,2.5-1.9,1.9-.7,3.9-.1,5.1.8,1.2,1,1.7,2.2,1.9,3,0,.4.1.7,0,1,0,.2,0,.3,0,.3Z"/>
      </g>
      <g>
        <path class="cls-4" d="M51.7,108.7c0,.1-.2.3-.5.3s-.5-.1-.5-.3.2-.3.5-.3.5.1.5.3Z"/>
        <path class="cls-4" d="M55.7,108.7c0,.1-.4.3-1,.3s-1-.1-1-.3.4-.3,1-.3,1,.1,1,.3Z"/>
        <path class="cls-4" d="M59.7,108.7c0,.1-.4.3-1,.3s-1-.1-1-.3.4-.3,1-.3,1,.1,1,.3Z"/>
        <path class="cls-4" d="M63.7,108.7c0,.1-.4.3-1,.3s-1-.1-1-.3.4-.3,1-.3,1,.1,1,.3Z"/>
        <path class="cls-4" d="M67.7,108.7c0,.1-.4.3-1,.3s-1-.1-1-.3.4-.3,1-.3,1,.1,1,.3Z"/>
        <path class="cls-4" d="M71.6,108.7c0,.1-.4.3-1,.3s-1-.1-1-.3.4-.3,1-.3,1,.1,1,.3Z"/>
        <path class="cls-4" d="M75.6,108.7c0,.1-.4.3-1,.3s-1-.1-1-.3.4-.3,1-.3,1,.1,1,.3Z"/>
        <path class="cls-4" d="M79.6,108.7c0,.1-.4.3-1,.3s-1-.1-1-.3.4-.3,1-.3,1,.1,1,.3Z"/>
        <path class="cls-4" d="M83.6,108.7c0,.1-.4.3-1,.3s-1-.1-1-.3.4-.3,1-.3,1,.1,1,.3Z"/>
        <path class="cls-4" d="M87.6,108.7c0,.1-.4.3-1,.3s-1-.1-1-.3.4-.3,1-.3,1,.1,1,.3Z"/>
        <path class="cls-4" d="M91.6,108.7c0,.1-.4.3-1,.3s-1-.1-1-.3.4-.3,1-.3,1,.1,1,.3Z"/>
        <path class="cls-4" d="M95.5,108.7c0,.1-.4.3-1,.3s-1-.1-1-.3.4-.3,1-.3,1,.1,1,.3Z"/>
        <path class="cls-4" d="M99.5,108.7c0,.1-.4.3-1,.3s-1-.1-1-.3.4-.3,1-.3,1,.1,1,.3Z"/>
        <path class="cls-4" d="M103.5,108.7c0,.1-.4.3-1,.3s-1-.1-1-.3.4-.3,1-.3,1,.1,1,.3Z"/>
        <path class="cls-4" d="M107.5,108.7c0,.1-.4.3-1,.3s-1-.1-1-.3.4-.3,1-.3,1,.1,1,.3Z"/>
        <path class="cls-4" d="M111.5,108.7c0,.1-.4.3-1,.3s-1-.1-1-.3.4-.3,1-.3,1,.1,1,.3Z"/>
        <path class="cls-4" d="M115.5,108.7c0,.1-.4.3-1,.3s-1-.1-1-.3.4-.3,1-.3,1,.1,1,.3Z"/>
        <path class="cls-4" d="M119.4,108.7c0,.1-.4.3-1,.3s-1-.1-1-.3.4-.3,1-.3,1,.1,1,.3Z"/>
        <path class="cls-4" d="M123.4,108.7c0,.1-.4.3-1,.3s-1-.1-1-.3.4-.3,1-.3,1,.1,1,.3Z"/>
        <path class="cls-4" d="M127.4,108.7c0,.1-.4.3-1,.3s-1-.1-1-.3.4-.3,1-.3,1,.1,1,.3Z"/>
        <path class="cls-4" d="M131.4,108.7c0,.1-.4.3-1,.3s-1-.1-1-.3.4-.3,1-.3,1,.1,1,.3Z"/>
        <path class="cls-4" d="M135.4,108.7c0,.1-.4.3-1,.3s-1-.1-1-.3.4-.3,1-.3,1,.1,1,.3Z"/>
        <path class="cls-4" d="M139.4,108.7c0,.1-.4.3-1,.3s-1-.1-1-.3.4-.3,1-.3,1,.1,1,.3Z"/>
        <path class="cls-4" d="M143.4,108.7c0,.1-.4.3-1,.3s-1-.1-1-.3.4-.3,1-.3,1,.1,1,.3Z"/>
        <path class="cls-4" d="M147.3,108.7c0,.1-.4.3-1,.3s-1-.1-1-.3.4-.3,1-.3,1,.1,1,.3Z"/>
        <path class="cls-4" d="M151.3,108.7c0,.1-.4.3-1,.3s-1-.1-1-.3.4-.3,1-.3,1,.1,1,.3Z"/>
        <path class="cls-4" d="M155.3,108.7c0,.1-.4.3-1,.3s-1-.1-1-.3.4-.3,1-.3,1,.1,1,.3Z"/>
        <path class="cls-4" d="M159.3,108.7c0,.1-.4.3-1,.3s-1-.1-1-.3.4-.3,1-.3,1,.1,1,.3Z"/>
        <path class="cls-4" d="M163.3,108.7c0,.1-.4.3-1,.3s-1-.1-1-.3.4-.3,1-.3,1,.1,1,.3Z"/>
        <path class="cls-4" d="M167.3,108.7c0,.1-.4.3-1,.3s-1-.1-1-.3.4-.3,1-.3,1,.1,1,.3Z"/>
        <path class="cls-4" d="M171.2,108.7c0,.1-.4.3-1,.3s-1-.1-1-.3.4-.3,1-.3,1,.1,1,.3Z"/>
        <path class="cls-4" d="M175.2,108.7c0,.1-.4.3-1,.3s-1-.1-1-.3.4-.3,1-.3,1,.1,1,.3Z"/>
        <path class="cls-4" d="M179.2,108.7c0,.1-.4.3-1,.3s-1-.1-1-.3.4-.3,1-.3,1,.1,1,.3Z"/>
        <path class="cls-4" d="M183.2,108.7c0,.1-.4.3-1,.3s-1-.1-1-.3.4-.3,1-.3,1,.1,1,.3Z"/>
        <path class="cls-4" d="M187.2,108.7c0,.1-.4.3-1,.3s-1-.1-1-.3.4-.3,1-.3,1,.1,1,.3Z"/>
        <path class="cls-4" d="M191.2,108.7c0,.1-.4.3-1,.3s-1-.1-1-.3.4-.3,1-.3,1,.1,1,.3Z"/>
        <path class="cls-4" d="M195.1,108.7c0,.1-.4.3-1,.3s-1-.1-1-.3.4-.3,1-.3,1,.1,1,.3Z"/>
        <path class="cls-4" d="M199.1,108.7c0,.1-.4.3-1,.3s-1-.1-1-.3.4-.3,1-.3,1,.1,1,.3Z"/>
        <path class="cls-4" d="M203.1,108.7c0,.1-.4.3-1,.3s-1-.1-1-.3.4-.3,1-.3,1,.1,1,.3Z"/>
        <path class="cls-4" d="M207.1,108.7c0,.1-.4.3-1,.3s-1-.1-1-.3.4-.3,1-.3,1,.1,1,.3Z"/>
        <path class="cls-4" d="M211.1,108.7c0,.1-.4.3-1,.3s-1-.1-1-.3.4-.3,1-.3,1,.1,1,.3Z"/>
        <path class="cls-4" d="M215.1,108.7c0,.1-.4.3-1,.3s-1-.1-1-.3.4-.3,1-.3,1,.1,1,.3Z"/>
        <path class="cls-4" d="M219.1,108.7c0,.1-.4.3-1,.3s-1-.1-1-.3.4-.3,1-.3,1,.1,1,.3Z"/>
        <path class="cls-4" d="M223,108.7c0,.1-.4.3-1,.3s-1-.1-1-.3.4-.3,1-.3,1,.1,1,.3Z"/>
        <path class="cls-4" d="M227,108.7c0,.1-.4.3-1,.3s-1-.1-1-.3.4-.3,1-.3,1,.1,1,.3Z"/>
        <path class="cls-4" d="M231,108.7c0,.1-.4.3-1,.3s-1-.1-1-.3.4-.3,1-.3,1,.1,1,.3Z"/>
        <path class="cls-4" d="M235,108.7c0,.1-.4.3-1,.3s-1-.1-1-.3.4-.3,1-.3,1,.1,1,.3Z"/>
        <path class="cls-4" d="M239,108.7c0,.1-.4.3-1,.3s-1-.1-1-.3.4-.3,1-.3,1,.1,1,.3Z"/>
        <path class="cls-4" d="M243,108.7c0,.1-.4.3-1,.3s-1-.1-1-.3.4-.3,1-.3,1,.1,1,.3Z"/>
        <path class="cls-4" d="M246.9,108.7c0,.1-.4.3-1,.3s-1-.1-1-.3.4-.3,1-.3,1,.1,1,.3Z"/>
        <path class="cls-4" d="M250.9,108.7c0,.1-.4.3-1,.3s-1-.1-1-.3.4-.3,1-.3,1,.1,1,.3Z"/>
        <path class="cls-4" d="M254.9,108.7c0,.1-.4.3-1,.3s-1-.1-1-.3.4-.3,1-.3,1,.1,1,.3Z"/>
        <path class="cls-4" d="M258.9,108.7c0,.1-.4.3-1,.3s-1-.1-1-.3.4-.3,1-.3,1,.1,1,.3Z"/>
        <path class="cls-4" d="M262.9,108.7c0,.1-.4.3-1,.3s-1-.1-1-.3.4-.3,1-.3,1,.1,1,.3Z"/>
        <path class="cls-4" d="M266.9,108.7c0,.1-.4.3-1,.3s-1-.1-1-.3.4-.3,1-.3,1,.1,1,.3Z"/>
        <path class="cls-4" d="M270.8,108.7c0,.1-.4.3-1,.3s-1-.1-1-.3.4-.3,1-.3,1,.1,1,.3Z"/>
        <path class="cls-4" d="M274.8,108.7c0,.1-.4.3-1,.3s-1-.1-1-.3.4-.3,1-.3,1,.1,1,.3Z"/>
        <path class="cls-4" d="M278.8,108.7c0,.1-.4.3-1,.3s-1-.1-1-.3.4-.3,1-.3,1,.1,1,.3Z"/>
        <path class="cls-4" d="M282.8,108.7c0,.1-.4.3-1,.3s-1-.1-1-.3.4-.3,1-.3,1,.1,1,.3Z"/>
        <path class="cls-4" d="M286.8,108.7c0,.1-.4.3-1,.3s-1-.1-1-.3.4-.3,1-.3,1,.1,1,.3Z"/>
        <path class="cls-4" d="M290.8,108.7c0,.1-.4.3-1,.3s-1-.1-1-.3.4-.3,1-.3,1,.1,1,.3Z"/>
        <path class="cls-4" d="M294.8,108.7c0,.1-.4.3-1,.3s-1-.1-1-.3.4-.3,1-.3,1,.1,1,.3Z"/>
        <path class="cls-4" d="M298.7,108.7c0,.1-.4.3-1,.3s-1-.1-1-.3.4-.3,1-.3,1,.1,1,.3Z"/>
        <path class="cls-4" d="M302.7,108.7c0,.1-.4.3-1,.3s-1-.1-1-.3.4-.3,1-.3,1,.1,1,.3Z"/>
        <path class="cls-4" d="M306.7,108.7c0,.1-.4.3-1,.3s-1-.1-1-.3.4-.3,1-.3,1,.1,1,.3Z"/>
        <path class="cls-4" d="M310.7,108.7c0,.1-.4.3-1,.3s-1-.1-1-.3.4-.3,1-.3,1,.1,1,.3Z"/>
        <path class="cls-4" d="M314.7,108.7c0,.1-.4.3-1,.3s-1-.1-1-.3.4-.3,1-.3,1,.1,1,.3Z"/>
        <path class="cls-4" d="M318.7,108.7c0,.1-.4.3-1,.3s-1-.1-1-.3.4-.3,1-.3,1,.1,1,.3Z"/>
        <path class="cls-4" d="M322.6,108.7c0,.1-.4.3-1,.3s-1-.1-1-.3.4-.3,1-.3,1,.1,1,.3Z"/>
        <path class="cls-4" d="M326.6,108.7c0,.1-.4.3-1,.3s-1-.1-1-.3.4-.3,1-.3,1,.1,1,.3Z"/>
        <path class="cls-4" d="M330.6,108.7c0,.1-.4.3-1,.3s-1-.1-1-.3.4-.3,1-.3,1,.1,1,.3Z"/>
        <path class="cls-4" d="M334.6,108.7c0,.1-.4.3-1,.3s-1-.1-1-.3.4-.3,1-.3,1,.1,1,.3Z"/>
        <path class="cls-4" d="M338.6,108.7c0,.1-.4.3-1,.3s-1-.1-1-.3.4-.3,1-.3,1,.1,1,.3Z"/>
        <path class="cls-4" d="M342.6,108.7c0,.1-.4.3-1,.3s-1-.1-1-.3.4-.3,1-.3,1,.1,1,.3Z"/>
        <path class="cls-4" d="M346.5,108.7c0,.1-.4.3-1,.3s-1-.1-1-.3.4-.3,1-.3,1,.1,1,.3Z"/>
        <path class="cls-4" d="M350.5,108.7c0,.1-.4.3-1,.3s-1-.1-1-.3.4-.3,1-.3,1,.1,1,.3Z"/>
        <path class="cls-4" d="M354.5,108.7c0,.1-.4.3-1,.3s-1-.1-1-.3.4-.3,1-.3,1,.1,1,.3Z"/>
        <path class="cls-4" d="M358.5,108.7c0,.1-.4.3-1,.3s-1-.1-1-.3.4-.3,1-.3,1,.1,1,.3Z"/>
        <path class="cls-4" d="M362.5,108.7c0,.1-.4.3-1,.3s-1-.1-1-.3.4-.3,1-.3,1,.1,1,.3Z"/>
        <path class="cls-4" d="M366.5,108.7c0,.1-.4.3-1,.3s-1-.1-1-.3.4-.3,1-.3,1,.1,1,.3Z"/>
        <path class="cls-4" d="M370.5,108.7c0,.1-.4.3-1,.3s-1-.1-1-.3.4-.3,1-.3,1,.1,1,.3Z"/>
        <path class="cls-4" d="M374.4,108.7c0,.1-.4.3-1,.3s-1-.1-1-.3.4-.3,1-.3,1,.1,1,.3Z"/>
        <path class="cls-4" d="M378.4,108.7c0,.1-.4.3-1,.3s-1-.1-1-.3.4-.3,1-.3,1,.1,1,.3Z"/>
        <path class="cls-4" d="M382.4,108.7c0,.1-.4.3-1,.3s-1-.1-1-.3.4-.3,1-.3,1,.1,1,.3Z"/>
        <path class="cls-4" d="M386.4,108.7c0,.1-.4.3-1,.3s-1-.1-1-.3.4-.3,1-.3,1,.1,1,.3Z"/>
        <path class="cls-4" d="M390.4,108.7c0,.1-.4.3-1,.3s-1-.1-1-.3.4-.3,1-.3,1,.1,1,.3Z"/>
        <path class="cls-4" d="M394.4,108.7c0,.1-.4.3-1,.3s-1-.1-1-.3.4-.3,1-.3,1,.1,1,.3Z"/>
        <path class="cls-4" d="M398.3,108.7c0,.1-.4.3-1,.3s-1-.1-1-.3.4-.3,1-.3,1,.1,1,.3Z"/>
        <path class="cls-4" d="M402.3,108.7c0,.1-.4.3-1,.3s-1-.1-1-.3.4-.3,1-.3,1,.1,1,.3Z"/>
        <path class="cls-4" d="M406.3,108.7c0,.1-.4.3-1,.3s-1-.1-1-.3.4-.3,1-.3,1,.1,1,.3Z"/>
        <path class="cls-4" d="M410.3,108.7c0,.1-.4.3-1,.3s-1-.1-1-.3.4-.3,1-.3,1,.1,1,.3Z"/>
        <path class="cls-4" d="M414.3,108.7c0,.1-.4.3-1,.3s-1-.1-1-.3.4-.3,1-.3,1,.1,1,.3Z"/>
        <path class="cls-4" d="M418.3,108.7c0,.1-.4.3-1,.3s-1-.1-1-.3.4-.3,1-.3,1,.1,1,.3Z"/>
        <path class="cls-4" d="M422.2,108.7c0,.1-.4.3-1,.3s-1-.1-1-.3.4-.3,1-.3,1,.1,1,.3Z"/>
        <path class="cls-4" d="M426.2,108.7c0,.1-.4.3-1,.3s-1-.1-1-.3.4-.3,1-.3,1,.1,1,.3Z"/>
        <path class="cls-4" d="M430.2,108.7c0,.1-.4.3-1,.3s-1-.1-1-.3.4-.3,1-.3,1,.1,1,.3Z"/>
        <path class="cls-4" d="M434.2,108.7c0,.1-.4.3-1,.3s-1-.1-1-.3.4-.3,1-.3,1,.1,1,.3Z"/>
        <path class="cls-4" d="M438.2,108.7c0,.1-.4.3-1,.3s-1-.1-1-.3.4-.3,1-.3,1,.1,1,.3Z"/>
        <path class="cls-4" d="M442.2,108.7c0,.1-.4.3-1,.3s-1-.1-1-.3.4-.3,1-.3,1,.1,1,.3Z"/>
        <path class="cls-4" d="M446.2,108.7c0,.1-.4.3-1,.3s-1-.1-1-.3.4-.3,1-.3,1,.1,1,.3Z"/>
        <path class="cls-4" d="M449.1,108.7c0,.1-.2.3-.5.3s-.5-.1-.5-.3.2-.3.5-.3.5.1.5.3Z"/>
      </g>
      <g>
        <ellipse class="cls-4" cx="50.5" cy="153.8" rx=".5" ry=".3"/>
        <path class="cls-4" d="M55,153.8c0,.1-.4.3-1,.3s-1-.1-1-.3.4-.3,1-.3,1,.1,1,.3Z"/>
        <path class="cls-4" d="M59,153.8c0,.1-.4.3-1,.3s-1-.1-1-.3.4-.3,1-.3,1,.1,1,.3Z"/>
        <path class="cls-4" d="M63,153.8c0,.1-.4.3-1,.3s-1-.1-1-.3.4-.3,1-.3,1,.1,1,.3Z"/>
        <ellipse class="cls-4" cx="66" cy="153.8" rx="1" ry=".3"/>
        <path class="cls-4" d="M70.9,153.8c0,.1-.4.3-1,.3s-1-.1-1-.3.4-.3,1-.3,1,.1,1,.3Z"/>
        <path class="cls-4" d="M74.9,153.8c0,.1-.4.3-1,.3s-1-.1-1-.3.4-.3,1-.3,1,.1,1,.3Z"/>
        <path class="cls-4" d="M78.9,153.8c0,.1-.4.3-1,.3s-1-.1-1-.3.4-.3,1-.3,1,.1,1,.3Z"/>
        <path class="cls-4" d="M82.9,153.8c0,.1-.4.3-1,.3s-1-.1-1-.3.4-.3,1-.3,1,.1,1,.3Z"/>
        <path class="cls-4" d="M86.9,153.8c0,.1-.4.3-1,.3s-1-.1-1-.3.4-.3,1-.3,1,.1,1,.3Z"/>
        <path class="cls-4" d="M90.9,153.8c0,.1-.4.3-1,.3s-1-.1-1-.3.4-.3,1-.3,1,.1,1,.3Z"/>
        <path class="cls-4" d="M94.9,153.8c0,.1-.4.3-1,.3s-1-.1-1-.3.4-.3,1-.3,1,.1,1,.3Z"/>
        <path class="cls-4" d="M98.8,153.8c0,.1-.4.3-1,.3s-1-.1-1-.3.4-.3,1-.3,1,.1,1,.3Z"/>
        <path class="cls-4" d="M102.8,153.8c0,.1-.4.3-1,.3s-1-.1-1-.3.4-.3,1-.3,1,.1,1,.3Z"/>
        <path class="cls-4" d="M106.8,153.8c0,.1-.4.3-1,.3s-1-.1-1-.3.4-.3,1-.3,1,.1,1,.3Z"/>
        <path class="cls-4" d="M110.8,153.8c0,.1-.4.3-1,.3s-1-.1-1-.3.4-.3,1-.3,1,.1,1,.3Z"/>
        <path class="cls-4" d="M114.8,153.8c0,.1-.4.3-1,.3s-1-.1-1-.3.4-.3,1-.3,1,.1,1,.3Z"/>
        <path class="cls-4" d="M118.8,153.8c0,.1-.4.3-1,.3s-1-.1-1-.3.4-.3,1-.3,1,.1,1,.3Z"/>
        <path class="cls-4" d="M122.7,153.8c0,.1-.4.3-1,.3s-1-.1-1-.3.4-.3,1-.3,1,.1,1,.3Z"/>
        <path class="cls-4" d="M126.7,153.8c0,.1-.4.3-1,.3s-1-.1-1-.3.4-.3,1-.3,1,.1,1,.3Z"/>
        <path class="cls-4" d="M130.7,153.8c0,.1-.4.3-1,.3s-1-.1-1-.3.4-.3,1-.3,1,.1,1,.3Z"/>
        <path class="cls-4" d="M134.7,153.8c0,.1-.4.3-1,.3s-1-.1-1-.3.4-.3,1-.3,1,.1,1,.3Z"/>
        <path class="cls-4" d="M138.7,153.8c0,.1-.4.3-1,.3s-1-.1-1-.3.4-.3,1-.3,1,.1,1,.3Z"/>
        <path class="cls-4" d="M142.7,153.8c0,.1-.4.3-1,.3s-1-.1-1-.3.4-.3,1-.3,1,.1,1,.3Z"/>
        <path class="cls-4" d="M146.6,153.8c0,.1-.4.3-1,.3s-1-.1-1-.3.4-.3,1-.3,1,.1,1,.3Z"/>
        <path class="cls-4" d="M150.6,153.8c0,.1-.4.3-1,.3s-1-.1-1-.3.4-.3,1-.3,1,.1,1,.3Z"/>
        <path class="cls-4" d="M154.6,153.8c0,.1-.4.3-1,.3s-1-.1-1-.3.4-.3,1-.3,1,.1,1,.3Z"/>
        <path class="cls-4" d="M158.6,153.8c0,.1-.4.3-1,.3s-1-.1-1-.3.4-.3,1-.3,1,.1,1,.3Z"/>
        <path class="cls-4" d="M162.6,153.8c0,.1-.4.3-1,.3s-1-.1-1-.3.4-.3,1-.3,1,.1,1,.3Z"/>
        <path class="cls-4" d="M166.6,153.8c0,.1-.4.3-1,.3s-1-.1-1-.3.4-.3,1-.3,1,.1,1,.3Z"/>
        <path class="cls-4" d="M170.6,153.8c0,.1-.4.3-1,.3s-1-.1-1-.3.4-.3,1-.3,1,.1,1,.3Z"/>
        <path class="cls-4" d="M174.5,153.8c0,.1-.4.3-1,.3s-1-.1-1-.3.4-.3,1-.3,1,.1,1,.3Z"/>
        <path class="cls-4" d="M178.5,153.8c0,.1-.4.3-1,.3s-1-.1-1-.3.4-.3,1-.3,1,.1,1,.3Z"/>
        <path class="cls-4" d="M182.5,153.8c0,.1-.4.3-1,.3s-1-.1-1-.3.4-.3,1-.3,1,.1,1,.3Z"/>
        <path class="cls-4" d="M186.5,153.8c0,.1-.4.3-1,.3s-1-.1-1-.3.4-.3,1-.3,1,.1,1,.3Z"/>
        <path class="cls-4" d="M190.5,153.8c0,.1-.4.3-1,.3s-1-.1-1-.3.4-.3,1-.3,1,.1,1,.3Z"/>
        <path class="cls-4" d="M194.5,153.8c0,.1-.4.3-1,.3s-1-.1-1-.3.4-.3,1-.3,1,.1,1,.3Z"/>
        <path class="cls-4" d="M198.4,153.8c0,.1-.4.3-1,.3s-1-.1-1-.3.4-.3,1-.3,1,.1,1,.3Z"/>
        <path class="cls-4" d="M202.4,153.8c0,.1-.4.3-1,.3s-1-.1-1-.3.4-.3,1-.3,1,.1,1,.3Z"/>
        <path class="cls-4" d="M206.4,153.8c0,.1-.4.3-1,.3s-1-.1-1-.3.4-.3,1-.3,1,.1,1,.3Z"/>
        <path class="cls-4" d="M210.4,153.8c0,.1-.4.3-1,.3s-1-.1-1-.3.4-.3,1-.3,1,.1,1,.3Z"/>
        <path class="cls-4" d="M214.4,153.8c0,.1-.4.3-1,.3s-1-.1-1-.3.4-.3,1-.3,1,.1,1,.3Z"/>
        <path class="cls-4" d="M218.4,153.8c0,.1-.4.3-1,.3s-1-.1-1-.3.4-.3,1-.3,1,.1,1,.3Z"/>
        <path class="cls-4" d="M222.3,153.8c0,.1-.4.3-1,.3s-1-.1-1-.3.4-.3,1-.3,1,.1,1,.3Z"/>
        <path class="cls-4" d="M226.3,153.8c0,.1-.4.3-1,.3s-1-.1-1-.3.4-.3,1-.3,1,.1,1,.3Z"/>
        <path class="cls-4" d="M230.3,153.8c0,.1-.4.3-1,.3s-1-.1-1-.3.4-.3,1-.3,1,.1,1,.3Z"/>
        <path class="cls-4" d="M234.3,153.8c0,.1-.4.3-1,.3s-1-.1-1-.3.4-.3,1-.3,1,.1,1,.3Z"/>
        <path class="cls-4" d="M238.3,153.8c0,.1-.4.3-1,.3s-1-.1-1-.3.4-.3,1-.3,1,.1,1,.3Z"/>
        <path class="cls-4" d="M242.3,153.8c0,.1-.4.3-1,.3s-1-.1-1-.3.4-.3,1-.3,1,.1,1,.3Z"/>
        <path class="cls-4" d="M246.3,153.8c0,.1-.4.3-1,.3s-1-.1-1-.3.4-.3,1-.3,1,.1,1,.3Z"/>
        <path class="cls-4" d="M250.2,153.8c0,.1-.4.3-1,.3s-1-.1-1-.3.4-.3,1-.3,1,.1,1,.3Z"/>
        <path class="cls-4" d="M254.2,153.8c0,.1-.4.3-1,.3s-1-.1-1-.3.4-.3,1-.3,1,.1,1,.3Z"/>
        <path class="cls-4" d="M258.2,153.8c0,.1-.4.3-1,.3s-1-.1-1-.3.4-.3,1-.3,1,.1,1,.3Z"/>
        <path class="cls-4" d="M262.2,153.8c0,.1-.4.3-1,.3s-1-.1-1-.3.4-.3,1-.3,1,.1,1,.3Z"/>
        <path class="cls-4" d="M266.2,153.8c0,.1-.4.3-1,.3s-1-.1-1-.3.4-.3,1-.3,1,.1,1,.3Z"/>
        <path class="cls-4" d="M270.2,153.8c0,.1-.4.3-1,.3s-1-.1-1-.3.4-.3,1-.3,1,.1,1,.3Z"/>
        <path class="cls-4" d="M274.1,153.8c0,.1-.4.3-1,.3s-1-.1-1-.3.4-.3,1-.3,1,.1,1,.3Z"/>
        <path class="cls-4" d="M278.1,153.8c0,.1-.4.3-1,.3s-1-.1-1-.3.4-.3,1-.3,1,.1,1,.3Z"/>
        <path class="cls-4" d="M282.1,153.8c0,.1-.4.3-1,.3s-1-.1-1-.3.4-.3,1-.3,1,.1,1,.3Z"/>
        <path class="cls-4" d="M286.1,153.8c0,.1-.4.3-1,.3s-1-.1-1-.3.4-.3,1-.3,1,.1,1,.3Z"/>
        <path class="cls-4" d="M290.1,153.8c0,.1-.4.3-1,.3s-1-.1-1-.3.4-.3,1-.3,1,.1,1,.3Z"/>
        <path class="cls-4" d="M294.1,153.8c0,.1-.4.3-1,.3s-1-.1-1-.3.4-.3,1-.3,1,.1,1,.3Z"/>
        <path class="cls-4" d="M298,153.8c0,.1-.4.3-1,.3s-1-.1-1-.3.4-.3,1-.3,1,.1,1,.3Z"/>
        <path class="cls-4" d="M302,153.8c0,.1-.4.3-1,.3s-1-.1-1-.3.4-.3,1-.3,1,.1,1,.3Z"/>
        <path class="cls-4" d="M306,153.8c0,.1-.4.3-1,.3s-1-.1-1-.3.4-.3,1-.3,1,.1,1,.3Z"/>
        <path class="cls-4" d="M310,153.8c0,.1-.4.3-1,.3s-1-.1-1-.3.4-.3,1-.3,1,.1,1,.3Z"/>
        <path class="cls-4" d="M314,153.8c0,.1-.4.3-1,.3s-1-.1-1-.3.4-.3,1-.3,1,.1,1,.3Z"/>
        <ellipse class="cls-4" cx="317" cy="153.8" rx="1" ry=".3"/>
        <path class="cls-4" d="M322,153.8c0,.1-.4.3-1,.3s-1-.1-1-.3.4-.3,1-.3,1,.1,1,.3Z"/>
        <path class="cls-4" d="M325.9,153.8c0,.1-.4.3-1,.3s-1-.1-1-.3.4-.3,1-.3,1,.1,1,.3Z"/>
        <path class="cls-4" d="M329.9,153.8c0,.1-.4.3-1,.3s-1-.1-1-.3.4-.3,1-.3,1,.1,1,.3Z"/>
        <path class="cls-4" d="M333.9,153.8c0,.1-.4.3-1,.3s-1-.1-1-.3.4-.3,1-.3,1,.1,1,.3Z"/>
        <path class="cls-4" d="M337.9,153.8c0,.1-.4.3-1,.3s-1-.1-1-.3.4-.3,1-.3,1,.1,1,.3Z"/>
        <path class="cls-4" d="M341.9,153.8c0,.1-.4.3-1,.3s-1-.1-1-.3.4-.3,1-.3,1,.1,1,.3Z"/>
        <path class="cls-4" d="M345.9,153.8c0,.1-.4.3-1,.3s-1-.1-1-.3.4-.3,1-.3,1,.1,1,.3Z"/>
        <path class="cls-4" d="M349.8,153.8c0,.1-.4.3-1,.3s-1-.1-1-.3.4-.3,1-.3,1,.1,1,.3Z"/>
        <path class="cls-4" d="M353.8,153.8c0,.1-.4.3-1,.3s-1-.1-1-.3.4-.3,1-.3,1,.1,1,.3Z"/>
        <path class="cls-4" d="M357.8,153.8c0,.1-.4.3-1,.3s-1-.1-1-.3.4-.3,1-.3,1,.1,1,.3Z"/>
        <path class="cls-4" d="M361.8,153.8c0,.1-.4.3-1,.3s-1-.1-1-.3.4-.3,1-.3,1,.1,1,.3Z"/>
        <path class="cls-4" d="M365.8,153.8c0,.1-.4.3-1,.3s-1-.1-1-.3.4-.3,1-.3,1,.1,1,.3Z"/>
        <path class="cls-4" d="M369.8,153.8c0,.1-.4.3-1,.3s-1-.1-1-.3.4-.3,1-.3,1,.1,1,.3Z"/>
        <path class="cls-4" d="M373.7,153.8c0,.1-.4.3-1,.3s-1-.1-1-.3.4-.3,1-.3,1,.1,1,.3Z"/>
        <path class="cls-4" d="M377.7,153.8c0,.1-.4.3-1,.3s-1-.1-1-.3.4-.3,1-.3,1,.1,1,.3Z"/>
        <path class="cls-4" d="M381.7,153.8c0,.1-.4.3-1,.3s-1-.1-1-.3.4-.3,1-.3,1,.1,1,.3Z"/>
        <path class="cls-4" d="M385.7,153.8c0,.1-.4.3-1,.3s-1-.1-1-.3.4-.3,1-.3,1,.1,1,.3Z"/>
        <path class="cls-4" d="M389.7,153.8c0,.1-.4.3-1,.3s-1-.1-1-.3.4-.3,1-.3,1,.1,1,.3Z"/>
        <path class="cls-4" d="M393.7,153.8c0,.1-.4.3-1,.3s-1-.1-1-.3.4-.3,1-.3,1,.1,1,.3Z"/>
        <ellipse class="cls-4" cx="396.7" cy="153.8" rx="1" ry=".3"/>
        <path class="cls-4" d="M401.6,153.8c0,.1-.4.3-1,.3s-1-.1-1-.3.4-.3,1-.3,1,.1,1,.3Z"/>
        <path class="cls-4" d="M405.6,153.8c0,.1-.4.3-1,.3s-1-.1-1-.3.4-.3,1-.3,1,.1,1,.3Z"/>
        <path class="cls-4" d="M409.6,153.8c0,.1-.4.3-1,.3s-1-.1-1-.3.4-.3,1-.3,1,.1,1,.3Z"/>
        <path class="cls-4" d="M413.6,153.8c0,.1-.4.3-1,.3s-1-.1-1-.3.4-.3,1-.3,1,.1,1,.3Z"/>
        <path class="cls-4" d="M417.6,153.8c0,.1-.4.3-1,.3s-1-.1-1-.3.4-.3,1-.3,1,.1,1,.3Z"/>
        <path class="cls-4" d="M421.6,153.8c0,.1-.4.3-1,.3s-1-.1-1-.3.4-.3,1-.3,1,.1,1,.3Z"/>
        <path class="cls-4" d="M425.5,153.8c0,.1-.4.3-1,.3s-1-.1-1-.3.4-.3,1-.3,1,.1,1,.3Z"/>
        <path class="cls-4" d="M429.5,153.8c0,.1-.4.3-1,.3s-1-.1-1-.3.4-.3,1-.3,1,.1,1,.3Z"/>
        <path class="cls-4" d="M433.5,153.8c0,.1-.4.3-1,.3s-1-.1-1-.3.4-.3,1-.3,1,.1,1,.3Z"/>
        <path class="cls-4" d="M437.5,153.8c0,.1-.4.3-1,.3s-1-.1-1-.3.4-.3,1-.3,1,.1,1,.3Z"/>
        <path class="cls-4" d="M441.5,153.8c0,.1-.4.3-1,.3s-1-.1-1-.3.4-.3,1-.3,1,.1,1,.3Z"/>
        <path class="cls-4" d="M445.5,153.8c0,.1-.4.3-1,.3s-1-.1-1-.3.4-.3,1-.3,1,.1,1,.3Z"/>
        <ellipse class="cls-4" cx="448" cy="153.8" rx=".5" ry=".3"/>
      </g>
      <g>
        <path class="cls-4" d="M50.3,198.9c0,.1-.2.3-.5.3s-.5-.1-.5-.3.2-.3.5-.3.5.1.5.3Z"/>
        <path class="cls-4" d="M54.3,198.9c0,.1-.4.3-1,.3s-1-.1-1-.3.4-.3,1-.3,1,.1,1,.3Z"/>
        <path class="cls-4" d="M58.3,198.9c0,.1-.4.3-1,.3s-1-.1-1-.3.4-.3,1-.3,1,.1,1,.3Z"/>
        <path class="cls-4" d="M62.3,198.9c0,.1-.4.3-1,.3s-1-.1-1-.3.4-.3,1-.3,1,.1,1,.3Z"/>
        <path class="cls-4" d="M66.3,198.9c0,.1-.4.3-1,.3s-1-.1-1-.3.4-.3,1-.3,1,.1,1,.3Z"/>
        <path class="cls-4" d="M70.3,198.9c0,.1-.4.3-1,.3s-1-.1-1-.3.4-.3,1-.3,1,.1,1,.3Z"/>
        <path class="cls-4" d="M74.2,198.9c0,.1-.4.3-1,.3s-1-.1-1-.3.4-.3,1-.3,1,.1,1,.3Z"/>
        <path class="cls-4" d="M78.2,198.9c0,.1-.4.3-1,.3s-1-.1-1-.3.4-.3,1-.3,1,.1,1,.3Z"/>
        <path class="cls-4" d="M82.2,198.9c0,.1-.4.3-1,.3s-1-.1-1-.3.4-.3,1-.3,1,.1,1,.3Z"/>
        <path class="cls-4" d="M86.2,198.9c0,.1-.4.3-1,.3s-1-.1-1-.3.4-.3,1-.3,1,.1,1,.3Z"/>
        <path class="cls-4" d="M90.2,198.9c0,.1-.4.3-1,.3s-1-.1-1-.3.4-.3,1-.3,1,.1,1,.3Z"/>
        <path class="cls-4" d="M94.2,198.9c0,.1-.4.3-1,.3s-1-.1-1-.3.4-.3,1-.3,1,.1,1,.3Z"/>
        <path class="cls-4" d="M98.2,198.9c0,.1-.4.3-1,.3s-1-.1-1-.3.4-.3,1-.3,1,.1,1,.3Z"/>
        <path class="cls-4" d="M102.1,198.9c0,.1-.4.3-1,.3s-1-.1-1-.3.4-.3,1-.3,1,.1,1,.3Z"/>
        <path class="cls-4" d="M106.1,198.9c0,.1-.4.3-1,.3s-1-.1-1-.3.4-.3,1-.3,1,.1,1,.3Z"/>
        <path class="cls-4" d="M110.1,198.9c0,.1-.4.3-1,.3s-1-.1-1-.3.4-.3,1-.3,1,.1,1,.3Z"/>
        <path class="cls-4" d="M114.1,198.9c0,.1-.4.3-1,.3s-1-.1-1-.3.4-.3,1-.3,1,.1,1,.3Z"/>
        <path class="cls-4" d="M118.1,198.9c0,.1-.4.3-1,.3s-1-.1-1-.3.4-.3,1-.3,1,.1,1,.3Z"/>
        <path class="cls-4" d="M122.1,198.9c0,.1-.4.3-1,.3s-1-.1-1-.3.4-.3,1-.3,1,.1,1,.3Z"/>
        <path class="cls-4" d="M126,198.9c0,.1-.4.3-1,.3s-1-.1-1-.3.4-.3,1-.3,1,.1,1,.3Z"/>
        <path class="cls-4" d="M130,198.9c0,.1-.4.3-1,.3s-1-.1-1-.3.4-.3,1-.3,1,.1,1,.3Z"/>
        <path class="cls-4" d="M134,198.9c0,.1-.4.3-1,.3s-1-.1-1-.3.4-.3,1-.3,1,.1,1,.3Z"/>
        <path class="cls-4" d="M138,198.9c0,.1-.4.3-1,.3s-1-.1-1-.3.4-.3,1-.3,1,.1,1,.3Z"/>
        <path class="cls-4" d="M142,198.9c0,.1-.4.3-1,.3s-1-.1-1-.3.4-.3,1-.3,1,.1,1,.3Z"/>
        <path class="cls-4" d="M146,198.9c0,.1-.4.3-1,.3s-1-.1-1-.3.4-.3,1-.3,1,.1,1,.3Z"/>
        <path class="cls-4" d="M149.9,198.9c0,.1-.4.3-1,.3s-1-.1-1-.3.4-.3,1-.3,1,.1,1,.3Z"/>
        <path class="cls-4" d="M153.9,198.9c0,.1-.4.3-1,.3s-1-.1-1-.3.4-.3,1-.3,1,.1,1,.3Z"/>
        <path class="cls-4" d="M157.9,198.9c0,.1-.4.3-1,.3s-1-.1-1-.3.4-.3,1-.3,1,.1,1,.3Z"/>
        <path class="cls-4" d="M161.9,198.9c0,.1-.4.3-1,.3s-1-.1-1-.3.4-.3,1-.3,1,.1,1,.3Z"/>
        <path class="cls-4" d="M165.9,198.9c0,.1-.4.3-1,.3s-1-.1-1-.3.4-.3,1-.3,1,.1,1,.3Z"/>
        <path class="cls-4" d="M169.9,198.9c0,.1-.4.3-1,.3s-1-.1-1-.3.4-.3,1-.3,1,.1,1,.3Z"/>
        <path class="cls-4" d="M173.8,198.9c0,.1-.4.3-1,.3s-1-.1-1-.3.4-.3,1-.3,1,.1,1,.3Z"/>
        <path class="cls-4" d="M177.8,198.9c0,.1-.4.3-1,.3s-1-.1-1-.3.4-.3,1-.3,1,.1,1,.3Z"/>
        <path class="cls-4" d="M181.8,198.9c0,.1-.4.3-1,.3s-1-.1-1-.3.4-.3,1-.3,1,.1,1,.3Z"/>
        <path class="cls-4" d="M185.8,198.9c0,.1-.4.3-1,.3s-1-.1-1-.3.4-.3,1-.3,1,.1,1,.3Z"/>
        <path class="cls-4" d="M189.8,198.9c0,.1-.4.3-1,.3s-1-.1-1-.3.4-.3,1-.3,1,.1,1,.3Z"/>
        <path class="cls-4" d="M193.8,198.9c0,.1-.4.3-1,.3s-1-.1-1-.3.4-.3,1-.3,1,.1,1,.3Z"/>
        <path class="cls-4" d="M197.8,198.9c0,.1-.4.3-1,.3s-1-.1-1-.3.4-.3,1-.3,1,.1,1,.3Z"/>
        <path class="cls-4" d="M201.7,198.9c0,.1-.4.3-1,.3s-1-.1-1-.3.4-.3,1-.3,1,.1,1,.3Z"/>
        <ellipse class="cls-4" cx="204.7" cy="198.9" rx="1" ry=".3"/>
        <path class="cls-4" d="M209.7,198.9c0,.1-.4.3-1,.3s-1-.1-1-.3.4-.3,1-.3,1,.1,1,.3Z"/>
        <ellipse class="cls-4" cx="212.7" cy="198.9" rx="1" ry=".3"/>
        <path class="cls-4" d="M217.7,198.9c0,.1-.4.3-1,.3s-1-.1-1-.3.4-.3,1-.3,1,.1,1,.3Z"/>
        <path class="cls-4" d="M221.7,198.9c0,.1-.4.3-1,.3s-1-.1-1-.3.4-.3,1-.3,1,.1,1,.3Z"/>
        <path class="cls-4" d="M225.6,198.9c0,.1-.4.3-1,.3s-1-.1-1-.3.4-.3,1-.3,1,.1,1,.3Z"/>
        <path class="cls-4" d="M229.6,198.9c0,.1-.4.3-1,.3s-1-.1-1-.3.4-.3,1-.3,1,.1,1,.3Z"/>
        <path class="cls-4" d="M233.6,198.9c0,.1-.4.3-1,.3s-1-.1-1-.3.4-.3,1-.3,1,.1,1,.3Z"/>
        <path class="cls-4" d="M237.6,198.9c0,.1-.4.3-1,.3s-1-.1-1-.3.4-.3,1-.3,1,.1,1,.3Z"/>
        <path class="cls-4" d="M241.6,198.9c0,.1-.4.3-1,.3s-1-.1-1-.3.4-.3,1-.3,1,.1,1,.3Z"/>
        <path class="cls-4" d="M245.6,198.9c0,.1-.4.3-1,.3s-1-.1-1-.3.4-.3,1-.3,1,.1,1,.3Z"/>
        <path class="cls-4" d="M249.5,198.9c0,.1-.4.3-1,.3s-1-.1-1-.3.4-.3,1-.3,1,.1,1,.3Z"/>
        <path class="cls-4" d="M253.5,198.9c0,.1-.4.3-1,.3s-1-.1-1-.3.4-.3,1-.3,1,.1,1,.3Z"/>
        <path class="cls-4" d="M257.5,198.9c0,.1-.4.3-1,.3s-1-.1-1-.3.4-.3,1-.3,1,.1,1,.3Z"/>
        <path class="cls-4" d="M261.5,198.9c0,.1-.4.3-1,.3s-1-.1-1-.3.4-.3,1-.3,1,.1,1,.3Z"/>
        <path class="cls-4" d="M265.5,198.9c0,.1-.4.3-1,.3s-1-.1-1-.3.4-.3,1-.3,1,.1,1,.3Z"/>
        <path class="cls-4" d="M269.5,198.9c0,.1-.4.3-1,.3s-1-.1-1-.3.4-.3,1-.3,1,.1,1,.3Z"/>
        <path class="cls-4" d="M273.5,198.9c0,.1-.4.3-1,.3s-1-.1-1-.3.4-.3,1-.3,1,.1,1,.3Z"/>
        <path class="cls-4" d="M277.4,198.9c0,.1-.4.3-1,.3s-1-.1-1-.3.4-.3,1-.3,1,.1,1,.3Z"/>
        <path class="cls-4" d="M281.4,198.9c0,.1-.4.3-1,.3s-1-.1-1-.3.4-.3,1-.3,1,.1,1,.3Z"/>
        <path class="cls-4" d="M285.4,198.9c0,.1-.4.3-1,.3s-1-.1-1-.3.4-.3,1-.3,1,.1,1,.3Z"/>
        <path class="cls-4" d="M289.4,198.9c0,.1-.4.3-1,.3s-1-.1-1-.3.4-.3,1-.3,1,.1,1,.3Z"/>
        <ellipse class="cls-4" cx="292.4" cy="198.9" rx="1" ry=".3"/>
        <path class="cls-4" d="M297.4,198.9c0,.1-.4.3-1,.3s-1-.1-1-.3.4-.3,1-.3,1,.1,1,.3Z"/>
        <path class="cls-4" d="M301.3,198.9c0,.1-.4.3-1,.3s-1-.1-1-.3.4-.3,1-.3,1,.1,1,.3Z"/>
        <path class="cls-4" d="M305.3,198.9c0,.1-.4.3-1,.3s-1-.1-1-.3.4-.3,1-.3,1,.1,1,.3Z"/>
        <path class="cls-4" d="M309.3,198.9c0,.1-.4.3-1,.3s-1-.1-1-.3.4-.3,1-.3,1,.1,1,.3Z"/>
        <path class="cls-4" d="M313.3,198.9c0,.1-.4.3-1,.3s-1-.1-1-.3.4-.3,1-.3,1,.1,1,.3Z"/>
        <path class="cls-4" d="M317.3,198.9c0,.1-.4.3-1,.3s-1-.1-1-.3.4-.3,1-.3,1,.1,1,.3Z"/>
        <path class="cls-4" d="M321.3,198.9c0,.1-.4.3-1,.3s-1-.1-1-.3.4-.3,1-.3,1,.1,1,.3Z"/>
        <path class="cls-4" d="M325.2,198.9c0,.1-.4.3-1,.3s-1-.1-1-.3.4-.3,1-.3,1,.1,1,.3Z"/>
        <path class="cls-4" d="M329.2,198.9c0,.1-.4.3-1,.3s-1-.1-1-.3.4-.3,1-.3,1,.1,1,.3Z"/>
        <path class="cls-4" d="M333.2,198.9c0,.1-.4.3-1,.3s-1-.1-1-.3.4-.3,1-.3,1,.1,1,.3Z"/>
        <path class="cls-4" d="M337.2,198.9c0,.1-.4.3-1,.3s-1-.1-1-.3.4-.3,1-.3,1,.1,1,.3Z"/>
        <path class="cls-4" d="M341.2,198.9c0,.1-.4.3-1,.3s-1-.1-1-.3.4-.3,1-.3,1,.1,1,.3Z"/>
        <path class="cls-4" d="M345.2,198.9c0,.1-.4.3-1,.3s-1-.1-1-.3.4-.3,1-.3,1,.1,1,.3Z"/>
        <path class="cls-4" d="M349.2,198.9c0,.1-.4.3-1,.3s-1-.1-1-.3.4-.3,1-.3,1,.1,1,.3Z"/>
        <path class="cls-4" d="M353.1,198.9c0,.1-.4.3-1,.3s-1-.1-1-.3.4-.3,1-.3,1,.1,1,.3Z"/>
        <path class="cls-4" d="M357.1,198.9c0,.1-.4.3-1,.3s-1-.1-1-.3.4-.3,1-.3,1,.1,1,.3Z"/>
        <path class="cls-4" d="M361.1,198.9c0,.1-.4.3-1,.3s-1-.1-1-.3.4-.3,1-.3,1,.1,1,.3Z"/>
        <path class="cls-4" d="M365.1,198.9c0,.1-.4.3-1,.3s-1-.1-1-.3.4-.3,1-.3,1,.1,1,.3Z"/>
        <path class="cls-4" d="M369.1,198.9c0,.1-.4.3-1,.3s-1-.1-1-.3.4-.3,1-.3,1,.1,1,.3Z"/>
        <ellipse class="cls-4" cx="372.1" cy="198.9" rx="1" ry=".3"/>
        <path class="cls-4" d="M377,198.9c0,.1-.4.3-1,.3s-1-.1-1-.3.4-.3,1-.3,1,.1,1,.3Z"/>
        <path class="cls-4" d="M381,198.9c0,.1-.4.3-1,.3s-1-.1-1-.3.4-.3,1-.3,1,.1,1,.3Z"/>
        <path class="cls-4" d="M385,198.9c0,.1-.4.3-1,.3s-1-.1-1-.3.4-.3,1-.3,1,.1,1,.3Z"/>
        <path class="cls-4" d="M389,198.9c0,.1-.4.3-1,.3s-1-.1-1-.3.4-.3,1-.3,1,.1,1,.3Z"/>
        <path class="cls-4" d="M393,198.9c0,.1-.4.3-1,.3s-1-.1-1-.3.4-.3,1-.3,1,.1,1,.3Z"/>
        <path class="cls-4" d="M397,198.9c0,.1-.4.3-1,.3s-1-.1-1-.3.4-.3,1-.3,1,.1,1,.3Z"/>
        <path class="cls-4" d="M400.9,198.9c0,.1-.4.3-1,.3s-1-.1-1-.3.4-.3,1-.3,1,.1,1,.3Z"/>
        <path class="cls-4" d="M404.9,198.9c0,.1-.4.3-1,.3s-1-.1-1-.3.4-.3,1-.3,1,.1,1,.3Z"/>
        <path class="cls-4" d="M408.9,198.9c0,.1-.4.3-1,.3s-1-.1-1-.3.4-.3,1-.3,1,.1,1,.3Z"/>
        <path class="cls-4" d="M412.9,198.9c0,.1-.4.3-1,.3s-1-.1-1-.3.4-.3,1-.3,1,.1,1,.3Z"/>
        <path class="cls-4" d="M416.9,198.9c0,.1-.4.3-1,.3s-1-.1-1-.3.4-.3,1-.3,1,.1,1,.3Z"/>
        <path class="cls-4" d="M420.9,198.9c0,.1-.4.3-1,.3s-1-.1-1-.3.4-.3,1-.3,1,.1,1,.3Z"/>
        <path class="cls-4" d="M424.9,198.9c0,.1-.4.3-1,.3s-1-.1-1-.3.4-.3,1-.3,1,.1,1,.3Z"/>
        <path class="cls-4" d="M428.8,198.9c0,.1-.4.3-1,.3s-1-.1-1-.3.4-.3,1-.3,1,.1,1,.3Z"/>
        <path class="cls-4" d="M432.8,198.9c0,.1-.4.3-1,.3s-1-.1-1-.3.4-.3,1-.3,1,.1,1,.3Z"/>
        <path class="cls-4" d="M436.8,198.9c0,.1-.4.3-1,.3s-1-.1-1-.3.4-.3,1-.3,1,.1,1,.3Z"/>
        <path class="cls-4" d="M440.8,198.9c0,.1-.4.3-1,.3s-1-.1-1-.3.4-.3,1-.3,1,.1,1,.3Z"/>
        <path class="cls-4" d="M444.8,198.9c0,.1-.4.3-1,.3s-1-.1-1-.3.4-.3,1-.3,1,.1,1,.3Z"/>
        <ellipse class="cls-4" cx="447.3" cy="198.9" rx=".5" ry=".3"/>
      </g>
      <g>
        <path class="cls-4" d="M49.7,244c0,.1-.2.3-.5.3s-.5-.1-.5-.3.2-.3.5-.3.5.1.5.3Z"/>
        <path class="cls-4" d="M53.6,244c0,.1-.4.3-1,.3s-1-.1-1-.3.4-.3,1-.3,1,.1,1,.3Z"/>
        <path class="cls-4" d="M57.6,244c0,.1-.4.3-1,.3s-1-.1-1-.3.4-.3,1-.3,1,.1,1,.3Z"/>
        <path class="cls-4" d="M61.6,244c0,.1-.4.3-1,.3s-1-.1-1-.3.4-.3,1-.3,1,.1,1,.3Z"/>
        <path class="cls-4" d="M65.6,244c0,.1-.4.3-1,.3s-1-.1-1-.3.4-.3,1-.3,1,.1,1,.3Z"/>
        <path class="cls-4" d="M69.6,244c0,.1-.4.3-1,.3s-1-.1-1-.3.4-.3,1-.3,1,.1,1,.3Z"/>
        <path class="cls-4" d="M73.6,244c0,.1-.4.3-1,.3s-1-.1-1-.3.4-.3,1-.3,1,.1,1,.3Z"/>
        <path class="cls-4" d="M77.5,244c0,.1-.4.3-1,.3s-1-.1-1-.3.4-.3,1-.3,1,.1,1,.3Z"/>
        <path class="cls-4" d="M81.5,244c0,.1-.4.3-1,.3s-1-.1-1-.3.4-.3,1-.3,1,.1,1,.3Z"/>
        <path class="cls-4" d="M85.5,244c0,.1-.4.3-1,.3s-1-.1-1-.3.4-.3,1-.3,1,.1,1,.3Z"/>
        <path class="cls-4" d="M89.5,244c0,.1-.4.3-1,.3s-1-.1-1-.3.4-.3,1-.3,1,.1,1,.3Z"/>
        <path class="cls-4" d="M93.5,244c0,.1-.4.3-1,.3s-1-.1-1-.3.4-.3,1-.3,1,.1,1,.3Z"/>
        <path class="cls-4" d="M97.5,244c0,.1-.4.3-1,.3s-1-.1-1-.3.4-.3,1-.3,1,.1,1,.3Z"/>
        <path class="cls-4" d="M101.4,244c0,.1-.4.3-1,.3s-1-.1-1-.3.4-.3,1-.3,1,.1,1,.3Z"/>
        <path class="cls-4" d="M105.4,244c0,.1-.4.3-1,.3s-1-.1-1-.3.4-.3,1-.3,1,.1,1,.3Z"/>
        <path class="cls-4" d="M109.4,244c0,.1-.4.3-1,.3s-1-.1-1-.3.4-.3,1-.3,1,.1,1,.3Z"/>
        <path class="cls-4" d="M113.4,244c0,.1-.4.3-1,.3s-1-.1-1-.3.4-.3,1-.3,1,.1,1,.3Z"/>
        <path class="cls-4" d="M117.4,244c0,.1-.4.3-1,.3s-1-.1-1-.3.4-.3,1-.3,1,.1,1,.3Z"/>
        <path class="cls-4" d="M121.4,244c0,.1-.4.3-1,.3s-1-.1-1-.3.4-.3,1-.3,1,.1,1,.3Z"/>
        <path class="cls-4" d="M125.4,244c0,.1-.4.3-1,.3s-1-.1-1-.3.4-.3,1-.3,1,.1,1,.3Z"/>
        <path class="cls-4" d="M129.3,244c0,.1-.4.3-1,.3s-1-.1-1-.3.4-.3,1-.3,1,.1,1,.3Z"/>
        <path class="cls-4" d="M133.3,244c0,.1-.4.3-1,.3s-1-.1-1-.3.4-.3,1-.3,1,.1,1,.3Z"/>
        <path class="cls-4" d="M137.3,244c0,.1-.4.3-1,.3s-1-.1-1-.3.4-.3,1-.3,1,.1,1,.3Z"/>
        <path class="cls-4" d="M141.3,244c0,.1-.4.3-1,.3s-1-.1-1-.3.4-.3,1-.3,1,.1,1,.3Z"/>
        <path class="cls-4" d="M145.3,244c0,.1-.4.3-1,.3s-1-.1-1-.3.4-.3,1-.3,1,.1,1,.3Z"/>
        <path class="cls-4" d="M149.3,244c0,.1-.4.3-1,.3s-1-.1-1-.3.4-.3,1-.3,1,.1,1,.3Z"/>
        <path class="cls-4" d="M153.2,244c0,.1-.4.3-1,.3s-1-.1-1-.3.4-.3,1-.3,1,.1,1,.3Z"/>
        <path class="cls-4" d="M157.2,244c0,.1-.4.3-1,.3s-1-.1-1-.3.4-.3,1-.3,1,.1,1,.3Z"/>
        <path class="cls-4" d="M161.2,244c0,.1-.4.3-1,.3s-1-.1-1-.3.4-.3,1-.3,1,.1,1,.3Z"/>
        <path class="cls-4" d="M165.2,244c0,.1-.4.3-1,.3s-1-.1-1-.3.4-.3,1-.3,1,.1,1,.3Z"/>
        <path class="cls-4" d="M169.2,244c0,.1-.4.3-1,.3s-1-.1-1-.3.4-.3,1-.3,1,.1,1,.3Z"/>
        <path class="cls-4" d="M173.2,244c0,.1-.4.3-1,.3s-1-.1-1-.3.4-.3,1-.3,1,.1,1,.3Z"/>
        <path class="cls-4" d="M177.1,244c0,.1-.4.3-1,.3s-1-.1-1-.3.4-.3,1-.3,1,.1,1,.3Z"/>
        <path class="cls-4" d="M181.1,244c0,.1-.4.3-1,.3s-1-.1-1-.3.4-.3,1-.3,1,.1,1,.3Z"/>
        <path class="cls-4" d="M185.1,244c0,.1-.4.3-1,.3s-1-.1-1-.3.4-.3,1-.3,1,.1,1,.3Z"/>
        <path class="cls-4" d="M189.1,244c0,.1-.4.3-1,.3s-1-.1-1-.3.4-.3,1-.3,1,.1,1,.3Z"/>
        <path class="cls-4" d="M193.1,244c0,.1-.4.3-1,.3s-1-.1-1-.3.4-.3,1-.3,1,.1,1,.3Z"/>
        <path class="cls-4" d="M197.1,244c0,.1-.4.3-1,.3s-1-.1-1-.3.4-.3,1-.3,1,.1,1,.3Z"/>
        <path class="cls-4" d="M201.1,244c0,.1-.4.3-1,.3s-1-.1-1-.3.4-.3,1-.3,1,.1,1,.3Z"/>
        <path class="cls-4" d="M205,244c0,.1-.4.3-1,.3s-1-.1-1-.3.4-.3,1-.3,1,.1,1,.3Z"/>
        <path class="cls-4" d="M209,244c0,.1-.4.3-1,.3s-1-.1-1-.3.4-.3,1-.3,1,.1,1,.3Z"/>
        <path class="cls-4" d="M213,244c0,.1-.4.3-1,.3s-1-.1-1-.3.4-.3,1-.3,1,.1,1,.3Z"/>
        <path class="cls-4" d="M217,244c0,.1-.4.3-1,.3s-1-.1-1-.3.4-.3,1-.3,1,.1,1,.3Z"/>
        <path class="cls-4" d="M221,244c0,.1-.4.3-1,.3s-1-.1-1-.3.4-.3,1-.3,1,.1,1,.3Z"/>
        <path class="cls-4" d="M225,244c0,.1-.4.3-1,.3s-1-.1-1-.3.4-.3,1-.3,1,.1,1,.3Z"/>
        <path class="cls-4" d="M228.9,244c0,.1-.4.3-1,.3s-1-.1-1-.3.4-.3,1-.3,1,.1,1,.3Z"/>
        <path class="cls-4" d="M232.9,244c0,.1-.4.3-1,.3s-1-.1-1-.3.4-.3,1-.3,1,.1,1,.3Z"/>
        <path class="cls-4" d="M236.9,244c0,.1-.4.3-1,.3s-1-.1-1-.3.4-.3,1-.3,1,.1,1,.3Z"/>
        <path class="cls-4" d="M240.9,244c0,.1-.4.3-1,.3s-1-.1-1-.3.4-.3,1-.3,1,.1,1,.3Z"/>
        <path class="cls-4" d="M244.9,244c0,.1-.4.3-1,.3s-1-.1-1-.3.4-.3,1-.3,1,.1,1,.3Z"/>
        <path class="cls-4" d="M248.9,244c0,.1-.4.3-1,.3s-1-.1-1-.3.4-.3,1-.3,1,.1,1,.3Z"/>
        <path class="cls-4" d="M252.8,244c0,.1-.4.3-1,.3s-1-.1-1-.3.4-.3,1-.3,1,.1,1,.3Z"/>
        <path class="cls-4" d="M256.8,244c0,.1-.4.3-1,.3s-1-.1-1-.3.4-.3,1-.3,1,.1,1,.3Z"/>
        <path class="cls-4" d="M260.8,244c0,.1-.4.3-1,.3s-1-.1-1-.3.4-.3,1-.3,1,.1,1,.3Z"/>
        <path class="cls-4" d="M264.8,244c0,.1-.4.3-1,.3s-1-.1-1-.3.4-.3,1-.3,1,.1,1,.3Z"/>
        <path class="cls-4" d="M268.8,244c0,.1-.4.3-1,.3s-1-.1-1-.3.4-.3,1-.3,1,.1,1,.3Z"/>
        <path class="cls-4" d="M272.8,244c0,.1-.4.3-1,.3s-1-.1-1-.3.4-.3,1-.3,1,.1,1,.3Z"/>
        <path class="cls-4" d="M276.8,244c0,.1-.4.3-1,.3s-1-.1-1-.3.4-.3,1-.3,1,.1,1,.3Z"/>
        <path class="cls-4" d="M280.7,244c0,.1-.4.3-1,.3s-1-.1-1-.3.4-.3,1-.3,1,.1,1,.3Z"/>
        <path class="cls-4" d="M284.7,244c0,.1-.4.3-1,.3s-1-.1-1-.3.4-.3,1-.3,1,.1,1,.3Z"/>
        <path class="cls-4" d="M288.7,244c0,.1-.4.3-1,.3s-1-.1-1-.3.4-.3,1-.3,1,.1,1,.3Z"/>
        <path class="cls-4" d="M292.7,244c0,.1-.4.3-1,.3s-1-.1-1-.3.4-.3,1-.3,1,.1,1,.3Z"/>
        <path class="cls-4" d="M296.7,244c0,.1-.4.3-1,.3s-1-.1-1-.3.4-.3,1-.3,1,.1,1,.3Z"/>
        <path class="cls-4" d="M300.7,244c0,.1-.4.3-1,.3s-1-.1-1-.3.4-.3,1-.3,1,.1,1,.3Z"/>
        <path class="cls-4" d="M304.6,244c0,.1-.4.3-1,.3s-1-.1-1-.3.4-.3,1-.3,1,.1,1,.3Z"/>
        <path class="cls-4" d="M308.6,244c0,.1-.4.3-1,.3s-1-.1-1-.3.4-.3,1-.3,1,.1,1,.3Z"/>
        <path class="cls-4" d="M312.6,244c0,.1-.4.3-1,.3s-1-.1-1-.3.4-.3,1-.3,1,.1,1,.3Z"/>
        <path class="cls-4" d="M316.6,244c0,.1-.4.3-1,.3s-1-.1-1-.3.4-.3,1-.3,1,.1,1,.3Z"/>
        <path class="cls-4" d="M320.6,244c0,.1-.4.3-1,.3s-1-.1-1-.3.4-.3,1-.3,1,.1,1,.3Z"/>
        <path class="cls-4" d="M324.6,244c0,.1-.4.3-1,.3s-1-.1-1-.3.4-.3,1-.3,1,.1,1,.3Z"/>
        <path class="cls-4" d="M328.5,244c0,.1-.4.3-1,.3s-1-.1-1-.3.4-.3,1-.3,1,.1,1,.3Z"/>
        <path class="cls-4" d="M332.5,244c0,.1-.4.3-1,.3s-1-.1-1-.3.4-.3,1-.3,1,.1,1,.3Z"/>
        <path class="cls-4" d="M336.5,244c0,.1-.4.3-1,.3s-1-.1-1-.3.4-.3,1-.3,1,.1,1,.3Z"/>
        <path class="cls-4" d="M340.5,244c0,.1-.4.3-1,.3s-1-.1-1-.3.4-.3,1-.3,1,.1,1,.3Z"/>
        <path class="cls-4" d="M344.5,244c0,.1-.4.3-1,.3s-1-.1-1-.3.4-.3,1-.3,1,.1,1,.3Z"/>
        <path class="cls-4" d="M348.5,244c0,.1-.4.3-1,.3s-1-.1-1-.3.4-.3,1-.3,1,.1,1,.3Z"/>
        <path class="cls-4" d="M352.4,244c0,.1-.4.3-1,.3s-1-.1-1-.3.4-.3,1-.3,1,.1,1,.3Z"/>
        <path class="cls-4" d="M356.4,244c0,.1-.4.3-1,.3s-1-.1-1-.3.4-.3,1-.3,1,.1,1,.3Z"/>
        <path class="cls-4" d="M360.4,244c0,.1-.4.3-1,.3s-1-.1-1-.3.4-.3,1-.3,1,.1,1,.3Z"/>
        <path class="cls-4" d="M364.4,244c0,.1-.4.3-1,.3s-1-.1-1-.3.4-.3,1-.3,1,.1,1,.3Z"/>
        <path class="cls-4" d="M368.4,244c0,.1-.4.3-1,.3s-1-.1-1-.3.4-.3,1-.3,1,.1,1,.3Z"/>
        <path class="cls-4" d="M372.4,244c0,.1-.4.3-1,.3s-1-.1-1-.3.4-.3,1-.3,1,.1,1,.3Z"/>
        <path class="cls-4" d="M376.4,244c0,.1-.4.3-1,.3s-1-.1-1-.3.4-.3,1-.3,1,.1,1,.3Z"/>
        <path class="cls-4" d="M380.3,244c0,.1-.4.3-1,.3s-1-.1-1-.3.4-.3,1-.3,1,.1,1,.3Z"/>
        <path class="cls-4" d="M384.3,244c0,.1-.4.3-1,.3s-1-.1-1-.3.4-.3,1-.3,1,.1,1,.3Z"/>
        <path class="cls-4" d="M388.3,244c0,.1-.4.3-1,.3s-1-.1-1-.3.4-.3,1-.3,1,.1,1,.3Z"/>
        <path class="cls-4" d="M392.3,244c0,.1-.4.3-1,.3s-1-.1-1-.3.4-.3,1-.3,1,.1,1,.3Z"/>
        <path class="cls-4" d="M396.3,244c0,.1-.4.3-1,.3s-1-.1-1-.3.4-.3,1-.3,1,.1,1,.3Z"/>
        <path class="cls-4" d="M400.3,244c0,.1-.4.3-1,.3s-1-.1-1-.3.4-.3,1-.3,1,.1,1,.3Z"/>
        <path class="cls-4" d="M404.2,244c0,.1-.4.3-1,.3s-1-.1-1-.3.4-.3,1-.3,1,.1,1,.3Z"/>
        <path class="cls-4" d="M408.2,244c0,.1-.4.3-1,.3s-1-.1-1-.3.4-.3,1-.3,1,.1,1,.3Z"/>
        <path class="cls-4" d="M412.2,244c0,.1-.4.3-1,.3s-1-.1-1-.3.4-.3,1-.3,1,.1,1,.3Z"/>
        <path class="cls-4" d="M416.2,244c0,.1-.4.3-1,.3s-1-.1-1-.3.4-.3,1-.3,1,.1,1,.3Z"/>
        <path class="cls-4" d="M420.2,244c0,.1-.4.3-1,.3s-1-.1-1-.3.4-.3,1-.3,1,.1,1,.3Z"/>
        <path class="cls-4" d="M424.2,244c0,.1-.4.3-1,.3s-1-.1-1-.3.4-.3,1-.3,1,.1,1,.3Z"/>
        <path class="cls-4" d="M428.1,244c0,.1-.4.3-1,.3s-1-.1-1-.3.4-.3,1-.3,1,.1,1,.3Z"/>
        <path class="cls-4" d="M432.1,244c0,.1-.4.3-1,.3s-1-.1-1-.3.4-.3,1-.3,1,.1,1,.3Z"/>
        <path class="cls-4" d="M436.1,244c0,.1-.4.3-1,.3s-1-.1-1-.3.4-.3,1-.3,1,.1,1,.3Z"/>
        <path class="cls-4" d="M440.1,244c0,.1-.4.3-1,.3s-1-.1-1-.3.4-.3,1-.3,1,.1,1,.3Z"/>
        <path class="cls-4" d="M444.1,244c0,.1-.4.3-1,.3s-1-.1-1-.3.4-.3,1-.3,1,.1,1,.3Z"/>
        <path class="cls-4" d="M447.1,244c0,.1-.2.3-.5.3s-.5-.1-.5-.3.2-.3.5-.3.5.1.5.3Z"/>
      </g>
      <g>
        <path class="cls-4" d="M49,289c0,.1-.2.3-.5.3s-.5-.1-.5-.3.2-.3.5-.3.5.1.5.3Z"/>
        <path class="cls-4" d="M52.9,289c0,.1-.4.3-1,.3s-1-.1-1-.3.4-.3,1-.3,1,.1,1,.3Z"/>
        <path class="cls-4" d="M56.9,289c0,.1-.4.3-1,.3s-1-.1-1-.3.4-.3,1-.3,1,.1,1,.3Z"/>
        <path class="cls-4" d="M60.9,289c0,.1-.4.3-1,.3s-1-.1-1-.3.4-.3,1-.3,1,.1,1,.3Z"/>
        <path class="cls-4" d="M64.9,289c0,.1-.4.3-1,.3s-1-.1-1-.3.4-.3,1-.3,1,.1,1,.3Z"/>
        <path class="cls-4" d="M68.9,289c0,.1-.4.3-1,.3s-1-.1-1-.3.4-.3,1-.3,1,.1,1,.3Z"/>
        <path class="cls-4" d="M72.9,289c0,.1-.4.3-1,.3s-1-.1-1-.3.4-.3,1-.3,1,.1,1,.3Z"/>
        <path class="cls-4" d="M76.9,289c0,.1-.4.3-1,.3s-1-.1-1-.3.4-.3,1-.3,1,.1,1,.3Z"/>
        <path class="cls-4" d="M80.8,289c0,.1-.4.3-1,.3s-1-.1-1-.3.4-.3,1-.3,1,.1,1,.3Z"/>
        <path class="cls-4" d="M84.8,289c0,.1-.4.3-1,.3s-1-.1-1-.3.4-.3,1-.3,1,.1,1,.3Z"/>
        <path class="cls-4" d="M88.8,289c0,.1-.4.3-1,.3s-1-.1-1-.3.4-.3,1-.3,1,.1,1,.3Z"/>
        <path class="cls-4" d="M92.8,289c0,.1-.4.3-1,.3s-1-.1-1-.3.4-.3,1-.3,1,.1,1,.3Z"/>
        <path class="cls-4" d="M96.8,289c0,.1-.4.3-1,.3s-1-.1-1-.3.4-.3,1-.3,1,.1,1,.3Z"/>
        <path class="cls-4" d="M100.8,289c0,.1-.4.3-1,.3s-1-.1-1-.3.4-.3,1-.3,1,.1,1,.3Z"/>
        <path class="cls-4" d="M104.7,289c0,.1-.4.3-1,.3s-1-.1-1-.3.4-.3,1-.3,1,.1,1,.3Z"/>
        <path class="cls-4" d="M108.7,289c0,.1-.4.3-1,.3s-1-.1-1-.3.4-.3,1-.3,1,.1,1,.3Z"/>
        <path class="cls-4" d="M112.7,289c0,.1-.4.3-1,.3s-1-.1-1-.3.4-.3,1-.3,1,.1,1,.3Z"/>
        <path class="cls-4" d="M116.7,289c0,.1-.4.3-1,.3s-1-.1-1-.3.4-.3,1-.3,1,.1,1,.3Z"/>
        <path class="cls-4" d="M120.7,289c0,.1-.4.3-1,.3s-1-.1-1-.3.4-.3,1-.3,1,.1,1,.3Z"/>
        <path class="cls-4" d="M124.7,289c0,.1-.4.3-1,.3s-1-.1-1-.3.4-.3,1-.3,1,.1,1,.3Z"/>
        <path class="cls-4" d="M128.6,289c0,.1-.4.3-1,.3s-1-.1-1-.3.4-.3,1-.3,1,.1,1,.3Z"/>
        <path class="cls-4" d="M132.6,289c0,.1-.4.3-1,.3s-1-.1-1-.3.4-.3,1-.3,1,.1,1,.3Z"/>
        <path class="cls-4" d="M136.6,289c0,.1-.4.3-1,.3s-1-.1-1-.3.4-.3,1-.3,1,.1,1,.3Z"/>
        <path class="cls-4" d="M140.6,289c0,.1-.4.3-1,.3s-1-.1-1-.3.4-.3,1-.3,1,.1,1,.3Z"/>
        <path class="cls-4" d="M144.6,289c0,.1-.4.3-1,.3s-1-.1-1-.3.4-.3,1-.3,1,.1,1,.3Z"/>
        <path class="cls-4" d="M148.6,289c0,.1-.4.3-1,.3s-1-.1-1-.3.4-.3,1-.3,1,.1,1,.3Z"/>
        <path class="cls-4" d="M152.6,289c0,.1-.4.3-1,.3s-1-.1-1-.3.4-.3,1-.3,1,.1,1,.3Z"/>
        <path class="cls-4" d="M156.5,289c0,.1-.4.3-1,.3s-1-.1-1-.3.4-.3,1-.3,1,.1,1,.3Z"/>
        <path class="cls-4" d="M160.5,289c0,.1-.4.3-1,.3s-1-.1-1-.3.4-.3,1-.3,1,.1,1,.3Z"/>
        <path class="cls-4" d="M164.5,289c0,.1-.4.3-1,.3s-1-.1-1-.3.4-.3,1-.3,1,.1,1,.3Z"/>
        <path class="cls-4" d="M168.5,289c0,.1-.4.3-1,.3s-1-.1-1-.3.4-.3,1-.3,1,.1,1,.3Z"/>
        <path class="cls-4" d="M172.5,289c0,.1-.4.3-1,.3s-1-.1-1-.3.4-.3,1-.3,1,.1,1,.3Z"/>
        <path class="cls-4" d="M176.5,289c0,.1-.4.3-1,.3s-1-.1-1-.3.4-.3,1-.3,1,.1,1,.3Z"/>
        <path class="cls-4" d="M180.4,289c0,.1-.4.3-1,.3s-1-.1-1-.3.4-.3,1-.3,1,.1,1,.3Z"/>
        <path class="cls-4" d="M184.4,289c0,.1-.4.3-1,.3s-1-.1-1-.3.4-.3,1-.3,1,.1,1,.3Z"/>
        <path class="cls-4" d="M188.4,289c0,.1-.4.3-1,.3s-1-.1-1-.3.4-.3,1-.3,1,.1,1,.3Z"/>
        <path class="cls-4" d="M192.4,289c0,.1-.4.3-1,.3s-1-.1-1-.3.4-.3,1-.3,1,.1,1,.3Z"/>
        <path class="cls-4" d="M196.4,289c0,.1-.4.3-1,.3s-1-.1-1-.3.4-.3,1-.3,1,.1,1,.3Z"/>
        <path class="cls-4" d="M200.4,289c0,.1-.4.3-1,.3s-1-.1-1-.3.4-.3,1-.3,1,.1,1,.3Z"/>
        <path class="cls-4" d="M204.3,289c0,.1-.4.3-1,.3s-1-.1-1-.3.4-.3,1-.3,1,.1,1,.3Z"/>
        <path class="cls-4" d="M208.3,289c0,.1-.4.3-1,.3s-1-.1-1-.3.4-.3,1-.3,1,.1,1,.3Z"/>
        <path class="cls-4" d="M212.3,289c0,.1-.4.3-1,.3s-1-.1-1-.3.4-.3,1-.3,1,.1,1,.3Z"/>
        <path class="cls-4" d="M216.3,289c0,.1-.4.3-1,.3s-1-.1-1-.3.4-.3,1-.3,1,.1,1,.3Z"/>
        <path class="cls-4" d="M220.3,289c0,.1-.4.3-1,.3s-1-.1-1-.3.4-.3,1-.3,1,.1,1,.3Z"/>
        <path class="cls-4" d="M224.3,289c0,.1-.4.3-1,.3s-1-.1-1-.3.4-.3,1-.3,1,.1,1,.3Z"/>
        <path class="cls-4" d="M228.3,289c0,.1-.4.3-1,.3s-1-.1-1-.3.4-.3,1-.3,1,.1,1,.3Z"/>
        <path class="cls-4" d="M232.2,289c0,.1-.4.3-1,.3s-1-.1-1-.3.4-.3,1-.3,1,.1,1,.3Z"/>
        <path class="cls-4" d="M236.2,289c0,.1-.4.3-1,.3s-1-.1-1-.3.4-.3,1-.3,1,.1,1,.3Z"/>
        <path class="cls-4" d="M240.2,289c0,.1-.4.3-1,.3s-1-.1-1-.3.4-.3,1-.3,1,.1,1,.3Z"/>
        <path class="cls-4" d="M244.2,289c0,.1-.4.3-1,.3s-1-.1-1-.3.4-.3,1-.3,1,.1,1,.3Z"/>
        <path class="cls-4" d="M248.2,289c0,.1-.4.3-1,.3s-1-.1-1-.3.4-.3,1-.3,1,.1,1,.3Z"/>
        <path class="cls-4" d="M252.2,289c0,.1-.4.3-1,.3s-1-.1-1-.3.4-.3,1-.3,1,.1,1,.3Z"/>
        <path class="cls-4" d="M256.1,289c0,.1-.4.3-1,.3s-1-.1-1-.3.4-.3,1-.3,1,.1,1,.3Z"/>
        <path class="cls-4" d="M260.1,289c0,.1-.4.3-1,.3s-1-.1-1-.3.4-.3,1-.3,1,.1,1,.3Z"/>
        <path class="cls-4" d="M264.1,289c0,.1-.4.3-1,.3s-1-.1-1-.3.4-.3,1-.3,1,.1,1,.3Z"/>
        <path class="cls-4" d="M268.1,289c0,.1-.4.3-1,.3s-1-.1-1-.3.4-.3,1-.3,1,.1,1,.3Z"/>
        <path class="cls-4" d="M272.1,289c0,.1-.4.3-1,.3s-1-.1-1-.3.4-.3,1-.3,1,.1,1,.3Z"/>
        <path class="cls-4" d="M276.1,289c0,.1-.4.3-1,.3s-1-.1-1-.3.4-.3,1-.3,1,.1,1,.3Z"/>
        <path class="cls-4" d="M280,289c0,.1-.4.3-1,.3s-1-.1-1-.3.4-.3,1-.3,1,.1,1,.3Z"/>
        <path class="cls-4" d="M284,289c0,.1-.4.3-1,.3s-1-.1-1-.3.4-.3,1-.3,1,.1,1,.3Z"/>
        <path class="cls-4" d="M288,289c0,.1-.4.3-1,.3s-1-.1-1-.3.4-.3,1-.3,1,.1,1,.3Z"/>
        <path class="cls-4" d="M292,289c0,.1-.4.3-1,.3s-1-.1-1-.3.4-.3,1-.3,1,.1,1,.3Z"/>
        <path class="cls-4" d="M296,289c0,.1-.4.3-1,.3s-1-.1-1-.3.4-.3,1-.3,1,.1,1,.3Z"/>
        <path class="cls-4" d="M300,289c0,.1-.4.3-1,.3s-1-.1-1-.3.4-.3,1-.3,1,.1,1,.3Z"/>
        <path class="cls-4" d="M304,289c0,.1-.4.3-1,.3s-1-.1-1-.3.4-.3,1-.3,1,.1,1,.3Z"/>
        <path class="cls-4" d="M307.9,289c0,.1-.4.3-1,.3s-1-.1-1-.3.4-.3,1-.3,1,.1,1,.3Z"/>
        <path class="cls-4" d="M311.9,289c0,.1-.4.3-1,.3s-1-.1-1-.3.4-.3,1-.3,1,.1,1,.3Z"/>
        <path class="cls-4" d="M315.9,289c0,.1-.4.3-1,.3s-1-.1-1-.3.4-.3,1-.3,1,.1,1,.3Z"/>
        <path class="cls-4" d="M319.9,289c0,.1-.4.3-1,.3s-1-.1-1-.3.4-.3,1-.3,1,.1,1,.3Z"/>
        <path class="cls-4" d="M323.9,289c0,.1-.4.3-1,.3s-1-.1-1-.3.4-.3,1-.3,1,.1,1,.3Z"/>
        <path class="cls-4" d="M327.9,289c0,.1-.4.3-1,.3s-1-.1-1-.3.4-.3,1-.3,1,.1,1,.3Z"/>
        <path class="cls-4" d="M331.8,289c0,.1-.4.3-1,.3s-1-.1-1-.3.4-.3,1-.3,1,.1,1,.3Z"/>
        <path class="cls-4" d="M335.8,289c0,.1-.4.3-1,.3s-1-.1-1-.3.4-.3,1-.3,1,.1,1,.3Z"/>
        <path class="cls-4" d="M339.8,289c0,.1-.4.3-1,.3s-1-.1-1-.3.4-.3,1-.3,1,.1,1,.3Z"/>
        <path class="cls-4" d="M343.8,289c0,.1-.4.3-1,.3s-1-.1-1-.3.4-.3,1-.3,1,.1,1,.3Z"/>
        <path class="cls-4" d="M347.8,289c0,.1-.4.3-1,.3s-1-.1-1-.3.4-.3,1-.3,1,.1,1,.3Z"/>
        <path class="cls-4" d="M351.8,289c0,.1-.4.3-1,.3s-1-.1-1-.3.4-.3,1-.3,1,.1,1,.3Z"/>
        <path class="cls-4" d="M355.7,289c0,.1-.4.3-1,.3s-1-.1-1-.3.4-.3,1-.3,1,.1,1,.3Z"/>
        <path class="cls-4" d="M359.7,289c0,.1-.4.3-1,.3s-1-.1-1-.3.4-.3,1-.3,1,.1,1,.3Z"/>
        <path class="cls-4" d="M363.7,289c0,.1-.4.3-1,.3s-1-.1-1-.3.4-.3,1-.3,1,.1,1,.3Z"/>
        <path class="cls-4" d="M367.7,289c0,.1-.4.3-1,.3s-1-.1-1-.3.4-.3,1-.3,1,.1,1,.3Z"/>
        <path class="cls-4" d="M371.7,289c0,.1-.4.3-1,.3s-1-.1-1-.3.4-.3,1-.3,1,.1,1,.3Z"/>
        <path class="cls-4" d="M375.7,289c0,.1-.4.3-1,.3s-1-.1-1-.3.4-.3,1-.3,1,.1,1,.3Z"/>
        <path class="cls-4" d="M379.7,289c0,.1-.4.3-1,.3s-1-.1-1-.3.4-.3,1-.3,1,.1,1,.3Z"/>
        <path class="cls-4" d="M383.6,289c0,.1-.4.3-1,.3s-1-.1-1-.3.4-.3,1-.3,1,.1,1,.3Z"/>
        <path class="cls-4" d="M387.6,289c0,.1-.4.3-1,.3s-1-.1-1-.3.4-.3,1-.3,1,.1,1,.3Z"/>
        <path class="cls-4" d="M391.6,289c0,.1-.4.3-1,.3s-1-.1-1-.3.4-.3,1-.3,1,.1,1,.3Z"/>
        <path class="cls-4" d="M395.6,289c0,.1-.4.3-1,.3s-1-.1-1-.3.4-.3,1-.3,1,.1,1,.3Z"/>
        <path class="cls-4" d="M399.6,289c0,.1-.4.3-1,.3s-1-.1-1-.3.4-.3,1-.3,1,.1,1,.3Z"/>
        <path class="cls-4" d="M403.6,289c0,.1-.4.3-1,.3s-1-.1-1-.3.4-.3,1-.3,1,.1,1,.3Z"/>
        <path class="cls-4" d="M407.5,289c0,.1-.4.3-1,.3s-1-.1-1-.3.4-.3,1-.3,1,.1,1,.3Z"/>
        <path class="cls-4" d="M411.5,289c0,.1-.4.3-1,.3s-1-.1-1-.3.4-.3,1-.3,1,.1,1,.3Z"/>
        <path class="cls-4" d="M415.5,289c0,.1-.4.3-1,.3s-1-.1-1-.3.4-.3,1-.3,1,.1,1,.3Z"/>
        <path class="cls-4" d="M419.5,289c0,.1-.4.3-1,.3s-1-.1-1-.3.4-.3,1-.3,1,.1,1,.3Z"/>
        <path class="cls-4" d="M423.5,289c0,.1-.4.3-1,.3s-1-.1-1-.3.4-.3,1-.3,1,.1,1,.3Z"/>
        <path class="cls-4" d="M427.5,289c0,.1-.4.3-1,.3s-1-.1-1-.3.4-.3,1-.3,1,.1,1,.3Z"/>
        <path class="cls-4" d="M431.4,289c0,.1-.4.3-1,.3s-1-.1-1-.3.4-.3,1-.3,1,.1,1,.3Z"/>
        <path class="cls-4" d="M435.4,289c0,.1-.4.3-1,.3s-1-.1-1-.3.4-.3,1-.3,1,.1,1,.3Z"/>
        <path class="cls-4" d="M439.4,289c0,.1-.4.3-1,.3s-1-.1-1-.3.4-.3,1-.3,1,.1,1,.3Z"/>
        <path class="cls-4" d="M443.4,289c0,.1-.4.3-1,.3s-1-.1-1-.3.4-.3,1-.3,1,.1,1,.3Z"/>
        <path class="cls-4" d="M446.4,289c0,.1-.2.3-.5.3s-.5-.1-.5-.3.2-.3.5-.3.5.1.5.3Z"/>
      </g>
      <g>
        <path class="cls-11" d="M174.5,250.3c0,2.8-2.3,5.2-5.2,5.2s-5.2-2.3-5.2-5.2,2.3-5.2,5.2-5.2,5.2,2.3,5.2,5.2Z"/>
        <path class="cls-11" d="M174.5,250.3c0,0,0-.5-.3-1.2-.2-.8-.7-1.9-1.9-2.7-1.1-.9-2.9-1.3-4.7-.7-1.7.6-3.2,2.5-3.2,4.6,0,2.2,1.5,4,3.2,4.6,1.8.7,3.6.2,4.7-.7,1.1-.8,1.7-2,1.9-2.7.2-.8.2-1.2.3-1.2,0,0,0,.1,0,.3,0,.2,0,.5,0,1-.2.8-.7,2-1.9,3-1.2,1-3.1,1.5-5.1.8-1-.3-1.9-1-2.5-1.9-.7-.9-1-2-1.1-3.2,0-1.2.4-2.3,1.1-3.2.7-.9,1.6-1.5,2.5-1.9,1.9-.7,3.9-.1,5.1.8,1.2,1,1.7,2.2,1.9,3,0,.4.1.7,0,1,0,.2,0,.3,0,.3Z"/>
      </g>
    </g>
  </g>
  <g id="Screens">
    <g>
      <rect class="cls-2" x="54.1" y="60.9" width="141.9" height="72" rx="15.4" ry="15.4"/>
      <g>
        <path class="cls-12" d="M83.1,112.1c-.1,0-.2,0-.3-.1-.2-.2-.2-.5,0-.7l21.2-23.3c.2-.2.5-.2.7,0,.2.2.2.5,0,.7l-21.2,23.3c0,.1-.2.2-.4.2Z"/>
        <path class="cls-12" d="M108.1,90.3c-3,0-5.4-2.4-5.4-5.4s2.4-5.4,5.4-5.4,5.4,2.4,5.4,5.4-2.4,5.4-5.4,5.4ZM108.1,80.5c-2.4,0-4.4,2-4.4,4.4s2,4.4,4.4,4.4,4.4-2,4.4-4.4-2-4.4-4.4-4.4Z"/>
        <path class="cls-12" d="M107.6,99.5c0,0-.2,0-.3,0l-6.6-4.4c-.2-.2-.3-.5-.1-.7.2-.2.5-.3.7-.1l6.2,4.1,3.5-4.3c.2-.2.5-.2.7,0,.2.2.2.5,0,.7l-3.8,4.7c0,.1-.2.2-.4.2Z"/>
        <path class="cls-12" d="M100.2,89.7c0,0-.2,0-.2,0l-4.7-2.7-4.8,2.4c-.2.1-.5,0-.7-.2-.1-.2,0-.5.2-.7l5.1-2.5c.1,0,.3,0,.5,0l4.9,2.8c.2.1.3.4.2.7,0,.2-.3.3-.4.3Z"/>
        <path class="cls-12" d="M94.7,112.1c-.2,0-.3,0-.4-.2-.2-.2-.1-.5.1-.7l8.9-6.3-9.1-5.5c-.2-.1-.3-.5-.2-.7.1-.2.5-.3.7-.2l9.7,5.9c.1,0,.2.2.2.4,0,.2,0,.3-.2.4l-9.5,6.7c0,0-.2,0-.3,0Z"/>
        <path class="cls-12" d="M85.4,96.5h-8.1c-.3,0-.5-.2-.5-.5s.2-.5.5-.5h8.1c.3,0,.5.2.5.5s-.2.5-.5.5Z"/>
        <path class="cls-12" d="M82.4,99.5h-8.1c-.3,0-.5-.2-.5-.5s.2-.5.5-.5h8.1c.3,0,.5.2.5.5s-.2.5-.5.5Z"/>
      </g>
      <g>
        <g>
          <path class="cls-12" d="M150.9,102.8c0,3.5-2.5,6.4-7.8,6.4s-5.6-.8-7.4-2.3l1.6-2.9c1.4,1.2,3.6,1.9,5.8,1.9s4.2-1.2,4.2-3-1.2-3.1-5.3-3.1h-4.8l1-10.8h11.6v3.1h-8.5l-.4,4.6h1.9c5.8,0,8.2,2.5,8.2,6Z"/>
          <path class="cls-12" d="M153,99c0-6.5,3.6-10.2,8.2-10.2s8.3,3.7,8.3,10.2-3.6,10.2-8.3,10.2-8.2-3.7-8.2-10.2ZM165.8,99c0-4.8-1.9-7-4.6-7s-4.5,2.2-4.5,7,1.9,7,4.5,7,4.6-2.2,4.6-7Z"/>
        </g>
        <path class="cls-12" d="M174.7,116.7c0,.1-9.7.3-21.7.3s-21.7-.1-21.7-.3,9.7-.3,21.7-.3,21.7.1,21.7.3Z"/>
        <path class="cls-12" d="M162.7,121.8c0,.1-4.5.3-10.1.3s-10.1-.1-10.1-.3,4.5-.3,10.1-.3,10.1.1,10.1.3Z"/>
      </g>
      <path class="cls-9" d="M217.4,160.6c-.1,0-6.6-6.6-14.5-14.9-7.9-8.3-14.2-15.1-14.1-15.2.1,0,6.6,6.6,14.5,14.9,7.9,8.3,14.2,15.1,14.1,15.2Z"/>
      <path class="cls-9" d="M218.8,160.5c0,.8-.7,1.5-1.5,1.5s-1.5-.7-1.5-1.5.7-1.5,1.5-1.5,1.5.7,1.5,1.5Z"/>
    </g>
  </g>
  <g id="Plant">
    <g>
      <path class="cls-11" d="M90.7,404.2c2,.9,3.5,2.7,4.2,4.8.7,2.1.8,4.3.6,6.5-.5,4.2-2.9,8.5-5.5,11.9-3.6-3.1-4.4-8.5-4.6-11.3-.4-4.4,1.6-12.5,5.3-11.9"/>
      <path class="cls-11" d="M94.2,434.3c-.6-2.4.4-5,2.3-6.6,1.8-1.6,4.4-2.3,6.8-2.1,1.1,0,2.4.4,3,1.3.6.9.5,2.1,0,3-.5.9-1.3,1.6-2.2,2.2-3.1,1.9-6.4,3.2-9.9,2.2"/>
      <path class="cls-11" d="M89.6,447.3s0-.3.1-.9c.1-.6.3-1.4.4-2.3.4-2,.9-4.8,2.4-7.5,1.5-2.7,3.6-4.7,5.4-5.7.9-.5,1.6-.8,2.2-1,.3,0,.5-.1.6-.2.1,0,.2,0,.2,0,0,0-1.2.3-2.9,1.3-1.7,1-3.7,3-5.2,5.7-1.5,2.7-2,5.4-2.5,7.4-.2,1-.4,1.8-.5,2.3-.1.5-.2.8-.2.8Z"/>
      <path class="cls-11" d="M89.8,410.6s0,.1,0,.4c0,.3,0,.6,0,1.1,0,.9.1,2.3.2,4,.1,3.4.2,8.1.2,13.2,0,5.2-.1,9.8-.3,13.2,0,1.7-.1,3.1-.2,4,0,.4,0,.8,0,1.1,0,.2,0,.4,0,.4s0-.1,0-.4c0-.3,0-.6,0-1.1,0-1,0-2.3,0-4,0-3.4.2-8.1.2-13.2,0-5.2,0-9.8,0-13.2,0-1.7,0-3,0-4,0-.4,0-.8,0-1.1,0-.2,0-.4,0-.4Z"/>
      <path class="cls-11" d="M88,436.9c-.8-5.1-4.2-9.7-8.9-12-1.2-.6-2.7-.9-3.7,0-1,.9-.8,2.5-.3,3.7,2,5.1,7.3,8.7,12.8,8.7"/>
      <path class="cls-11" d="M79.7,429s.3,0,.8.3c.2.1.5.3.9.5.3.2.7.4,1.1.7.4.3.8.6,1.2.9.4.3.9.8,1.3,1.2.9.9,1.8,2,2.5,3.2.7,1.3,1.3,2.5,1.7,3.7.2.6.3,1.2.4,1.7.1.5.2,1.1.2,1.5,0,.5,0,.9,0,1.3,0,.4,0,.7,0,1,0,.5,0,.8,0,.8,0,0,0-1.2-.2-3,0-.5-.1-1-.2-1.5,0-.5-.3-1.1-.4-1.7-.4-1.2-.9-2.4-1.6-3.7-.7-1.2-1.6-2.3-2.4-3.2-.4-.4-.9-.9-1.3-1.2-.4-.4-.8-.7-1.2-1-1.5-1.1-2.6-1.6-2.6-1.6Z"/>
    </g>
  </g>
  <g id="Character">
    <g>
      <g>
        <path class="cls-8" d="M203.9,331.4c-.5,0-9.5,30-9.5,30,0,0-31.3,27-36,37.3-4.7,10.3-21,42-21,42l18.9,9.4,53.3-63.5s5.9-2.6,8-6c2.1-3.4,27-43.5,27-43.5l-8.4-18.2-32.2,12.4Z"/>
        <path class="cls-9" d="M210.4,385.5c0,.1-.8-.2-1.7-.8-.8-.5-1.5-1.1-1.4-1.2,0-.1.8.2,1.7.8.8.5,1.5,1.1,1.4,1.2Z"/>
        <g class="cls-14">
          <polygon class="cls-5" points="203.9 331.4 202.6 335 233.2 336.2 240.1 344.5 243.2 339.4 236.9 328.5 203.9 331.4"/>
        </g>
        <path class="cls-12" d="M145.6,440.1s0-.2.3-.5c.2-.4.5-.9.9-1.5.8-1.4,2-3.2,3.4-5.5,2.9-4.7,7-11.1,11.4-18.2,1.7-2.7,3.3-5.2,4.8-7.6h0c.7-6,1.3-11.3,1.7-15.1.2-1.8.4-3.3.5-4.4,0-.5.1-.9.2-1.2,0-.3,0-.4,0-.4,0,0,0,.1,0,.4,0,.3,0,.7,0,1.2,0,1.1-.2,2.6-.4,4.4-.4,3.8-.9,9.1-1.5,15.3h0c0,0,0,.1,0,.1-1.5,2.4-3.1,4.9-4.8,7.6-4.5,7.1-8.5,13.4-11.5,18.1-1.5,2.3-2.7,4.1-3.5,5.5-.4.6-.7,1.1-1,1.5-.2.3-.4.5-.4.5Z"/>
        <path class="cls-12" d="M177.9,415.3c0,.1-1.8-.6-4-1.7-2.1-1-3.8-2-3.8-2.1s1.8.6,4,1.7c2.1,1,3.8,2,3.8,2.1Z"/>
      </g>
      <g>
        <g>
          <path class="cls-1" d="M283,108.8l-5.6,45.8c-1.1,7.8-2.7,19.4,9.7,20.6h0c10.9.2,15-9.6,16-16.8.5-3.5.9-6.3,1-6.7,0,0,11.8.6,14.3-10.9,1.2-5.5,2.7-17.1,4-27.6,1.4-11.3-6.2-21.7-17.3-24l-1.1-.2c-12.1-1.7-19.7,7.8-21.1,19.9Z"/>
          <path class="cls-6" d="M304.2,151.7s-7.3-1.1-14-7.5c0,0,1.9,9.1,13.6,10.4l.4-3Z"/>
        </g>
        <g>
          <g>
            <path class="cls-9" d="M302.4,117.1c-.3,0-1.3-1-3.1-1.7-1.8-.7-3.4-.8-3.5-1,0,0,.2-.2.9-.2.7,0,1.8.2,2.9.6,1.1.5,2,1.1,2.4,1.5.4.5.5.7.4.8Z"/>
            <path class="cls-9" d="M299.9,119.1c-.1.8-1,1.4-1.8,1.3-.9-.1-1.5-.9-1.3-1.7.1-.8,1-1.4,1.8-1.3.9.1,1.5.9,1.3,1.7Z"/>
            <path class="cls-9" d="M305.5,129.5c0-.1,1.1,0,3,0,.5,0,.9,0,1-.2.2-.3,0-.8,0-1.4-.2-1.2-.4-2.4-.6-3.7-.9-5.3-1.4-9.6-1.2-9.6.2,0,1.1,4.2,1.9,9.5.2,1.3.4,2.5.6,3.7,0,.5.2,1.2-.1,1.8-.2.3-.6.5-.9.5-.3,0-.6,0-.8,0-1.8-.3-2.9-.5-2.9-.6Z"/>
          </g>
          <path class="cls-9" d="M302.5,108c-.2.4-1.8-.1-3.6-.3-1.9-.2-3.5,0-3.6-.4,0-.2.3-.6,1-.9.7-.3,1.7-.5,2.8-.4,1.1.1,2.1.5,2.7.9.6.4.9.8.8,1Z"/>
          <path class="cls-9" d="M320.5,114c-.2.3-1.7-.3-3.5-.6-1.8-.3-3.4-.3-3.5-.6,0-.2.3-.5,1-.7.7-.2,1.7-.3,2.8,0,1.1.2,2,.6,2.6,1,.6.4.8.8.7.9Z"/>
        </g>
        <g>
          <path class="cls-1" d="M282.2,117.7c-.2-.1-7.9-3.9-9.1,4.4-1.2,8.3,7.4,7.8,7.5,7.6,0-.2,1.6-12,1.6-12Z"/>
          <path class="cls-6" d="M278.4,126.1s-.2,0-.4.2c-.3,0-.7,0-1.1-.1-.8-.4-1.4-2-1.2-3.5,0-.8.4-1.5.7-2,.3-.6.8-.9,1.3-1,.5,0,.7.3.8.5,0,.2,0,.4,0,.4,0,0,.2-.1.2-.5,0-.2,0-.4-.3-.6-.2-.2-.5-.3-.8-.3-.6,0-1.3.5-1.7,1.1-.4.6-.7,1.4-.8,2.2-.2,1.7.4,3.4,1.6,3.9.6.2,1.1.1,1.4,0,.3-.2.4-.3.3-.4Z"/>
        </g>
        <path class="cls-9" d="M302.9,134.8c.1-.2-1.4-.9-2.3-2.5-.5-.8-.7-1.6-.8-2.2-.2-.6-.3-1-.4-1,0,0-.1.4,0,1.1,0,.6.2,1.6.7,2.5.5.9,1.3,1.5,1.8,1.8.6.3,1,.4,1,.3Z"/>
        <path class="cls-9" d="M319.7,117.9c-.2.2-1.6-.2-3.6.2-1.9.3-3.3,1.1-3.5,1-.1,0,0-.3.7-.6.6-.3,1.6-.7,2.8-.9,1.2-.2,2.2-.1,2.8,0,.6.1.8.3.7.4Z"/>
        <path class="cls-9" d="M316.8,121.7c-.1.8-1,1.4-1.8,1.3-.9-.1-1.5-.9-1.3-1.7.1-.8,1-1.4,1.8-1.3.9.1,1.5.9,1.3,1.7Z"/>
        <path class="cls-9" d="M339.5,104.8c0-.5-.4-.9-.7-1.2-.8-.7-1.9-.7-2.9-.9-2.5-.4-4.9-1.3-7-2.8.8-.3,1.6-.7,2.3-1.2,1.4-1.1,2.4-3,2.1-4.8,0-.3-.2-.7-.5-.8-.5-.2-1,.2-1.4.6-1.3,1.2-2.5,1.6-4.2,1.2-1.1-.3-2.1-.6-2.9-1.3,0,0,0,0,0-.1-.4-.5-.7-.9-1.1-1.4,0,0,0,0,0,0h0c-2.6-3.3-4.9-5.7-7.4-7.1-3.7-2.1-10-3.5-14.2-3-4.2.5-8.2,3.3-9.3,7.4-2-2.2-5.4-2.6-8.3-1.9h0c-3.2.7-5.4,3.7-6.7,6.7,0,.2-.1.3-.2.5-1.2,1.5-2.8,2.7-4.6,3.5-.3.1-.7.3-.8.6,0,.3.2.7.4.9.7.6,1.5,1.1,2.3,1.4-.4.7-.8,1.4-1.3,2-.4.5-.9,1.2-.7,1.8.2.5.7.8,1.3.8.5,0,1-.2,1.5-.5-.4.8-.9,1.5-1.3,2.3,1.1.3,2.2.4,3.4.2.3,3,.6,6.4,1.1,8.5,1.3.2,2.4.4,3.1,1.2.9,1.1,1.2,3,3.1,2.5,1-.2,2-2,2.5-2.9,2.8-5.9,4.3-12.4,4.4-18.9,1.4-1.2,3.1-2.1,4.9-2.7h-.2c3.4-.6,7.2-1.2,10.1.7,2.2,1.5,3.3,4.1,4.8,6.3,2.9,4.2,6.7,6.7,11.7,7.6,0,3.6-.9,7.9-1.2,11.2l3.7-4.9h0c.3-.3.5-.7.7-1.1h0c0-.1,0-.1,0-.1.4-.6.7-1.2,1.2-1.7,0,0,0,0,0,0,1.6,1.8,4.5-.3,3.3-2.3-.2-.4-.5-.8-.9-1.1.7.9,1.9,1.4,3,1.2s2.1-1.2,2.1-2.3c0-.8-.4-1.5-1.1-1.9,1.4.3,2.9.2,4.2-.4.9-.4,1.8-1,1.6-2.1Z"/>
        <path class="cls-7" d="M295.6,91.2s-.5.2-1.3.9c-.8.7-1.7,1.9-2.3,3.6-.3.9-.5,1.8-.7,2.9-.1,1.1-.2,2.2-.3,3.4,0,1.2-.2,2.5-.4,3.8-.1.7-.3,1.3-.5,2-.2.6-.5,1.3-1.1,1.8-.5.4-1.1.5-1.7.3-.6-.2-1-.6-1.4-1-.6-1-.7-2.1-.7-3.1h.2c-.5.9-1,1.7-1.7,2.3-.7.6-1.6,1-2.4.9-.4,0-.8-.1-1.2-.4-.3-.2-.6-.6-.7-.9-.1-.3-.2-.7-.1-1.1,0-.3.2-.6.5-.9h.1c-1,1-2,1.5-2.7,1.7-.3.1-.6.2-.8.2-.2,0-.3,0-.3,0,0,0,0,0,.3,0,.2,0,.5-.1.8-.2.7-.2,1.7-.7,2.6-1.6h.1c-.4.5-.6,1.2-.3,1.8.1.3.3.6.6.8.3.2.7.3,1.1.3.8,0,1.6-.3,2.2-.9.7-.6,1.2-1.4,1.7-2.2l.2-.3v.4c0,1,.1,2.1.7,3,.3.4.7.8,1.2.9.5.2,1.1,0,1.4-.3.5-.4.8-1.1,1-1.7.2-.6.4-1.3.5-1.9.2-1.3.3-2.6.4-3.8,0-1.2.2-2.4.3-3.4.1-1.1.4-2.1.7-2.9.6-1.8,1.6-3,2.4-3.6.8-.7,1.4-.8,1.4-.8Z"/>
        <path class="cls-7" d="M330,107.1s0,0-.1,0c0,0-.2.1-.3.2-.1,0-.3.2-.5.3-.2,0-.5.2-.8.3-1.1.4-2.9.7-5.1.3-2.1-.4-4.6-1.5-6.7-3.5-2.1-2-3.8-4.7-5.1-7.7-.7-1.5-1.2-3-1.7-4.5-.6-1.4-1.3-2.8-2.1-3.9-.9-1.1-1.9-2-3.1-2.5-.6-.3-1.2-.4-1.7-.4-.6,0-1.1,0-1.7.1-1,.2-1.9.7-2.6,1.1-.7.5-1.2,1-1.5,1.5-.7,1-.8,1.7-.8,1.7,0,0,0,0,0-.1,0,0,0-.2.1-.3,0-.3.3-.7.6-1.3.3-.5.8-1.1,1.5-1.6.7-.5,1.6-1,2.7-1.2.5-.1,1.1-.2,1.7-.1.6,0,1.2.2,1.8.4,1.2.5,2.3,1.4,3.2,2.5.9,1.1,1.6,2.5,2.2,3.9.6,1.4,1.1,3,1.8,4.5,1.3,3,3,5.7,5,7.6,2,2,4.4,3.1,6.5,3.5,2.1.4,3.9.2,5-.2,1.1-.3,1.7-.7,1.7-.7Z"/>
        <path class="cls-7" d="M331.7,102.2s-.2.1-.5.2c-.3.1-.7.3-1.3.5-.6.2-1.3.3-2,.4-.8,0-1.6,0-2.5,0-.9,0-1.7-.3-2.5-.5-.7-.2-1.4-.5-1.9-.8-.5-.3-.9-.5-1.2-.7-.3-.2-.4-.3-.4-.3,0,0,.6.4,1.7.9.5.2,1.2.5,1.9.7.7.2,1.6.4,2.4.5.9,0,1.7,0,2.5,0,.8,0,1.4-.2,2-.3,1.1-.3,1.8-.6,1.8-.5Z"/>
        <path class="cls-8" d="M324.4,93.8c-2.2-5.1-3.4-7.1-8.2-10.4-4.8-3.3-12.9-5.1-18.7-4.1-4.9.8-9.3,3.5-13.3,6.5-6.3,4.6-12.1,9.9-17.4,15.7-3.3,3.7-4.1,7-5.1,11.8-1.3,6.3-.3,10.7,2.3,16.5,3.3,7.6,4.4,16.1,9.9,22.2,2.3,2.6,5.8,5,9,3.7,1.9-.8,9.4,4.8,8.4,2.9-2.7-4.6-5-12-5.4-14.1-1.5-7.3-3.6-14.6-4.7-22-1.1-7.4-1-14.8,1.4-21.9s3.7-8.9,9.4-11.3c0,0,7.3-8.8,15.8-7.2,3.2.6,6,1.4,9.5,4.3s6.9,7.3,6.9,7.3Z"/>
        <g>
          <path class="cls-7" d="M269.9,107.9s0,.2,0,.5c0,.4,0,.9,0,1.5,0,.7,0,1.4.1,2.4,0,.9.1,2,.2,3.1.2,2.3.6,5.1,1.2,8.1.6,3,1.4,6.3,2.4,9.7,1.1,3.4,2.3,6.5,3.6,9.4,1.3,2.8,2.5,5.3,3.7,7.3.5,1,1.1,1.9,1.6,2.7.5.8.9,1.5,1.3,2,.3.5.6.9.8,1.3.2.3.3.5.3.5,0,0-.1-.1-.3-.4-.2-.3-.5-.7-.9-1.2-.4-.5-.8-1.2-1.3-2-.5-.8-1.1-1.7-1.7-2.7-1.2-2-2.5-4.5-3.8-7.3-1.3-2.8-2.5-6-3.6-9.4-1.1-3.4-1.8-6.7-2.4-9.8-.5-3-.9-5.8-1-8.2-.1-1.2-.1-2.2-.2-3.2,0-.9,0-1.7,0-2.4,0-.6,0-1.1,0-1.5,0-.3,0-.5,0-.5Z"/>
          <g>
            <g class="cls-16">
              <path class="cls-3" d="M281.4,151.1c-8.4-14.1-12.5-30.7-11.5-47-4.1,16.3.4,34.5,11.5,47Z"/>
            </g>
            <g class="cls-15">
              <path class="cls-5" d="M282.5,152.4c-.4-.4-.7-.8-1.1-1.3.3.6.7,1.1,1,1.7v-.4Z"/>
            </g>
          </g>
        </g>
        <path class="cls-7" d="M298.5,80s-.2,0-.7.2c-.2,0-.5,0-.9.2-.3,0-.7.2-1.2.3-1.7.5-4.2,1.6-6.7,3.6-2.5,2-5,5.1-6.7,9-1.7,3.9-2.5,8.6-2.5,13.5,0,4.9.7,9.6,1.4,13.8.7,4.2,1.4,8,1.9,11.2.4,3.2.7,5.8.7,7.7,0,.9,0,1.6,0,2.1,0,.5,0,.7,0,.7,0,0,0-.3,0-.7,0-.5,0-1.2-.1-2.1-.1-1.8-.4-4.4-.9-7.6-.5-3.2-1.2-7-2-11.2-.7-4.2-1.4-8.9-1.4-13.9,0-5,.8-9.7,2.6-13.7,1.8-4,4.3-7,6.9-9.1,2.6-2,5.1-3.1,6.8-3.5.4,0,.8-.2,1.2-.3.3,0,.6,0,.9-.1.5,0,.7,0,.7,0Z"/>
      </g>
      <g>
        <path class="cls-8" d="M271.3,334s25.4,19.1,28,22.8c.5.7,0,2.7,0,2.7,0,0-14.2,8.8-18.1,20.9s-20.6,53.2-20.6,53.2c0,0,17.5,11.2,18.1,10,.6-1.2,42.1-60.9,45.7-65.8,3.6-4.8,9-11.6,9.9-17.7.9-6-1.2-17.5-10.9-27.8-9.7-10.3-23-25.4-23-25.4l-35.1,7-1.2,13.9,7.1,6.2"/>
        <path class="cls-9" d="M308,362.5c-.1.1-1.7-1.4-4.1-2.3-2.5-.9-4.6-.7-4.6-.9,0-.1,2.2-.6,4.8.3,2.6.9,4.1,2.7,3.9,2.8Z"/>
        <path class="cls-12" d="M269,435.3s0-.2.2-.6c.2-.5.4-1,.7-1.8.7-1.6,1.6-3.8,2.7-6.4,2.3-5.5,5.5-12.9,9.1-21.2,1.6-3.6,3.1-7.1,4.5-10.2h0c-.6-6.1-1.1-11.4-1.4-15.2-.2-1.8-.3-3.3-.4-4.4,0-.5,0-.9,0-1.2,0-.3,0-.4,0-.4,0,0,0,.1,0,.4,0,.3,0,.7.2,1.2.1,1.1.3,2.6.5,4.4.4,3.8,1,9.1,1.6,15.3h0c0,0,0,.1,0,.1-1.4,3.2-2.9,6.6-4.4,10.2-3.6,8.2-6.8,15.6-9.2,21.1-1.2,2.6-2.2,4.8-2.9,6.4-.3.7-.6,1.3-.8,1.7-.2.4-.3.6-.3.6Z"/>
        <path class="cls-12" d="M301.4,400.9c0,.1-1.8-.6-4-1.7-2.1-1-3.8-2-3.8-2.1,0-.1,1.8.6,4,1.7,2.1,1,3.8,2,3.8,2.1Z"/>
        <g class="cls-14">
          <polygon class="cls-5" points="275 337.3 277 334.7 272.9 328.9 282 332.8 304.6 312.3 298.7 307.2 266.3 322.2 271.5 334.6 275 337.3"/>
        </g>
      </g>
      <g>
        <path class="cls-11" d="M210.5,277.5s2.3,16.7,8,24.1c5.8,7.5,20.9,21.2,28.4,23.3,7.5,2.2,22,12.3,22,12.3l2.8-2.1-4.3-12.3,14.2,5.5,24.3-21s-20.2-19.2-25.4-25.1c-5.4-6.2-13.5-13.4-13.5-13.4l-52.8,5.8-4.1,3.8"/>
        <path class="cls-11" d="M210.8,282.3s.9,16.3,3.3,20.4h0l-13.3,29,36.2-3.2s7.7,13.4,7.9,13.8c.2.4,13.1-11.7,13.1-11.7l-8.3-34.9-38.9-13.4Z"/>
        <path class="cls-7" d="M268.9,337.3s-.3-.1-.7-.4c-.5-.3-1.2-.7-2-1.2-1.8-1.1-4.3-2.6-7.4-4.5-1.6-1-3.3-2-5.1-3.2-1.8-1.1-3.7-2.4-5.9-3.5-1.1-.6-2.1-1.1-3.3-1.7-1.1-.5-2.3-.9-3.6-1.4-2.4-1-4.9-2.2-7.3-3.6-4.8-2.8-9-6.3-12.2-10-3.2-3.6-5.5-7.4-7-10.8-1.5-3.3-2.3-6.2-2.8-8.2-.2-1-.4-1.8-.4-2.3,0-.5-.1-.8,0-.8,0,0,0,.3.2.8,0,.5.3,1.3.5,2.3.5,2,1.4,4.8,2.9,8.1,1.6,3.3,3.9,7,7.1,10.6,3.2,3.6,7.3,7,12.1,9.8,2.4,1.4,4.8,2.6,7.3,3.6,1.2.5,2.4.9,3.6,1.4,1.2.5,2.3,1.1,3.3,1.7,2.1,1.2,4,2.5,5.8,3.6,1.8,1.2,3.5,2.2,5,3.2,3,2,5.5,3.5,7.3,4.7.8.5,1.5,1,2,1.3.4.3.7.5.7.5Z"/>
        <path class="cls-12" d="M283.4,326.1s-.2,0-.7-.3c-.5-.3-1.1-.6-1.8-1-1.6-.9-3.9-2.3-6.7-4-5.6-3.5-13.2-8.5-21.2-14.4-8.1-5.9-15.2-11.6-20.1-15.9-2.5-2.1-4.5-3.9-5.8-5.1-.6-.6-1.2-1.1-1.6-1.4-.4-.3-.5-.5-.5-.5,0,0,.2.1.6.4.4.3,1,.8,1.6,1.4,1.5,1.2,3.5,2.9,6,5,5.1,4.2,12.1,9.8,20.2,15.8,8.1,5.9,15.6,11,21.1,14.5,2.7,1.7,5,3.2,6.6,4.2.7.5,1.3.8,1.8,1.1.4.3.6.4.6.4Z"/>
        <path class="cls-12" d="M286.5,323.8s-.2-.1-.6-.3c-.5-.3-1.1-.6-1.8-1.1-1.6-.9-3.8-2.3-6.5-4-5.5-3.5-12.9-8.5-20.8-14.4-7.9-5.9-14.9-11.5-19.8-15.7-2.5-2.1-4.4-3.8-5.8-5-.6-.6-1.1-1-1.5-1.4-.3-.3-.5-.5-.5-.5,0,0,.2.1.6.4.4.3.9.8,1.6,1.3,1.4,1.2,3.4,2.9,5.9,4.9,5,4.1,12,9.7,19.9,15.6,7.9,5.9,15.3,10.9,20.7,14.5,2.7,1.7,4.8,3.2,6.4,4.2.7.5,1.3.9,1.7,1.1.4.3.6.4.6.4Z"/>
      </g>
      <path class="cls-6" d="M326.1,243.3c0,0-1.1.1-2.8-.1-.9-.1-1.9-.4-2.9-.7-.5-.2-1.2-.4-1.6-1-.4-.6-.5-1.4-.2-2.1.3-.7,1-1.1,1.7-1.2.7,0,1.3,0,1.8.2,1.1.3,2.1.6,2.9.9,1.6.6,2.5,1.1,2.5,1.2,0,0-1-.3-2.6-.8-.8-.3-1.8-.5-2.9-.8-.5-.1-1.1-.2-1.7-.2-.5,0-1,.4-1.3.9-.3.5-.2,1.1.1,1.5.3.4.8.6,1.3.8,1.1.4,2,.6,2.9.8,1.7.4,2.7.4,2.7.5Z"/>
      <g>
        <path class="cls-8" d="M291.7,220.8l20.8,6.6-5.4,14.1s-23.7-.7-27.7-1.6c-4-.9-3.9-7.4-3.9-7.4l16.2-11.8Z"/>
        <path class="cls-1" d="M310.5,228.5l6.8-7.5h7.7c0,0,5.6,2.3,6.7,2.3,0,0,0,1.2-1.4,1.9,0,0,2.7,0,3.3.9.6.9-.4,2.7-1.3,3.8,0,0,.3,1.1.2,2.7s-.9,2.5-.9,2.5l-1.5.8s1.1,1,.5,2.3c-.6,1.3-2.2,2.3-2.2,2.3,0,0,1.4.6,1,1.8-.4,1.2-.8,1.7-1.7,2.1-.9.3-9.2,1.5-11,1-1.8-.5-9.3-3.7-9.3-3.7l3.4-13.1Z"/>
        <path class="cls-6" d="M332.3,230.2c0,0-1.2-.1-3-.3-.9,0-2-.2-3.3-.2-.6,0-1.3,0-1.9,0-.7,0-1.5,0-2.2-.5-.3-.3-.6-.7-.6-1.1,0-.4,0-.8.3-1.1.4-.7,1.1-1,1.7-1.2.6-.2,1.2-.2,1.8-.2.5,0,1,0,1.5-.1,1.9-.1,3-.2,3-.1,0,0-1.1.3-3,.5-.9.1-2.1.2-3.2.5-.6.2-1.1.5-1.4,1-.3.5-.3,1.2.2,1.5.5.4,1.1.4,1.8.4.7,0,1.3,0,2,0,1.3,0,2.4.1,3.3.3,1.9.3,3,.6,3,.7Z"/>
        <path class="cls-6" d="M330,235.3c0,0-.9-.1-2.3-.2-1.4-.2-3.4-.1-5.5-.9-.5-.2-1-.3-1.5-.5-.3-.1-.5-.3-.7-.6-.1-.3-.2-.5-.2-.8,0-.3,0-.5,0-.8,0-.2.2-.4.3-.6.2-.4.6-.7.9-.9.6-.4,1.2-.5,1.7-.5.4,0,.6,0,.6.1,0,.1-1,0-2,.7-.3.2-.5.5-.7.8-.1.2-.2.3-.2.5,0,.1,0,.4,0,.6,0,.2,0,.4.1.6,0,.2.2.3.4.4.4.2,1,.3,1.5.5,2,.7,4,.8,5.4,1,1.4.2,2.2.5,2.2.6Z"/>
        <path class="cls-6" d="M328.4,240.2c0,0-1.2-.2-3.2-.8-1-.3-2.2-.6-3.4-1-.6-.2-1.3-.3-2-.8-.3-.2-.6-.5-.8-1-.2-.4-.2-.9,0-1.3.4-.8,1.4-1.1,2.1-1.2.8,0,1.4,0,2.1,0,1.3,0,2.5.2,3.5.5,1,.2,1.8.5,2.3.7.5.2.8.4.8.4,0,0-1.2-.4-3.2-.7-1-.2-2.2-.3-3.5-.3-.7,0-1.4,0-2.1,0-.7,0-1.4.3-1.7.9-.3.6,0,1.2.5,1.6.5.4,1.2.5,1.9.7,1.2.4,2.4.8,3.4,1.1,1.9.6,3.1,1.1,3.1,1.1Z"/>
        <path class="cls-6" d="M330.3,225.2c0,.2-2.3.8-5.3.6-.4,0-.7,0-1.1-.1-.2,0-.4,0-.5,0,0,0-.1,0-.2,0,0,0,0,0-.1,0-.4.3-1,.8-1.4,1-.9.5-1.5.6-1.5.5,0,0,.5-.3,1.3-.8.4-.3.8-.6,1.3-1.1,0,0,.2-.1.3-.1h.3c.2,0,.3,0,.5.1.3,0,.7,0,1.1,0,1.5,0,2.8,0,3.7,0,1,0,1.5-.1,1.6,0Z"/>
        <path class="cls-6" d="M319.2,232c0,0,.1-.4.3-1,.1-.6.3-1.5.3-2.5,0-1,0-1.8-.3-2.4-.2-.6-.5-.9-.4-.9,0,0,.4.2.8.8.4.6.6,1.6.5,2.6,0,1-.3,1.9-.5,2.6-.2.6-.6.9-.6.9Z"/>
        <polygon class="cls-3" points="307.4 225.8 303.9 241.5 307.1 241.6 311.7 227.2 307.4 225.8"/>
        <rect class="cls-3" x="305.4" y="224.3" width="6.8" height="2.1" transform="translate(106.5 -99) rotate(21.9)"/>
      </g>
      <g>
        <g>
          <path class="cls-9" d="M283.2,439.2l-.6,1.5s20.9,20.5,19.2,25.3l-49.7-20.9,9.4-15.5c6,6.5,11.7,9.4,21.7,9.5Z"/>
          <path class="cls-4" d="M252.1,445.2l2.3-3.7,46.5,21.2s1.8,1.9.9,3.3l-49.7-20.9Z"/>
          <path class="cls-4" d="M282.7,440.9c-.1.2-1.4-.2-2.9.1-1.5.2-2.6,1-2.8.8-.2-.1.8-1.4,2.6-1.7,1.8-.3,3.2.6,3,.8Z"/>
          <path class="cls-4" d="M287,445.3c0,.3-1.3.2-2.5.9-1.3.6-1.9,1.7-2.2,1.6-.2,0,.2-1.5,1.8-2.4,1.6-.8,3-.3,2.9,0Z"/>
          <path class="cls-4" d="M287.4,452.8c-.2,0,0-1.4,1.1-2.5,1.2-1.1,2.5-1.1,2.6-.9,0,.3-1,.7-1.9,1.6-1,.9-1.5,1.9-1.7,1.8Z"/>
        </g>
        <path class="cls-4" d="M283.1,440.9s0-.1.2-.3c0-.2.2-.5.3-1,.2-.9.4-2.2,0-3.8,0-.4-.2-.8-.4-1.2-.2-.4-.4-.8-.7-1.2-.2-.2-.4-.4-.6-.5-.3-.1-.6-.1-.9,0-.6.2-.8.9-.9,1.4,0,1.1.1,2.2.5,3.3.4,1.1,1,2.2,2.1,2.9.5.4,1.2.5,1.8.5.6,0,1.2,0,1.8-.2,1.1-.3,2.2-.5,3.1-1.1.5-.3.9-.8.9-1.4,0-.3,0-.6-.2-.8-.2-.2-.4-.4-.7-.5-.5-.2-1,0-1.4,0-.4.1-.8.3-1.2.5-1.4.7-2.5,1.5-3.1,2.1-.3.3-.6.5-.7.7-.2.2-.2.3-.2.3,0,0,.4-.3,1.1-.9.7-.5,1.7-1.3,3.1-1.9.7-.3,1.5-.7,2.3-.5.4.1.7.5.6.9,0,.4-.3.8-.7,1-.8.5-1.9.8-3,1-1.1.2-2.3.4-3.2-.3-.9-.6-1.5-1.7-1.9-2.7-.4-1-.6-2.1-.5-3.1,0-.5.2-.9.6-1.1.4-.2.8,0,1,.4.3.3.5.7.6,1.1.2.4.3.8.4,1.1.4,1.5.3,2.8,0,3.6-.2.9-.4,1.3-.3,1.3Z"/>
        <path class="cls-4" d="M263.6,438.3c-.1.1,1.8,1.8,3.9,4.1.5.6.9,1.2,1.4,1.7.4.5,1,1,1.5,1.1.5.1,1,0,1.3,0,.3-.1.4-.3.3-.3,0,0-.6.4-1.5.1-.4-.1-.9-.5-1.3-1-.4-.5-.9-1.1-1.4-1.7-1-1.2-2.1-2.1-2.9-2.8-.8-.7-1.3-1-1.4-1Z"/>
      </g>
      <g>
        <g>
          <path class="cls-9" d="M161.6,449.9l-1,1.3s15,25.1,12.2,29.4l-42.8-32.8,11.5-13.8c4.1,7.8,10.5,13.3,20.1,15.9Z"/>
          <path class="cls-4" d="M130,447.8l2.8-3.3,40,32.6s1.3,2.3,0,3.5l-42.8-32.8Z"/>
          <path class="cls-4" d="M160.7,451.4c-.2.2-1.3-.5-2.8-.6-1.5-.2-2.8.3-2.9.1-.2-.2,1.1-1.2,3-1,1.9.2,2.9,1.4,2.7,1.5Z"/>
          <path class="cls-4" d="M163.8,456.7c-.1.2-1.3,0-2.7.2-1.4.3-2.3,1.1-2.5.9-.2-.1.6-1.5,2.3-1.8,1.7-.4,3,.4,2.9.7Z"/>
          <path class="cls-4" d="M162.2,464c-.2-.1.3-1.4,1.7-2.1,1.4-.7,2.7-.4,2.7-.2,0,.3-1.1.4-2.3,1-1.2.6-1.9,1.4-2.1,1.3Z"/>
        </g>
        <path class="cls-4" d="M161.1,451.5s0,0,.2-.3c.1-.2.3-.5.6-.8.4-.8.9-2,1-3.6,0-.4,0-.8,0-1.3,0-.4-.1-.9-.4-1.3-.1-.2-.3-.4-.5-.6-.2-.2-.5-.3-.8-.2-.7,0-1,.7-1.2,1.2-.3,1-.4,2.2-.3,3.3.1,1.1.4,2.4,1.3,3.4.4.5,1,.8,1.6,1,.6.2,1.2.2,1.8.3,1.2,0,2.2,0,3.3-.3.5-.2,1-.6,1.2-1.1,0-.3,0-.6,0-.9-.1-.3-.3-.5-.5-.6-.5-.3-1-.3-1.4-.3-.4,0-.8.1-1.2.2-1.6.3-2.8.8-3.5,1.2-.4.2-.7.4-.9.5-.2.1-.3.2-.3.2,0,0,.4-.2,1.2-.6.8-.4,2-.8,3.5-1.1.7,0,1.7-.3,2.4,0,.3.2.5.6.4,1-.1.4-.5.7-1,.8-.9.2-2.1.3-3.2.2-1.1,0-2.3-.2-3.1-1.1-.8-.8-1-2-1.2-3.1-.1-1.1,0-2.2.3-3.1.2-.4.5-.9.8-.9.4,0,.7.3.9.6.2.4.3.8.3,1.2,0,.4,0,.8,0,1.2,0,1.5-.4,2.8-.8,3.5-.4.8-.7,1.2-.7,1.2Z"/>
        <path class="cls-4" d="M142.9,444.1c-.1,0,1.3,2.2,2.7,4.9.4.7.6,1.4.9,2,.3.6.7,1.2,1.2,1.4.5.3,1,.3,1.3.2.3,0,.4-.2.4-.2,0,0-.7.3-1.5-.3-.4-.3-.7-.7-1-1.3-.3-.6-.5-1.3-.9-2-.7-1.4-1.5-2.6-2.1-3.4-.6-.8-1-1.3-1.1-1.3Z"/>
      </g>
      <g>
        <path class="cls-8" d="M303,159.2s-2.3,5.9-4.9,4.5c-2.6-1.5-22.4-16.7-22.4-16.7,0,0-5.1.7-8.6,1.5-3.5.9-13.1,4.5-14,4.9-2.5,1-18.6,36.5-18.6,36.5l-8.6,52.6-2.3,2.3-1.2,6.1s-10.2,17.3-11.4,22.2c-1.2,5-3.5,10.2,1.8,11.4s29-7.9,38.6-12.3c9.7-4.4,20.2,0,20.2,0l.8-.6c1.6-1.2,2.8-2.7,3.5-4.6l4.3-10.9s5.4-16.5,11.3-36.1c5.9-19.6,8.8-36.6,9.7-41.9.9-5.3,1.9-19.1,1.9-19.1Z"/>
        <path class="cls-7" d="M296,203.5s0,.2,0,.6c0,.4-.2.9-.4,1.6-.3,1.4-.8,3.3-1.5,5.7-1.3,4.8-3.2,11.4-5.4,18.7-2.2,7.3-4.3,13.9-5.8,18.6-.8,2.3-1.4,4.2-1.9,5.6-.2.6-.4,1.1-.5,1.5-.1.3-.2.5-.2.5s0-.2.1-.5c.1-.4.3-.9.4-1.5.4-1.4,1-3.3,1.7-5.7,1.5-4.8,3.5-11.4,5.7-18.6,2.2-7.3,4.1-13.8,5.5-18.7.7-2.3,1.2-4.3,1.7-5.7.2-.6.3-1.1.5-1.5.1-.3.2-.5.2-.5Z"/>
        <path class="cls-7" d="M263,232.7s0,.4-.1,1c0,.3-.1.7-.3,1.2-.1.5-.2,1-.5,1.6-.4,1.2-.9,2.5-1.7,3.9-.8,1.4-1.8,2.9-3,4.3-1.2,1.4-2.5,2.6-3.8,3.6-1.3,1-2.5,1.7-3.6,2.3-.5.3-1,.5-1.5.7-.4.2-.8.3-1.1.4-.6.2-1,.3-1,.3,0,0,1.4-.6,3.5-1.7,1-.6,2.2-1.4,3.5-2.3,1.2-1,2.5-2.2,3.7-3.5,1.2-1.4,2.1-2.8,2.9-4.2.8-1.4,1.4-2.7,1.8-3.8.8-2.2,1.1-3.7,1.2-3.7Z"/>
        <path class="cls-7" d="M286,237.6c0,.1-3.9-.7-8.6-1.8-4.7-1.1-8.5-2.2-8.4-2.3,0-.1,3.9.7,8.6,1.8,4.7,1.1,8.5,2.2,8.4,2.3Z"/>
        <g class="cls-15">
          <path class="cls-5" d="M233.9,236.3c6.4,4.2,12.7,8.4,19.1,12.6,2.2,1.5,4.4,2.9,6.1,5,1.7,2,2.7,4.8,2.1,7.3-.7,2.9-3.2,4.9-5.6,6.6-2.1,1.5-4.4,3-6.9,3.1-2.4,0-4.6-1.2-6.4-2.6-8.5-6.4-12.5-17.1-15.5-27.4l-.4-.6.8-5.2,6.9,1.1Z"/>
        </g>
        <g class="cls-15">
          <path class="cls-5" d="M234.1,190.5h.1c5.5,3.5,13.2,4,19.2,1.6s10.9-7.6,12.9-13.7c-10.4,4.9-21.1,9.4-32.3,12.1Z"/>
        </g>
        <path class="cls-12" d="M298.2,166.6s0-.1,0-.4c0-.2,0-.6,0-1.1.2-.9.6-2.3,1.8-3.5.3-.3.6-.6,1-.9.4-.3.8-.6,1.4-.5.3,0,.6.2.7.5.1.3.2.6.1.9,0,.6-.3,1.1-.5,1.6-1,2-3.4,3.6-6,3.6-2.7,0-5-1.5-6.3-3.3-.2-.2-.3-.4-.4-.7-.1-.3-.1-.7.1-1,.4-.5,1.2-.5,1.6-.3.9.4,1.7.8,2.5,1.2,1.4.9,2.4,1.8,3.1,2.5.6.7.9,1.1.9,1.1,0,0-1.3-1.6-4.2-3.3-.7-.4-1.5-.8-2.4-1.1-.4-.1-.9-.1-1.1.2-.2.3,0,.7.4,1.2,1.2,1.7,3.4,3.1,5.9,3.1,2.4,0,4.6-1.5,5.6-3.3.2-.5.5-1,.5-1.4,0-.5-.1-.9-.5-.9-.4,0-.8.2-1.2.4-.4.2-.7.5-1,.8-1.2,1.1-1.7,2.4-1.9,3.3-.2.9-.2,1.4-.2,1.4Z"/>
        <path class="cls-12" d="M286.3,180.6c0,0,.9-.5,2.3-1.4,1.4-.9,3.2-2.3,4.8-4.2,1.6-1.9,2.6-4,3.2-5.5.6-1.5.8-2.5.9-2.5,0,0,0,.3,0,.7,0,.5-.2,1.1-.5,1.9-.5,1.6-1.6,3.7-3.2,5.7-1.6,2-3.5,3.4-5,4.2-.7.4-1.3.7-1.8.9-.4.2-.7.2-.7.2Z"/>
      </g>
      <g>
        <g>
          <path class="cls-1" d="M230.6,242.3s1,7.1,2.5,8.6c0,0,11.7,13.5,12.2,14,.6.6,2.5,1.5,3.5,1,1-.6,1.1-2.1,1.1-2.1,0,0,3,2,4.4,1.3s.9-2,.9-2c0,0,2.3,1.2,3.8-.2,1.5-1.4,1.2-3.7,1.2-3.7,0,0,2,1.5,3.2.3,1.2-1.3,1.5-3.6,1.5-3.6h0l-1.7-3s-4.8-6.6-6.3-8.5c-1.5-1.8-5-3.3-7.6-4.2-2.6-.8-8.6-7.6-8.6-7.6l-10.1,9.6Z"/>
          <path class="cls-8" d="M271.3,152.1c-5.3-2.1-11.3-1.9-16.7.3-8.4,3.5-22.7,9.3-24.7,10.1-2.9,1.1-31.9,11.2-35.7,23.8,0,0-2,3.9,0,7,2.8,4.5,9.8,20,21.9,35l14,14.1,10.8-9.4s-9.1-23-12.7-31.6c-3.6-8.6-3-7.3-3-7.3,0,0,6.9-3.4,15.1-5.4s18.3-7,18.3-7c0,0,14.2-5.2,16.9-9.2,2.7-4.1,4.5-13.8,0-17.8-1.1-1-2.6-1.8-4.2-2.5Z"/>
          <path class="cls-7" d="M258,181.6s-.2.1-.5.3c-.4.2-.9.5-1.6.9-1.4.7-3.5,1.8-6.3,3-1.4.6-3,1.2-4.7,1.8-1.8.6-3.7,1-5.8,1.6-4.1,1.2-8.8,2.9-13.7,5.1v-.2c4.5,10.9,9.9,24.1,15.8,38.9v.2c0,0,0,.1,0,.1-3.4,3-7,6.3-10.8,9.6l-.2.2-.2-.2c-4.6-4.6-9.5-9.5-14.4-14.4h0s0,0,0,0c-.7-.9-1.5-1.9-2.2-2.8-4.8-6.4-9-13-12.7-19.5-1.9-3.3-3.6-6.5-5.3-9.7-.4-.8-.9-1.6-1.3-2.3-.2-.4-.5-.8-.7-1.2-.2-.4-.3-.9-.4-1.3-.3-1.8,0-3.6.8-5.3h0c.4-1.2,1-2.4,1.7-3.5.7-1,1.5-2.1,2.4-2.9,1.7-1.8,3.7-3.3,5.6-4.7,3.9-2.7,7.9-4.9,11.8-6.8,7.7-3.7,14.9-6,20.6-8.5,5.8-2.3,10.3-4.2,13.5-5.4,1.6-.6,2.8-1.1,3.6-1.4.4-.2.7-.3.9-.4.2,0,.3-.1.3-.1,0,0-.1,0-.3.1-.2,0-.5.2-.9.4-.8.3-2,.8-3.6,1.5-3.1,1.3-7.7,3.2-13.4,5.6-5.7,2.5-12.9,4.8-20.5,8.6-3.8,1.9-7.8,4-11.7,6.8-1.9,1.4-3.8,2.9-5.5,4.7-.9.9-1.6,1.9-2.4,2.9-.7,1.1-1.3,2.2-1.6,3.4h0s0,0,0,0c-.7,1.5-1,3.3-.7,5,0,.4.2.8.4,1.2.2.4.4.7.7,1.1.5.8.9,1.6,1.3,2.4,1.7,3.2,3.4,6.4,5.3,9.7,3.7,6.5,7.9,13.1,12.7,19.5.8,1,1.5,1.9,2.2,2.8h0c4.9,4.9,9.8,9.7,14.4,14.4h-.3c3.7-3.3,7.3-6.5,10.8-9.6v.3c-6-14.8-11.3-28.1-15.7-38.9v-.2c0,0,0,0,0,0,5-2.2,9.6-3.8,13.8-5,2.1-.6,4-1,5.8-1.6,1.8-.6,3.3-1.2,4.7-1.7,2.8-1.1,4.9-2.2,6.4-2.9.7-.4,1.2-.6,1.6-.8.4-.2.6-.3.6-.3Z"/>
          <path class="cls-7" d="M214.5,187.5c0,0,.7,0,1.9.3,1.1.3,2.6.9,4.2,1.9,1.5,1,2.7,2.1,3.5,2.9.8.9,1.2,1.5,1.1,1.5-.1.1-1.9-2.2-4.9-4-3-1.9-5.8-2.5-5.8-2.7Z"/>
        </g>
        <path class="cls-12" d="M234.5,237.6s0,0-.3-.3c-.2-.2-.4-.5-.7-.8-.6-.7-1.5-1.8-2.7-3.1-2.4-2.7-5.7-6.6-9.9-11.5-1.1-1.2-2.1-2.5-3.1-3.9-1-1.4-2-3-3-4.5-2-3.2-4.2-6.5-6.5-10.1-1.1-1.8-2.3-3.6-3.5-5.5-1.3-1.8-2.1-4.1-2.4-6.4-.2-2.3,0-4.8,1.1-7,.3-.5.7-1.1,1.1-1.5.4-.4.9-.8,1.4-1.2,1-.7,2.1-1.3,3.1-1.9,17.5-8.6,33.9-15.4,45.8-19.9,6-2.3,10.9-4,14.2-5.2,1.7-.6,3-1,3.9-1.3.4-.1.8-.2,1-.3.2,0,.4-.1.4,0s-.1,0-.3.1c-.3,0-.6.2-1,.4-.9.3-2.2.8-3.9,1.4-3.4,1.2-8.2,3-14.2,5.3-11.9,4.6-28.2,11.4-45.7,20-1.1.6-2.1,1.1-3.1,1.8-.9.7-1.9,1.5-2.3,2.5-1,2.1-1.3,4.4-1.1,6.7.3,2.3,1.1,4.4,2.3,6.2,1.2,1.9,2.4,3.7,3.5,5.5,2.3,3.6,4.4,7,6.4,10.1,1,1.6,2,3.1,3,4.5,1,1.4,2,2.7,3.1,3.9,4.1,4.9,7.4,8.8,9.8,11.6,1.1,1.4,2,2.4,2.6,3.2.3.3.5.6.7.8.1.2.2.3.2.3Z"/>
        <path class="cls-12" d="M237.7,235.6s0,0-.2-.3c-.2-.2-.4-.5-.6-.8-.6-.7-1.4-1.7-2.4-3-2.1-2.7-5.1-6.5-8.8-11.3-3.7-4.8-8.1-10.5-12.7-17-1.2-1.6-2.3-3.3-3.5-5.1-.6-.9-1.1-1.8-1.6-2.8-.4-1-.8-2-1-3.1-.2-1.1-.2-2.3.3-3.4.5-1.1,1.4-1.8,2-2.7,0-.1.1-.2.2-.3.1-.1.3-.3.4-.3.2-.2.5-.3.7-.5.5-.3,1-.6,1.5-.8,1-.5,2.1-1,3.1-1.5,8.4-3.9,16.5-7.4,23.8-10.6,7.4-3.1,14-5.9,19.6-8.2,5.6-2.3,10.2-4.1,13.3-5.3,3.2-1.2,5-1.8,5-1.6,0,0-.1,0-.3,0-.2,0-.5.2-1,.3-.8.3-2.1.8-3.6,1.4-3.1,1.3-7.7,3.1-13.3,5.4-5.6,2.3-12.2,5.1-19.6,8.3-7.3,3.2-15.4,6.7-23.8,10.6-1,.5-2.1,1-3.1,1.5-.5.3-1,.5-1.5.8-.2.1-.5.3-.7.4-.1,0-.2.1-.3.2,0,0-.2.2-.2.4-.7,1-1.6,1.7-2,2.6-.5.9-.5,2-.3,3.1.2,1,.6,2,1,3,.5.9,1,1.8,1.6,2.7,1.1,1.8,2.3,3.4,3.4,5.1,4.6,6.5,9,12.3,12.6,17.1,3.7,4.8,6.6,8.7,8.7,11.4,1,1.3,1.8,2.4,2.4,3.1.3.3.5.6.6.8.1.2.2.3.2.3Z"/>
        <path class="cls-9" d="M276,176.6c0,0,1-1.5,1.9-4.1.9-2.6,1.6-6.5.6-10.6-1-4.1-3.3-7.3-5.3-9.3-2-1.9-3.6-2.7-3.5-2.8,0,0,.4.2,1.1.6.7.4,1.6,1.1,2.7,2,2.1,1.9,4.5,5.2,5.5,9.4,1,4.2.3,8.3-.8,10.9-.5,1.3-1.1,2.3-1.5,3-.4.7-.7,1-.7,1Z"/>
      </g>
    </g>
  </g>
</svg>