<?xml version="1.0" encoding="UTF-8"?>
<svg id="Camada_1" data-name="Camada 1" xmlns="http://www.w3.org/2000/svg" version="1.1" viewBox="0 0 750 500">
  <defs>
    <style>
      .cls-1 {
        fill: #6f98e2;
      }

      .cls-1, .cls-2, .cls-3, .cls-4, .cls-5, .cls-6, .cls-7, .cls-8, .cls-9, .cls-10, .cls-11, .cls-12, .cls-13, .cls-14, .cls-15, .cls-16, .cls-17 {
        stroke-width: 0px;
      }

      .cls-2, .cls-3, .cls-4, .cls-6, .cls-18 {
        isolation: isolate;
      }

      .cls-2, .cls-4 {
        mix-blend-mode: multiply;
      }

      .cls-2, .cls-12 {
        fill: #dceaff;
      }

      .cls-3 {
        opacity: .5;
      }

      .cls-3, .cls-6 {
        mix-blend-mode: soft-light;
      }

      .cls-3, .cls-6, .cls-14 {
        fill: #fff;
      }

      .cls-4 {
        fill: #d3def2;
      }

      .cls-5 {
        fill: #5e80bc;
      }

      .cls-6 {
        opacity: .3;
      }

      .cls-7 {
        fill: #52808f;
      }

      .cls-8 {
        fill: #e0d95a;
      }

      .cls-9 {
        fill: #f5f4ce;
      }

      .cls-10 {
        fill: #32547c;
      }

      .cls-11 {
        fill: #0e2a3a;
      }

      .cls-19 {
        opacity: .2;
      }

      .cls-13 {
        fill: #abc9ff;
      }

      .cls-15 {
        fill: #9cc;
      }

      .cls-16 {
        fill: #42669b;
      }

      .cls-17 {
        fill: #dd4545;
      }
    </style>
  </defs>
  <g class="cls-18">
    <g id="OBJECTS">
      <g class="cls-19">
        <path class="cls-15" d="M506.8,146.7c47-3.4,94.4-.2,140.6,9.4-7-2.2-13.9-4.8-20.9-7,5.4-4.3,6-13.5,1.1-18.4-4.9-4.9-14-4.6-18.4.8,2.5-7.1,4-14.8,3-22.3s-4.7-14.9-10.8-19.3c-9.8-7.1-24.2-5.4-33.8,2.1-9.6,7.4-14.7,19.4-16.5,31.4-4.7-3.3-12.1-3.5-16.6.2-4.4,3.7-5.9,10.5-3.5,15.7-8.2,2.8-15.9,4.9-24.2,7.6v-.2Z"/>
        <path class="cls-15" d="M37.6,393.1c61.4-18.2,126-25.7,189.9-22.1-13.9-2-28.9-5-42.8-7,3.4-5.8,6.6-11.6,8.1-18.2s.6-14.1-3.9-19.2c-3.8-4.3-9.6-6.3-15.3-6.4s-11.3,1.5-16.6,3.5c.4-15.5.4-32.4-9.3-44.4-8.8-10.9-23.7-15.1-37.8-15.3-9.2,0-18.7,1.4-26.7,6-12.6,7.3-20.1,21.7-21.3,36.2-1.3,14.5,3,29,9.5,42.1-4.6-2.1-10.2-.2-13.7,3.5s-4.9,8.9-4.9,13.9,1.5,10,3.1,14.7c-6.8,4.3-11.5,8.5-18.3,12.8h0Z"/>
        <path class="cls-15" d="M147,132.6c35.5-9.1,72.2-13.4,108.9-12.7-6.7-1.8-13.8-2.7-20.7-2.8,2.5-.9,3.5-4.5,2.5-6.9s-3.6-4-6.3-4.2c-2.6-.2-5.3.6-7.6,1.9,4.5-6.1,5.5-14.5,2.7-21.4-2.8-7-9.5-12.2-16.9-13.4s-15.4,1.7-20.3,7.5c-4.8,5.7-6.5,13.4-7.3,20.8-2.9-3.7-8.3-5.1-12.8-3.7s-8,5.3-9.3,9.9-.5,9.5,1.7,13.7c-1.9-.6-3.6-.6-5.5,0s-3.6,1.8-4.6,3.6c-.9,1.8-.9,4,.1,5.7-1.7.7-2.8,1.6-4.5,2.3v-.2Z"/>
        <path class="cls-15" d="M601.6,320.1c32.1,1.5,64,7.3,94.5,17.2-4.4-1.7-8.8-3.6-13.3-5.3,2-.8,3.1-3.3,2.4-5.3-.8-2-3.3-3.1-5.3-2.4,3.5-2.7,6.1-6.7,7-11,.9-4.4.2-9-1.9-12.9-1.6-2.8-3.9-5.2-6.5-7.1-8-5.4-19.1-5.2-27.5-.5s-14.3,13.3-16.9,22.6c-.6-5.1-6-9.1-11.1-8.3-5.1.9-8.9,6.4-7.8,11.5-4.4-.3-9.2.7-13.5,1.5h-.1Z"/>
      </g>
      <g>
        <g>
          <path class="cls-9" d="M620.6,159.5c4.8.1,9.5.3,14.3.4,5.6-19,8.4-39,8.6-59.1-7.9,4.4-15.6,9.2-22.9,14.4v12.5c-2-2.7-3.9-5.4-5.9-8.1-23.9,18-44.5,40.5-60.7,65.7,3,4.3,5.9,8.6,8.9,12.9-5-1-10-1.9-15-2.9-16.1,27.8-27,58.5-31.4,90.4,36.6-14.7,72-41.4,94.2-74,9.8-14.3,17.2-29.9,22.6-46.1-4.3-1.7-8.5-3.7-12.6-6h0Z"/>
          <path class="cls-8" d="M634.8,114.6c-6.9,10.4-14,20.7-21.1,31s-14.3,20.5-21.5,30.7c-7.3,10.2-14.7,20.4-22.1,30.5s-14.9,20.1-22.5,30c-7.6,10-15.3,19.9-23,29.8s-1.9,2.4-2.9,3.7.3,1.2.7.7c7.7-9.8,15.4-19.7,23-29.6s15.2-20,22.6-30.1,14.9-20.2,22.2-30.4,14.5-20.4,21.7-30.8c7.2-10.3,14.2-20.7,21.2-31.1s1.7-2.6,2.6-3.9-.5-1-.9-.5h0Z"/>
        </g>
        <g>
          <path class="cls-8" d="M135.6,281.9c29.3,36.8,76,59.1,123.1,58.8"/>
          <path class="cls-8" d="M240.1,339.7c-7.1-3.6-12.9-9.7-16.4-16.9-3.4-7.2-4.4-15.5-2.7-23.4,7.4,3.1,13.9,9.2,17.5,16.4,3.6,7.2,3.6,16,1.6,23.8h0Z"/>
          <path class="cls-8" d="M217,335.8c-7.1-3.6-12.9-9.7-16.4-16.9-3.4-7.2-4.4-15.5-2.7-23.4,7.4,3.1,13.9,9.2,17.5,16.4,3.6,7.2,3.6,16,1.6,23.8h0Z"/>
          <path class="cls-8" d="M187.9,323.6c-7.1-3.6-12.9-9.7-16.4-16.9-3.4-7.2-4.4-15.5-2.7-23.4,7.4,3.1,13.9,9.2,17.5,16.4,3.6,7.2,3.6,16,1.6,23.8h0Z"/>
          <path class="cls-8" d="M158.3,304.9c-5-6.2-8-14-8.2-22-.3-8,2.2-16,6.8-22.5,5.5,5.8,9,14,9.4,22s-3.1,16.1-8,22.5Z"/>
          <path class="cls-8" d="M138.8,285.7c-5-6.2-8-14-8.2-22-.3-8,2.2-16,6.8-22.5,5.5,5.8,9,14,9.4,22s-3.1,16.1-8,22.5Z"/>
          <path class="cls-8" d="M234.3,338.9c-8-.6-16.1,1.5-22.8,5.9s-11.9,11-14.5,18.5c8,1.2,16.6-.6,23.4-4.9,6.8-4.3,11.4-11.8,13.8-19.5h.1Z"/>
          <path class="cls-8" d="M206.5,331.4c-7.7-2.1-16.1-1.7-23.5,1.3s-13.8,8.4-17.9,15.3c7.6,2.7,16.4,2.6,24-.2,7.5-2.8,13.5-9.4,17.4-16.4h0Z"/>
          <path class="cls-8" d="M183.9,321.2c-6.7-4.4-14.8-6.5-22.8-5.9s-15.7,3.8-21.7,9.1c6.4,4.9,14.8,7.5,22.9,7.1,8-.4,15.7-4.8,21.6-10.3h0Z"/>
          <path class="cls-8" d="M157.4,304.1c-6.1-5.1-14-8.1-21.9-8.4s-16,2-22.6,6.6c5.8,5.6,13.9,9.1,21.9,9.6s16.1-3,22.6-7.8h0Z"/>
          <path class="cls-8" d="M139.2,286.4c-4-6.9-10.3-12.5-17.6-15.6-7.4-3.1-15.7-3.7-23.5-1.7,3.5,7.3,9.8,13.4,17.2,16.7,7.3,3.3,16.2,2.8,23.9.6Z"/>
        </g>
        <g>
          <path class="cls-8" d="M664.5,238.6c-36.8,29.2-87.3,40.5-133.1,29.7"/>
          <path class="cls-8" d="M549.7,271.5c7.7-2,14.8-6.5,19.7-12.8,5-6.3,7.8-14.2,7.9-22.1-7.9,1.4-15.6,5.9-20.7,12.1-5.1,6.2-7.1,14.8-7,22.9h0Z"/>
          <path class="cls-8" d="M573.1,272.9c7.7-2,14.8-6.5,19.7-12.8,5-6.3,7.8-14.2,7.9-22.1-7.9,1.4-15.6,5.9-20.7,12.1-5.1,6.2-7.1,14.8-7,22.9h0Z"/>
          <path class="cls-8" d="M604.2,267.6c7.7-2,14.8-6.5,19.7-12.8,5-6.3,7.8-14.2,7.9-22.1-7.9,1.4-15.6,5.9-20.7,12.1-5.1,6.2-7.1,14.8-7,22.9h0Z"/>
          <path class="cls-8" d="M637.2,256c6.3-4.9,10.9-11.9,13-19.6,2-7.7,1.5-16.1-1.6-23.5-6.7,4.4-11.9,11.6-14.1,19.3-2.2,7.7-.6,16.4,2.8,23.7h-.1Z"/>
          <path class="cls-8" d="M660.5,241.6c6.3-4.9,10.9-11.9,13-19.6,2-7.7,1.5-16.1-1.6-23.5-6.7,4.4-11.9,11.6-14.1,19.3-2.2,7.7-.6,16.4,2.8,23.7h-.1Z"/>
          <path class="cls-8" d="M555.5,272.1c7.9,1.2,15.3,5.1,20.9,10.8s9.1,13.4,10,21.3c-8-.6-16.1-4.4-21.8-10s-8.5-14.1-9.1-22.1h0Z"/>
          <path class="cls-8" d="M584.3,271c8-.4,16,2,22.6,6.5,6.5,4.6,11.5,11.3,14,18.9-8,1-16.6-1.1-23.3-5.6s-11.1-12.1-13.3-19.9h0Z"/>
          <path class="cls-8" d="M608.6,266.1c7.5-2.8,15.9-3,23.5-.7s14.4,7.3,19.1,13.7c-7.3,3.4-16.1,4-23.9,1.8-7.7-2.2-14.2-8.2-18.7-14.9h0Z"/>
          <path class="cls-8" d="M638.3,255.4c7.1-3.6,15.4-4.8,23.3-3.3,7.8,1.5,15.2,5.6,20.5,11.5-6.9,4.2-15.6,5.8-23.5,4.5s-15.1-6.5-20.2-12.7h0Z"/>
          <path class="cls-8" d="M660,242.2c5.4-5.9,12.8-9.9,20.7-11.2,7.9-1.4,16.2,0,23.2,3.6-5,6.3-12.6,10.9-20.5,12.4s-16.4-.9-23.4-4.8Z"/>
        </g>
        <g>
          <path class="cls-9" d="M181.2,376.4c-3,2-6.1,4-9.1,6-11.3-10.1-21.1-21.8-29.3-34.8,6.9-.4,13.7-.3,20.6.1,1.7,2.7,3.4,5.4,5.1,8.1.2-2.5.4-5.1.6-7.6,22.7,2.1,45,8.3,65.6,18.2-.2,4-.4,7.9-.6,11.9,2.9-2.6,5.7-5.2,8.6-7.9,21.5,11.5,40.9,27,56.5,45.9-29.6,5.1-63.2,2.1-90.6-10.1-12.1-5.4-23.1-12.4-33.1-20.8,2.1-2.8,4-5.8,5.7-8.9h0Z"/>
          <path class="cls-8" d="M153.6,353.9c8.7,4,17.4,7.8,26.2,11.7,8.7,3.8,17.4,7.5,26.2,11.2s17.6,7.3,26.5,10.8,17.8,7,26.7,10.4c8.9,3.4,17.9,6.8,26.8,10s2.2.8,3.3,1.2.9-.7.3-1c-8.9-3.2-17.8-6.5-26.7-9.9s-17.7-6.8-26.6-10.3c-8.9-3.5-17.7-7.1-26.5-10.8s-17.6-7.4-26.4-11.2-17.4-7.6-26.1-11.6-2.2-1-3.2-1.5-1.1.6-.5.9h0Z"/>
        </g>
        <g>
          <path class="cls-8" d="M282.7,402.8c-9.8,6.8-22.2,8.5-34.2,7.9.3,1.8.6,3.7,1,5.5-1.3-1.9-2.6-3.8-3.9-5.7-.9,0-1.8-.2-2.7-.3-13.7-1.5-27.2-5.2-41-5.7h-2.6c-.2,1-.3,2.1-.3,3.2-.6-1-1.2-2.1-1.8-3.1-6.6.3-13.2,1.9-17.9,6.4-6.1,5.9-7.3,15.7-4,23.5s10.4,13.5,18.3,16.5c4.8,1.8,9.9,2.7,15.1,2.9,0-2.7-.2-5.5-.3-8.2,1.4,2.8,2.7,5.5,4.1,8.3,2,0,4.1,0,6.1-.2,27.8-1.9,54.6-15.1,73.1-35.8l-9-15.2h0Z"/>
          <path class="cls-9" d="M282.2,411.7c-9.9,7.8-22.6,10.7-35,11.3-14.1.6-28.2-1.4-42.3-1.2s-15.3.9-22.6,3.2-.3,1.1.3,1c13.4-4.1,27.5-3.3,41.3-2.5,13.6.8,27.5,1.6,40.7-2,13.2-3.6,12.9-4.7,18.3-9s-.2-1.1-.7-.7h0Z"/>
        </g>
        <g>
          <path class="cls-8" d="M517.4,227.4c7.3-13.3,7.6-29.2,5.1-44.3,2.4.2,4.7.3,7.1.5-2.6-1.4-5.1-2.7-7.7-4.1-.2-1.1-.5-2.3-.7-3.4-3.8-17.1-10.4-33.6-12.9-51-.2-1.1-.3-2.1-.4-3.2,1.3-.4,2.6-.7,4-.8-1.4-.6-2.8-1.2-4.2-1.8-.6-8.4.5-16.9,5.5-23.5,6.5-8.5,18.8-11.5,29.1-8.4,10.3,3,18.6,11.2,23.4,20.8,3,5.8,4.8,12.2,5.8,18.7l-10.4.8c3.7,1.3,7.4,2.6,11.1,4,.3,2.6.5,5.1.6,7.7,1.5,35.3-11.3,71.1-34.9,97.4l-20.4-9.2v-.2Z"/>
          <path class="cls-9" d="M529.4,226.2c4.1-6.6,6.8-14.1,8.2-21.7s1.8-15.9,1.3-23.9-1.9-17.7-3.4-26.4-3.1-17.6-4-26.6-1.1-17.7,0-26.5.3-2.2.5-3.3-.8-.9-1-.3c-1.6,8.7-1.7,17.5-1,26.2.7,8.8,2.1,17.5,3.6,26.2s3.1,17.6,3.8,26.5.8,16.4-.4,24.4-3.4,15.3-7.2,22.2-1,1.7-1.5,2.5.5,1,.9.5h0v.2Z"/>
        </g>
      </g>
      <g>
        <g>
          <path class="cls-13" d="M554,261.4c0,10.9-1,21.5-2.9,31.9-.7,4.1-1.6,8.1-2.7,12.1h0c-1.4,5.4-3.1,10.7-5,15.9-2.6,7-5.6,13.8-9,20.3h0c-7,13.5-15.8,26-25.9,37.2-31.8,34.9-77.7,56.9-128.7,56.9s-18.6-.7-27.6-2.2c-5.4-.9-10.7-2-15.9-3.3-2.5-.6-5-1.3-7.5-2.1-11.4-3.5-22.3-8.1-32.5-13.7-38.5-21.1-68.1-56.3-82-98.6-5.5-16.9-8.6-35-8.6-53.8v-.4c0-9.1.7-18,2-26.6,1.2-8,3-15.9,5.3-23.5,3.9-13,9.3-25.3,15.9-36.8,15-26,36.5-47.7,62.3-63,26-15.4,56.2-24.2,88.6-24.2s52.1,6,74.8,16.8c23,10.9,43.2,26.8,59.3,46.1,7.3,8.8,13.8,18.4,19.3,28.6h0c6.8,12.5,12,26,15.6,40.1,3.3,13.1,5.1,26.9,5.2,41v1.5-.2Z"/>
          <path class="cls-2" d="M372.7,153.9c-1.8,5.8-7.8,8-13.3,8.8-6.5.9-13.9,1.1-18.1,6.1-4.1,4.9-3.1,12-2.7,18.3.5,6.3-.5,14-6.3,16.7-2.8,1.3-6.6,1.4-8,4.2-1.4,2.6.6,5.8,2.9,7.5,2.4,1.7,5.3,2.8,7.2,5,4,4.6,1.6,12.2-3.1,15.9-4.8,3.7-11.2,4.5-17.2,5.2s-12.4,1.5-17.2,5.2c-5.5,4.2-8.2,11.5-14.2,14.7-7.8,4.2-18.5-1-21.6-9.3-2-5.5-1.2-11.6,1.3-16.8,1.2-2.4,2.9-5.3,5-7,2.3-1.9,5.4-2.5,8.2-3.6,2.5-1,5.1-2.9,5.1-5.6s-1.6-3.9-3.3-5.2c-1.7-1.3-3.7-2.3-4.9-4-2.7-3.7-1.4-9-3.5-13-1.4-2.6-4.3-4.4-7.3-4.4s-5.9,1.7-7.3,4.3c-1.3,2.5-1.5,5.7-3.6,7.5-1.8,1.5-4.4,1.2-6.3,2.4-1.7,1-2.4,3.3-2,5.2.5,2.2,2,4,3.6,5.5s3.4,2.9,4.7,4.7,1.9,4.3,1,6.3c-1.1,2.4-4,3.3-6.6,3.5s-5.3,0-7.7,1c-3.6,1.6-5.5,5.7-8.9,7.8-3.8,2.4-9.4,1.6-12.4-1.8-.9-1-1.5-2.2-2.4-3.2s-2-1.9-3.3-2c-1,0-1.9.3-2.7.8,8-52.5,39.6-97.3,83.5-123.3.6,1,1.3,1.9,2.2,2.7,3.5,3.3,8.9,2.2,12.9.4,3.4-1.5,6.5-3.6,9.8-5.4s6.9-3.2,10.7-3c3.7,0,7.6,2.2,9,5.7,1.3,3.3.3,7.2,1.9,10.3,1.5,3,5,4.5,8.4,4.9,3.3.4,6.7,0,10.1.4,12.2,1.6,20,14.8,16.4,26.5h0Z"/>
          <path class="cls-2" d="M357,418.5c-1.3.7-2.9.9-3.9,2-2.3,2.5.9,6.5.6,9.9-.1,1.2-.6,2.2-1.4,3-20-3.2-38.8-9.8-55.9-19.1-.6-1.6-1.2-3.2-2.1-4.7-2.6-4.6-5-8.9-9.6-11.8-3.9-2.5-8.3-4-12.5-6.1-4.1-2.1-8.2-4.8-10.4-8.9-2.9-5.4-2.2-12.3-5.6-17.4-1.8-2.7-4.7-4.6-7.2-6.7-3.5-3-3.8-5.4-4.8-9.5-1-3.8-3.8-6.3-2.7-10.6.9-3.5,3.8-6.1,6-8.9,2.2-2.9,3.7-7,1.6-10-1.4-1.9-3.9-2.7-6.3-2.9-2.4-.2-4.8,0-7.1-.6-3.2-.9-3.3-2.8-4.8-5.2-1.4-2.3-3.7-3.6-4.7-6.2-2-5.1.9-10.7,3.4-15.6.8-1.7,1.7-3.4,1.7-5.3s-1-3.9-2.9-4.4c-2.7-.7-5,2.1-6,4.8-2,5.3-1.9,11.4.3,16.7,1.5,3.7,4,7.9,2.1,11.4-1.5,2.8-5.2,3.6-8.4,3.4-.7,0-1.4-.1-2.1-.2-5.5-16.9-8.6-35-8.6-53.8h.2c3-1.4,4.9-4.3,7.2-6.6,3.2-3.1,8.3-5,11.3-.7,1.2,1.7,1.2,2.9,3.2,4,5,2.6,8.2-1.5,12.2-4.4,1.2-.9,2.5-1.8,4-1.8s3,1,3.9,2.2c3.1,4.3,2.5,9.9.8,14.6-1.1,3-2.4,6-2.6,9.1-.2,3.2,1,6.7,3.9,8.1,2.9,1.5,6.5.4,9.1-1.6s4.5-4.7,6.8-6.9c2.3-2.2,5.4-4.1,8.7-3.6,3.2.4,5.5,2.8,8.2,4.3,3.3,1.9,5.4.8,8.8,1.2,6.6.7,13.6,4.4,16,10.9,1.9,5.1.6,10.8.1,16.2-.5,5.4,0,11.7,4.5,15,5.7,4.3,14.6,1,20.6,4.9,4.8,3.1,6,9.6,5.1,15.2s-3.3,10.9-4.2,16.4c-.9,5.6.4,12.1,5.1,15.2,2.7,1.7,6,2,9,3.2,3,1.1,5.9,3.8,5.5,6.9-.4,3.3-4,5.1-5.6,7.9-1.8,3.2-.8,7.4,1.4,10.3,2.8,3.6,10.1,5.7,11.1,10.1.6,2.5-.7,5.4-3.1,6.6h.1Z"/>
          <path class="cls-2" d="M551.1,293.2c-2.4,3.4-4.1,7.6-2.9,11.5,0,.2,0,.4.2.6h0c-3.3,12.7-8,24.8-13.9,36.2h0c-8.7,1.7-17.9.5-25.7-3.7-4.2-2.3-7.9-5.3-12.2-7.4-6.1-2.9-11.2-1.9-16.7,2.1-3.8,2.8-6.9,6.3-10.5,9.4-3.5,3.1-7.7,5.8-12.3,6.3-4.7.5-9.9-1.7-11.6-6.1-1.5-3.9,0-8.2,1.1-12.3,1.2-4,1.8-8.8-.9-12-1.9-2.2-5-3-7.5-4.5-3.7-2.1-6.4-5.9-7.3-10-2.5-11.8,6.9-17.1,16-21.1,6.2-2.8,14.1-9.1,9.8-16.7-1.6-2.9-4.7-3.6-7.1-5.6-3.2-2.6-6.5-5.5-11-4-5.6,1.8-7.1,9.8-12.6,12.1-3.2,1.3-6.9.3-9.9-1.4-3-1.7-5.6-4.1-8.6-5.8-3-1.7-6.8-2.5-9.9-1-2.9,1.4-4.5,4.6-6.7,7-4.1,4.6-10.4,6-16.3,4.9-7-1.3-13.4-2.2-19.8-5.8-7.9-4.3-15.3-13.4-11.6-21.6,3.3-7.2,13.2-9.1,17.4-15.8,6.7-10.5-4-26.2,3.2-36.4,4-5.7,11.8-6.8,18.6-8.4,6.8-1.6,14.5-5.5,15-12.5.3-4.5-2.5-9.2-.7-13.2,3.2-7.2,15.4-3.4,20.7-9.1,3.9-4.1,2.4-11.6,6.6-15.4,7.6-6.9,20.8,6.9,29.2,1,3.8-2.7,4.3-8.2,3.3-12.7s-3-8.9-3-13.5.3-2.9.9-4.3c46.4,22.1,81.4,64,94.2,114.8-3.9-.9-7.8-2.8-11.4-4.4-6.2-2.8-13.7-5.1-19.6-1.7-5,2.9-7.2,9.4-6.1,15.1,1.1,5.7,5,10.5,9.6,14,8,6,18.2,8.4,26.8,13.5,2.1,1.3,4.1,2.8,5.9,4.6v1.5c0,10.9-1,21.5-2.9,31.9h.2Z"/>
          <path class="cls-2" d="M554,259.9c0-14.1-1.9-27.9-5.2-41-4.5-18.1-11.9-35-21.6-50.3.4,4.8.7,9.7.7,14.6v1.5c0,10.9-1,21.5-2.9,31.9-.7,4.1-1.6,8.1-2.7,12.1h0c-3.3,12.7-8,24.8-13.9,36.2h0c-29,55.8-87.4,94-154.6,94s-18.6-.7-27.6-2.2c-20-3.2-38.8-9.8-55.9-19.1-26-14.3-48-35-63.8-60,1.2,13.2,3.9,25.9,7.9,38.1,13.9,42.4,43.5,77.6,82,98.6,17.1,9.4,35.9,15.9,55.9,19.1,9,1.4,18.2,2.2,27.6,2.2,67.3,0,125.6-38.2,154.6-94h0c5.9-11.4,10.6-23.5,13.9-36.2h0c1-4,1.9-8,2.7-12.1,1.9-10.3,2.9-21,2.9-31.9s0-1,0-1.5h0Z"/>
          <ellipse class="cls-3" cx="308.7" cy="184.8" rx="85.1" ry="56.5" transform="translate(-44.9 251.6) rotate(-41.6)"/>
        </g>
        <g>
          <path class="cls-2" d="M543.5,321.2c-2.6,7-5.6,13.8-9,20.3h0c-7,13.5-15.8,26-25.9,37.2-47.9,17.4-117.6,49.6-172.2,51.4-2.5-.6-5-1.3-7.5-2.1l-1.3-47.3,209.8-66.1s2.6,2.6,6.1,6.6Z"/>
          <path class="cls-1" d="M241.7,367.4c85.2,17.8,230.9-109.7,374-92.2l-13,30.1,37,37.3c-124.9-7-209.4,82.3-309.5,85.7-77.8,2.7-88.6-61-88.6-61h0Z"/>
          <path class="cls-2" d="M533.2,178.8h0c-34.4-16-73.7-13.4-109.9-2.4-36.3,10.9-70.4,28.2-107,38.1-33.9,9.2-71.7,11.5-103.2-3.2,3.9-13,9.3-25.3,15.9-36.8,47.8,6.2,118.6-15.4,181.9-27,42-7.8,80.8-2.1,103,2.8,7.3,8.8,13.8,18.4,19.3,28.6h0Z"/>
          <path class="cls-1" d="M165.9,135.2c6.3,33.3,36.7,58.3,69.6,66.5,32.9,8.2,67.7,2.4,100.2-7.2,32.5-9.5,64.1-22.7,97.3-29.5,33.2-6.8,70.4-2.2,100.3,13.8-15.8-53.4-67.4-68.9-67.4-68.9-105.6-24.8-186,61-232.8,1.4l-16.6,28.4-50.5-4.5h0Z"/>
        </g>
      </g>
      <g>
        <path class="cls-12" d="M340.5,122.8l20.4,82.2s-5.8,3.8-15.6,8c-15.6,6.9-41.3,15-69.1,11.3,0,0-2.1-9.2-4.9-21.5-3.9-17.4-9.1-41.1-11.7-54.6-.7-4-1.3-7.1-1.5-8.8-.6-5.8,2.5-10.6,6-14.1h0c3.9-3.9,8.3-6.2,8.3-6.2l47.1-10.6s17.1-.5,20.9,14.4h.1Z"/>
        <path class="cls-7" d="M326,136.1l13.5,54.6c-21.7,8.4-45,12.5-68.3,12-3.9-17.4-9.1-41.1-11.7-54.6,22.6.2,45.3-3.9,66.4-12.1h.1Z"/>
        <path class="cls-2" d="M340.5,122.8l20.4,82.2s-5.8,3.8-15.6,8c-7.7-26.5-15.5-52.9-23.2-79.4-.7-2.5-1.5-5.1-2.8-7.4-1.3-2.3-2.8-4.7-5.3-5.6-16,4.3-32.5,6.8-49.1,7.7-.3-1-.5-2.1-.6-3.2h0c3.9-3.9,8.3-6.2,8.3-6.2l47.1-10.6s17.1-.5,20.9,14.4h0Z"/>
        <path class="cls-7" d="M249.3,107l4.7,19.2c2.9,9,84.5-14.2,82.2-20.4l-4.7-19.2s-82.2,20.4-82.2,20.4Z"/>
        <path class="cls-15" d="M249.3,107c-1.8-5.7,79.8-26.5,82.2-20.4,2.4,6.2-79.3,29.3-82.2,20.4Z"/>
        <path class="cls-3" d="M276.4,185c1.4,2.6,3.1,5.1,5.6,6.8,2.5,1.6,5.9,2.1,8.3.5,2.5-1.6,3.3-4.8,3.7-7.8.9-6.6.4-13.4-1.4-19.9-1.1-4-2.6-7.9-4.6-11.6-1.7-3.1-3.9-7.6-7.5-8.9-3.1-1.1-6.7.4-8.8,2.9-3,3.6-3.4,8.1-3,12.5.4,5.2,1.5,10.4,3.2,15.3,1.2,3.5,2.7,6.9,4.5,10.1h0Z"/>
      </g>
      <g>
        <g>
          <path class="cls-13" d="M220.5,227.8l-22.8,10s-7-10.6-14.1-21.9c-5.3-8.5-10.8-17.5-13.4-22.8-6.1-12.3,13.3-18.9,20.1-7.6.6,1.1,1.8,2.8,3.2,4.9,8.2,12,27,37.4,27,37.4h0Z"/>
          <path class="cls-2" d="M220.5,227.8l-22.8,10s-7-10.6-14.1-21.9c4.2-4.2,7.4-9.5,8.9-15.2.9-3.3,1.2-6.8,1-10.3,8.2,12,27,37.4,27,37.4h0Z"/>
        </g>
        <path class="cls-10" d="M158.4,248.7l-6.9,23.3s25.1,52.6,46.1,87.6,87.5,25.7,117.4-6.1l-156.6-104.8Z"/>
        <path class="cls-5" d="M269.7,371.8c-4.3.3-8.6.3-12.8-.1-7.4-.8-14.6-2.9-21.1-6.6-7.6-4.3-14.3-10.7-19.6-19.5-1-1.6-1.9-3.3-2.9-4.9-35.2-59.7-55-91.9-55-91.9l102.5-43.9s1.1,1.4,3,3.9c4,5.2,11.6,15.2,21.1,27.8,3,4,6.3,8.4,9.6,12.9,2.9,3.9,5.8,7.9,8.8,12,8,10.9,16.3,22.5,24.4,34,24.4,34.7-17,73.1-58.2,76.5l.2-.2Z"/>
        <path class="cls-6" d="M285,236.5c-16.4,42.8-32.8,85.7-49.2,128.5-7.6-4.3-14.3-10.7-19.6-19.5-1-1.6-1.9-3.3-2.9-4.9,1-2.5,1.9-5,2.9-7.6,15.9-41.5,31.7-82.9,47.6-124.4,4,5.2,11.6,15.2,21.1,27.8h.1Z"/>
        <path class="cls-6" d="M303.5,261.4c-12.7,36.3-24,73.2-33.7,110.4-4.3.3-8.6.3-12.8-.1,1.9-7.3,3.9-14.7,5.9-22,9.4-33.8,20-67.2,31.8-100.3,2.9,3.9,5.8,7.9,8.8,12h0Z"/>
        <g>
          <path class="cls-10" d="M257.7,311.6c-3.6.5-12.7,24.2-10.1,29.4s29.2,2.9,32.1.4c4.2-3.7-15.6-30.8-22-29.8Z"/>
          <path class="cls-13" d="M258.7,310.2c-3.6.5-12.7,24.2-10.1,29.4s29.2,2.9,32.1.4c4.2-3.7-15.6-30.8-22-29.8Z"/>
          <path class="cls-10" d="M276.6,302.3c-2.3,3.9,15.8,31.7,21.1,30.2,6.4-1.8,13-27.5,10.2-30.7s-29-3.5-31.3.6h0Z"/>
          <path class="cls-13" d="M277,300.8c-2.3,3.9,15.8,31.7,21.1,30.2,6.4-1.8,13-27.5,10.2-30.7s-29-3.5-31.3.6h0Z"/>
        </g>
        <g>
          <path class="cls-14" d="M292.4,265c-12.2-16.6-23.3-31.3-30.8-41.1-2.5-3.3-7-4.5-10.8-2.8l-67.4,28.9c-4.8,2-6.6,7.8-4,12.3,6.3,10.5,15.1,25,26,43.4,3.2,5.4,10,7.6,15.8,5l67.2-30.2c5.9-2.7,7.9-10.1,4-15.4h0Z"/>
          <path class="cls-12" d="M292.4,265c-12.2-16.6-23.3-31.3-30.8-41.1-2.5-3.3-7-4.5-10.8-2.8l-67.4,28.9c-4.8,2-6.6,7.8-4,12.3.5.8,1,1.7,1.6,2.6l65.4-28c3.8-1.6,8.3-.5,10.8,2.8,7.4,9.7,18.5,24.4,30.7,41l.4-.2c5.9-2.7,7.9-10.1,4-15.4h.1Z"/>
        </g>
        <g class="cls-18">
          <g class="cls-18">
            <path class="cls-1" d="M231.7,279.9c2.1,4.8-1,9.8-7.5,12.7-6.5,2.8-12.3,1.7-14.4-3.1-1.1-2.6-.7-5.1,1-7.4-2.2-.4-4-1.7-4.9-3.9-1.9-4.5.9-9.1,6.8-11.7,5.9-2.6,11.3-1.5,13.2,2.9.9,2.2.7,4.3-.5,6.2,2.8.3,5,1.7,6.1,4.3ZM213.2,275.4c.7,1.7,2.3,2.1,4.1,1.3,1.8-.8,2.6-2.3,1.9-3.9-.7-1.7-2.4-2.1-4.2-1.3-1.8.8-2.6,2.3-1.8,4ZM224.4,282.8c-.8-1.9-2.9-2.5-5.1-1.5-2.3,1-3.3,2.8-2.4,4.8.8,1.9,2.9,2.5,5.1,1.5,2.3-1,3.3-2.8,2.4-4.8Z"/>
            <path class="cls-1" d="M243.9,278.9c.4,1,.6,1.9.6,4.6v6.2s-4.2,1.9-4.2,1.9l-.9-6.6c-1.6,0-2.9-.9-3.7-2.6-1.1-2.4,0-4.8,2.3-5.8,2.3-1,4.8-.2,5.8,2.2Z"/>
            <path class="cls-1" d="M264,265c2,4.5.4,10.1-7.2,13.4-3.5,1.5-7.6,2.3-10.8,1.8l.2-6.5c2.6.5,5.5,0,7.9-1,2.4-1.1,3.6-2.7,2.9-4.4-.7-1.5-2.2-2.1-6-.4l-6.8,3-5.2-15.2,16-7,2.4,5.5-10.1,4.4,1.3,3.8,1.7-.7c7.4-3.2,11.9-1.1,13.8,3.4Z"/>
          </g>
        </g>
        <g class="cls-18">
          <g class="cls-18">
            <path class="cls-11" d="M196,264.3l.5-.2,1.9,4.4,2.7-1.2.2.4-3.2,1.4-2.1-4.9Z"/>
            <path class="cls-11" d="M200.6,265.2c-.6-1.4,0-3,1.5-3.6,1.5-.6,3,0,3.6,1.4.6,1.4,0,3-1.5,3.6-1.5.6-3,0-3.6-1.4ZM205.2,263.2c-.5-1.2-1.7-1.6-2.9-1.1-1.2.5-1.7,1.7-1.2,2.9.5,1.2,1.8,1.6,2.9,1.1,1.2-.5,1.7-1.7,1.2-2.9Z"/>
            <path class="cls-11" d="M211.3,263.4l-1.8-1.1c-.1,0-.2.1-.4.2l-1.3.6.7,1.5-.5.2-2.1-4.9,1.8-.8c1.2-.5,2.3-.2,2.7.8.3.8.2,1.5-.5,2l1.9,1.2-.6.2ZM209.9,260.2c-.3-.8-1-1-2-.6l-1.3.6,1.1,2.4,1.3-.6c1-.4,1.3-1.1,1-1.9Z"/>
            <path class="cls-11" d="M216.3,260.8l.2.4-3.5,1.5-2.1-4.9,3.3-1.4.2.4-2.8,1.2.8,1.7,2.5-1.1.2.4-2.5,1.1.8,1.8,2.9-1.3Z"/>
            <path class="cls-11" d="M220.6,253.6l2.1,4.9-.5.2-1.7-3.9-.5,4.1h-.2c0,.1-3.3-2.3-3.3-2.3l1.7,3.9-.5.2-2.1-4.9.4-.2,3.7,2.7.5-4.5.4-.2Z"/>
            <path class="cls-11" d="M224,252.1l.5-.2,2.1,4.9-.5.2-2.1-4.9Z"/>
            <path class="cls-11" d="M230.7,251.2c.5,1,0,2-1.3,2.5l-1.3.6.7,1.5-.5.2-2.1-4.9,1.8-.8c1.2-.5,2.3-.2,2.7.8ZM230.2,251.5c-.3-.8-1-1-2-.6l-1.3.6,1.1,2.4,1.3-.6c1-.4,1.3-1.1,1-1.9Z"/>
            <path class="cls-11" d="M232.5,253.5v-.5c.5.2,1.3.2,1.9-.1.9-.4,1.1-1,.9-1.4-.6-1.3-3.2.8-4-1-.3-.7,0-1.6,1.2-2.1.6-.2,1.2-.3,1.7-.2v.5c-.5,0-1.1,0-1.5.2-.9.4-1.1,1-.9,1.4.6,1.3,3.2-.8,4,1,.3.7,0,1.6-1.2,2.1-.7.3-1.6.4-2.1.2Z"/>
            <path class="cls-11" d="M236.6,250l-1.2-2.8.5-.2,1.2,2.8c.5,1.2,1.3,1.5,2.2,1,1-.4,1.3-1.2.8-2.3l-1.2-2.8.5-.2,1.2,2.8c.6,1.4.2,2.5-1.1,3s-2.3.1-2.9-1.3Z"/>
            <path class="cls-11" d="M246,242.6l2.1,4.9-.5.2-1.7-3.9-.5,4.1h-.2c0,.1-3.3-2.3-3.3-2.3l1.7,3.9-.5.2-2.1-4.9.4-.2,3.7,2.7.5-4.5.4-.2Z"/>
          </g>
        </g>
      </g>
      <g>
        <polygon class="cls-14" points="480.8 119.8 465.7 151.4 469 153.2 482.9 119.6 480.8 119.8"/>
        <path class="cls-17" d="M457.9,155l3.5-6.6c10.5,2,13.8,5.7,13.8,5.7l-2.1,6.7-15.2-5.8h0Z"/>
        <path class="cls-14" d="M453.9,152.9l-55.6,135,23.2,9.1,55-135.6c-10.3-7.9-22.7-8.5-22.7-8.5h.1Z"/>
        <path class="cls-5" d="M400.3,271.2l-41.9,98.4c13.9,14.1,33.8,15.2,33.8,15.2l40.1-100.8c-10-9-32-12.8-32-12.8Z"/>
        <rect class="cls-10" x="382.9" y="322.5" width="17.3" height="28.6" transform="translate(-66.6 575.2) rotate(-68.2)"/>
        <path class="cls-4" d="M378.4,381.7c7.7,2.6,13.8,3,13.8,3l40.1-100.8c-3.2-2.9-7.6-5.2-12.2-7.1l-41.7,104.8h0Z"/>
        <path class="cls-16" d="M363,370.7l-6.8,11.7c6.1,8,29.1,12.6,29.1,12.6l3.7-13.9c-7.5-6.1-26-10.4-26-10.4h0Z"/>
        <rect class="cls-10" x="456.8" y="158.8" width="2.1" height="12.7" transform="translate(134.4 528.9) rotate(-68.2)"/>
        <rect class="cls-10" x="451.8" y="171.1" width="2.1" height="12.7" transform="translate(119.9 532.1) rotate(-68.2)"/>
        <rect class="cls-10" x="447" y="183.3" width="2.1" height="12.7" transform="translate(105.5 535.2) rotate(-68.2)"/>
        <rect class="cls-10" x="442.1" y="195.6" width="2.1" height="12.7" transform="translate(91 538.4) rotate(-68.2)"/>
        <rect class="cls-10" x="437.1" y="207.9" width="2.1" height="12.7" transform="translate(76.5 541.6) rotate(-68.2)"/>
        <rect class="cls-10" x="432.3" y="220.1" width="2.1" height="12.7" transform="translate(62.1 544.7) rotate(-68.2)"/>
        <rect class="cls-10" x="427.3" y="232.4" width="2.1" height="12.7" transform="translate(47.6 547.9) rotate(-68.2)"/>
        <rect class="cls-10" x="422.5" y="244.7" width="2.1" height="12.7" transform="translate(33.2 551) rotate(-68.2)"/>
        <rect class="cls-10" x="417.5" y="257" width="2.1" height="12.7" transform="translate(18.7 554.2) rotate(-68.2)"/>
      </g>
      <g>
        <path class="cls-5" d="M538.8,325.7l-24.2,70.1s-6.1,0-15.3-1.5c-14.7-2.4-37.5-8.6-56.1-24.7,0,0,2.8-7.7,6.7-18.1,5.4-14.6,12.9-34.5,17.5-45.7,1.3-3.3,2.4-5.8,3.1-7.2,2.3-4.6,6.9-6.6,11.1-7.5h0c4.7-1,9-.6,9-.6l39.7,14.7s12.8,7.8,8.5,20.5h0Z"/>
        <path class="cls-8" d="M521.9,328.5l-16.1,46.6c-19.9-4.2-39-12.3-55.9-23.7,5.4-14.6,12.9-34.5,17.5-45.7,16.5,10.9,35.1,18.7,54.5,22.8h0Z"/>
        <path class="cls-2" d="M538.8,325.7l-24.2,70.1s-6.1,0-15.3-1.5c6.9-23.1,13.9-46.3,20.8-69.4.7-2.2,1.3-4.5,1.5-6.8,0-2.3.2-4.8-1.2-6.6-13.8-4.5-27.2-10.5-39.7-17.8.3-.9.6-1.8,1-2.6h0c4.7-1,9-.6,9-.6l39.7,14.7s12.8,7.8,8.5,20.5h0Z"/>
        <path class="cls-8" d="M479.4,270.6l-5.6,16.3c-2.1,8,68.9,29.9,70.1,24.2l5.6-16.3-70.1-24.2h0Z"/>
        <path class="cls-9" d="M479.4,270.6c1.4-5,71.3,18.6,70.1,24.2-1.2,5.7-72.2-16.3-70.1-24.2Z"/>
        <path class="cls-3" d="M462.1,340.8c-.2,2.6-.2,5.3.9,7.6s3.3,4.4,5.9,4.3c2.6,0,4.7-2,6.4-3.9,3.8-4.4,6.7-9.7,8.5-15.3,1.1-3.5,1.8-7.1,2.1-10.7.3-3.1.7-7.5-1.3-10.1-1.7-2.3-5.1-2.9-7.8-2.1-3.9,1.2-6.3,4.3-8.2,7.7-2.2,4-3.8,8.3-5,12.8-.8,3.1-1.3,6.4-1.5,9.6h0Z"/>
      </g>
      <g>
        <path class="cls-14" d="M605.4,410.7h-8.4l.5.5v-8.4c0-.3-.2-.5-.5-.5h-8.7c-.3,0-.5.2-.5.5v8.4l.5-.5h-8.4c-.3,0-.5.2-.5.5v8.7c0,.3.2.5.5.5h8.4l-.5-.5v8.4c0,.3.2.5.5.5h8.7c.3,0,.5-.2.5-.5v-8.4l-.5.5h8.4c.3,0,.5-.2.5-.5v-8.7c0-.6-1-.6-1,0v8.7l.5-.5h-8.4c-.3,0-.5.2-.5.5v8.4l.5-.5h-8.7l.5.5v-8.4c0-.3-.2-.5-.5-.5h-8.4l.5.5v-8.7l-.5.5h8.4c.3,0,.5-.2.5-.5v-8.4l-.5.5h8.7l-.5-.5v8.4c0,.3.2.5.5.5h8.4c.6,0,.6-1,0-1Z"/>
        <path class="cls-14" d="M577.1,56.3h-9.7l.5.5v-9.7c0-.3-.2-.5-.5-.5h-10.1c-.3,0-.5.2-.5.5v9.7l.5-.5h-9.7c-.3,0-.5.2-.5.5v10.1c0,.3.2.5.5.5h9.7l-.5-.5v9.7c0,.3.2.5.5.5h10.1c.3,0,.5-.2.5-.5v-9.7l-.5.5h9.7c.3,0,.5-.2.5-.5v-10.1c0-.6-1-.6-1,0v10.1l.5-.5h-9.7c-.3,0-.5.2-.5.5v9.7l.5-.5h-10.1l.5.5v-9.7c0-.3-.2-.5-.5-.5h-9.7c.2.2.3.3.5.5v-10.1c-.2.2-.3.3-.5.5h9.7c.3,0,.5-.2.5-.5v-9.7l-.5.5h10.1l-.5-.5v9.7c0,.3.2.5.5.5h9.7c.6,0,.6-1,0-1Z"/>
        <path class="cls-14" d="M112.9,410h-9.7l.5.5v-9.7c0-.3-.2-.5-.5-.5h-10.1c-.3,0-.5.2-.5.5v9.7l.5-.5h-9.7c-.3,0-.5.2-.5.5v10.1c0,.3.2.5.5.5h9.7l-.5-.5v9.7c0,.3.2.5.5.5h10.1c.3,0,.5-.2.5-.5v-9.7l-.5.5h9.7c.3,0,.5-.2.5-.5v-10.1c0-.6-1-.6-1,0v10.1l.5-.5h-9.7c-.3,0-.5.2-.5.5v9.7l.5-.5h-10.1l.5.5v-9.7c0-.3-.2-.5-.5-.5h-9.7c.2.2.3.3.5.5v-10.1c-.2.2-.3.3-.5.5h9.7c.3,0,.5-.2.5-.5v-9.7l-.5.5h10.1l-.5-.5v9.7c0,.3.2.5.5.5h9.7c.6,0,.6-1,0-1Z"/>
        <path class="cls-14" d="M106.5,104.2h-8.4l.5.5v-8.4c0-.3-.2-.5-.5-.5h-8.7c-.3,0-.5.2-.5.5v8.4l.5-.5h-8.4c-.3,0-.5.2-.5.5v8.7c0,.3.2.5.5.5h8.4l-.5-.5v8.4c0,.3.2.5.5.5h8.7c.3,0,.5-.2.5-.5v-8.4l-.5.5h8.4c.3,0,.5-.2.5-.5v-8.7c0-.6-1-.6-1,0v8.7l.5-.5h-8.4c-.3,0-.5.2-.5.5v8.4l.5-.5h-8.7l.5.5v-8.4c0-.3-.2-.5-.5-.5h-8.4l.5.5v-8.7l-.5.5h8.4c.3,0,.5-.2.5-.5v-8.4l-.5.5h8.7l-.5-.5v8.4c0,.3.2.5.5.5h8.4c.6,0,.6-1,0-1Z"/>
      </g>
      <g>
        <g>
          <path class="cls-13" d="M690,178.8c-3.3-3-8.2-3.9-12.3-2.2s-6.8,5.5-7.2,9.8.4,4.8,1.6,6.9.5.3.8.1c1.9-1.6,3.9-3.1,5.8-4.7l9.3-7.5c.7-.6,1.4-1.2,2.1-1.7s-.2-1.1-.7-.7c-1.9,1.6-3.9,3.1-5.8,4.7l-9.3,7.5c-.7.6-1.4,1.2-2.1,1.7h.8c-1.9-3.2-2-7.5,0-10.8s6.1-5.5,10.2-5.2,4.5,1.2,6.2,2.7,1.2-.3.7-.7h0Z"/>
          <path class="cls-13" d="M674.2,196c3.3,3,8.2,3.9,12.3,2.2s6.8-5.5,7.2-9.8-.4-4.8-1.6-6.9-.5-.3-.8-.1c-1.9,1.6-3.9,3.1-5.8,4.7-3.1,2.5-6.2,5-9.3,7.5s-1.4,1.2-2.1,1.7.2,1.1.7.7c1.9-1.6,3.9-3.1,5.8-4.7,3.1-2.5,6.2-5,9.3-7.5s1.4-1.2,2.1-1.7h-.8c1.9,3.2,2,7.5,0,10.8s-6.1,5.5-10.2,5.2-4.5-1.2-6.2-2.7-1.2.3-.7.7h0Z"/>
        </g>
        <g>
          <path class="cls-13" d="M154.4,460.6c.5-4.3-1.3-8.6-4.9-11.1s-8.6-2.8-12.4-.6-3.8,3.1-4.9,5.3,0,.6.3.7c2.4.7,4.8,1.4,7.1,2.1,3.8,1.1,7.6,2.2,11.5,3.3s1.8.5,2.6.8.9-.8.3-1c-2.4-.7-4.8-1.4-7.1-2.1-3.8-1.1-7.6-2.2-11.5-3.3s-1.8-.5-2.6-.8l.3.7c1.7-3.7,5.4-6.2,9.4-6.3s7.9,2.2,9.8,5.8,1.4,4.2,1.1,6.4.9.6,1,0h0Z"/>
          <path class="cls-13" d="M131.2,457.6c-.5,4.3,1.3,8.6,4.9,11.1s8.6,2.8,12.4.6,3.8-3.1,4.9-5.3,0-.6-.3-.7c-2.4-.7-4.8-1.4-7.1-2.1-3.8-1.1-7.6-2.2-11.5-3.3s-1.8-.5-2.6-.8-.9.8-.3,1c2.4.7,4.8,1.4,7.1,2.1,3.8,1.1,7.6,2.2,11.5,3.3s1.8.5,2.6.8l-.3-.7c-1.7,3.7-5.4,6.2-9.4,6.3s-7.9-2.2-9.8-5.8-1.4-4.2-1.1-6.4-.9-.6-1,0h0Z"/>
        </g>
        <g>
          <path class="cls-13" d="M67.9,233.9c.7-3-.2-6.3-2.6-8.4s-5.9-2.7-8.8-1.4-3,1.9-3.9,3.4,0,.6.3.7c4.2,1.8,8.4,3.5,12.6,5.3l1.8.7c.6.2.9-.7.3-1-4.2-1.8-8.4-3.5-12.6-5.3l-1.8-.7.3.7c1.9-3.1,5.9-4.4,9.3-3s5.1,5.1,4.2,8.6.8.9,1,.3h-.1Z"/>
          <path class="cls-13" d="M51.6,229.8c-.7,3,.2,6.3,2.6,8.4s5.9,2.7,8.8,1.4,3-1.9,3.9-3.4,0-.6-.3-.7c-4.2-1.8-8.4-3.5-12.6-5.3l-1.8-.7c-.6-.2-.9.7-.3,1,4.2,1.8,8.4,3.5,12.6,5.3l1.8.7-.3-.7c-1.9,3.1-5.9,4.4-9.3,3s-5.1-5.1-4.2-8.6-.8-.9-1-.3h.1Z"/>
        </g>
        <g>
          <path class="cls-13" d="M500.9,49.1c.7-3-.2-6.3-2.6-8.4s-5.9-2.7-8.8-1.4-3,1.9-3.9,3.4,0,.6.3.7c4.2,1.8,8.4,3.5,12.6,5.3l1.8.7c.6.2.9-.7.3-1-4.2-1.8-8.4-3.5-12.6-5.3l-1.8-.7.3.7c1.9-3.1,5.9-4.4,9.3-3s5.1,5.1,4.2,8.6.8.9,1,.3h0Z"/>
          <path class="cls-13" d="M484.6,45c-.7,3,.2,6.3,2.6,8.4s5.9,2.7,8.8,1.4,3-1.9,3.9-3.4,0-.6-.3-.7c-4.2-1.8-8.4-3.5-12.6-5.3l-1.8-.7c-.6-.2-.9.7-.3,1,4.2,1.8,8.4,3.5,12.6,5.3l1.8.7-.3-.7c-1.9,3.1-5.9,4.4-9.3,3s-5.1-5.1-4.2-8.6-.8-.9-1-.3h0Z"/>
        </g>
      </g>
    </g>
  </g>
</svg>